<?xml version="1.0" standalone="no"?>
<!DOCTYPE svg PUBLIC "-//W3C//DTD SVG 1.1//EN" "http://www.w3.org/Graphics/SVG/1.1/DTD/svg11.dtd" >
<svg xmlns="http://www.w3.org/2000/svg" xmlns:xlink="http://www.w3.org/1999/xlink" version="1.1">
<metadata>
Created by FontForge 20170731 at Wed Apr 15 18:31:21 2015
 By Aleksey,,,
2014 Iconian Fonts - www.iconian.com
</metadata>
<defs>
<font id="PaladinsGradient" horiz-adv-x="991" >
  <font-face 
    font-family="Paladins Gradient"
    font-weight="400"
    font-stretch="normal"
    units-per-em="1000"
    panose-1="0 0 0 0 0 0 0 0 0 0"
    ascent="800"
    descent="-200"
    x-height="646"
    cap-height="646"
    bbox="-151 -170 1717 774"
    underline-thickness="50"
    underline-position="-175"
    unicode-range="U+0020-2122"
  />
<missing-glyph horiz-adv-x="1014" 
d="M628 0v128h-386v63h387v119l-97 189h-498v-128h335l29 -62h-365v-309h595zM990 499h-317v-128h107v-371h210v499z" />
    <glyph glyph-name=".notdef" horiz-adv-x="1014" 
d="M628 0v128h-386v63h387v119l-97 189h-498v-128h335l29 -62h-365v-309h595zM990 499h-317v-128h107v-371h210v499z" />
    <glyph glyph-name=".null" horiz-adv-x="0" 
 />
    <glyph glyph-name="nonmarkingreturn" horiz-adv-x="500" 
 />
    <glyph glyph-name="space" unicode=" " horiz-adv-x="538" 
 />
    <glyph glyph-name="space" unicode="&#xa0;" horiz-adv-x="538" 
 />
    <glyph glyph-name="FL0021h" unicode="!" horiz-adv-x="431" 
d="M131 34l19 48h273l-19 -48h-273zM157 100l17 45h273l-17 -45h-273zM235 300l13 34h271l-13 -34h-271zM260 366l12 31h271l-12 -31h-271zM484 243h-271l11 28h271zM286 433l11 27h271l-11 -27h-271zM311 499l9 24h272l-9 -24h-272zM318 566l-16 19h313l-7 -19h-290z
M639 646l-6 -14h-369l-11 14h386zM119 0l7 19h273l-7 -19h-273z" />
    <glyph glyph-name="FL0022h" unicode="&#x22;" horiz-adv-x="665" 
d="M545 499l9 24h273l-9 -24h-273zM231 499l10 24h273l-10 -24h-273zM570 566l7 19h273l-7 -19h-273zM257 566l8 19h273l-8 -19h-273zM595 632l6 14h273l-6 -14h-273zM283 632l5 13h273l-5 -13h-273zM335 433l10 27h123l-33 -27h-100zM648 433l10 27h123l-34 -27h-99z
M358 370h-47l10 27h70zM671 371h-47l10 26h69z" />
    <glyph glyph-name="FL0023h" unicode="#" horiz-adv-x="1021" 
d="M104 167l16 41h977l-16 -41h-977zM129 233l15 38h977l-15 -38h-977zM180 366l12 31h977l-12 -31h-977zM1070 137h-126l-14 -37h-271l14 37h-184l-14 -37h-271l14 37h-125l3 8h977zM206 433l11 27h977l-11 -27h-977zM1086 507h126l-3 -8h-977l3 8h125l6 16h271l-6 -16h184
l6 16h271zM178 34l19 48h271l-19 -48h-271zM633 34l19 48h271l-19 -48h-271zM280 300l13 34h271l-13 -34h-271zM735 300l13 34h271l-13 -34h-271zM382 566l7 19h271l-7 -19h-271zM891 0h-271l7 19h271zM837 566l7 19h271l-7 -19h-271zM436 0h-271l7 19h271zM868 646h271
l-6 -14h-271zM407 632l6 14h271l-6 -14h-271z" />
    <glyph glyph-name="FL0024h" unicode="$" horiz-adv-x="990" 
d="M132 34l19 48h832l-19 -48h-832zM158 100l17 45h832l-17 -45h-832zM235 300l13 34h831l-13 -34h-831zM769 233l4 10h-560l11 28h831l-15 -38h-271zM260 366l12 31h831l-12 -31h-831zM951 0h-279l-13 -33h-271l13 33h-281l7 19h831zM311 499l9 24h831l-9 -24h-831z
M318 566l-16 19h873l-7 -19h-850zM337 -166l23 59h271l-23 -59h-271zM363 -99l21 55h271l-21 -55h-271zM920 646h279l-6 -14h-929l-11 14h396l1 2h271zM743 167l16 41h272l-16 -41h-272zM286 433l11 27h270l-10 -27h-271zM669 699l5 12h271l-5 -12h-271zM694 765l4 9h271
l-4 -9h-271zM607 -170h-271v1h271v-1z" />
    <glyph glyph-name="FL0025h" unicode="%" horiz-adv-x="914" 
d="M694 202l-14 -35h-428l51 41h638l-16 -41h-172l14 35h-73zM334 233l48 38h583l-15 -38h-616zM458 34l18 48h416l-18 -48h-416zM718 323h267l-9 -23h-558l29 23h-260l4 11h541zM203 366l12 31h596l-39 -31h-569zM662 121h73l9 24h173l-18 -45h-416l17 45h171zM404 444h73
l6 16h407l-34 -27h-627l11 27h170zM85 34l60 48h271l-60 -48h-271zM168 100l56 45h271l-56 -45h-271zM499 499l9 24h172l-8 -21l26 21h271l-30 -24h-440zM861 0h-416l7 19h416zM280 566l8 19h415l-7 -19h-416zM253 646h474l-6 -14h-457zM752 566l23 19h271l-23 -19h-271z
M314 0h-271l24 19h271zM255 499l9 24h171l-9 -24h-171zM834 632l18 14h271l-18 -14h-271z" />
    <glyph glyph-name="FL0026h" unicode="&#x26;" horiz-adv-x="1029" 
d="M133 34l18 48h791l-18 -48h-791zM158 100l17 45h791l-17 -45h-791zM234 300l13 34h906l-13 -34h-906zM484 243l-4 -10h-271l14 38h906l-11 -28h-114l-4 -10h-271l4 10h-249zM260 366l12 31h905l-12 -31h-905zM311 499l9 24h707l-9 -24h-707zM911 0h-791l7 19h791z
M318 566l-16 19h749l-7 -19h-726zM253 646h822l-6 -14h-805zM703 167l16 41h271l-15 -41h-272zM184 167l15 41h271l-16 -41h-270zM286 433l10 27h271l-10 -27h-271z" />
    <glyph glyph-name="FL002Ah" unicode="'" horiz-adv-x="352" 
d="M231 499l10 24h273l-10 -24h-273zM257 566l8 19h273l-8 -19h-273zM283 632l5 13h273l-5 -13h-273zM335 433l10 27h123l-33 -27h-100zM358 370h-47l10 27h70z" />
    <glyph glyph-name="FL0028h" unicode="(" horiz-adv-x="545" 
d="M53 34l19 48h465l-19 -48h-465zM79 100l17 45h465l-17 -45h-465zM232 499l9 24h465l-9 -24h-465zM104 167l16 41h270l-16 -41h-270zM129 233l15 38h270l-14 -38h-271zM155 300l13 34h270l-13 -34h-270zM506 0h-466l7 19h466zM257 566l7 19h466l-7 -19h-466zM180 366
l12 31h271l-12 -31h-271zM206 433l11 27h270l-10 -27h-271zM754 646l-6 -14h-466l6 14h466z" />
    <glyph glyph-name="FL0029h" unicode=")" horiz-adv-x="545" 
d="M52 34l19 48h467l-19 -48h-467zM78 100l17 45h467l-17 -45h-467zM231 499l9 24h467l-9 -24h-467zM298 167l16 41h272l-16 -41h-272zM324 233l14 38h272l-15 -38h-271zM349 300l13 34h272l-13 -34h-272zM506 0h-466l7 19h466zM257 566l7 19h466l-7 -19h-466zM375 366
l12 31h271l-12 -31h-271zM401 433l10 27h272l-11 -27h-271zM282 632l6 14h466l-6 -14h-466z" />
    <glyph glyph-name="FL0333h" unicode="*" horiz-adv-x="352" 
d="M257 566l7 19h273l-7 -19h-273zM282 632l6 16h273l-6 -16h-273zM308 699l5 12h273l-5 -12h-273z" />
    <glyph glyph-name="FL002Bh" unicode="+" horiz-adv-x="515" 
d="M155 300l13 34h471l-13 -34h-471zM604 243h-156l-4 -10h-160l4 10h-155l11 28h471zM180 366l12 31h471l-12 -31h-471zM233 100l17 45h160l-17 -45h-160zM259 167l15 41h160l-15 -41h-160zM361 433l11 27h160l-11 -27h-160zM386 499l9 24h160l-9 -24h-160z" />
    <glyph glyph-name="FL002Ch" unicode="," horiz-adv-x="352" 
d="M52 34l19 48h273l-19 -48h-273zM78 100l17 45h273l-17 -45h-273zM40 0l7 19h273l-7 -19l-41 -33h-116l13 33h-129zM131 -99l21 55h107l-67 -55h-61zM172 -115h-47l3 8h54z" />
    <glyph glyph-name="FL002Dh" unicode="-" horiz-adv-x="515" 
d="M155 300l13 34h471l-13 -34h-471zM180 366l12 31h471l-12 -31h-471zM604 243h-471l11 28h471z" />
    <glyph glyph-name="FL002Eh" unicode="." horiz-adv-x="352" 
d="M52 34l19 48h273l-19 -48h-273zM78 100l17 45h273l-17 -45h-273zM40 0l7 19h273l-7 -19h-273z" />
    <glyph glyph-name="FL002Fh" unicode="/" horiz-adv-x="911" 
d="M83 34l60 48h271l-60 -48h-271zM165 100l57 45h271l-57 -45h-271zM249 167l52 41h271l-52 -41h-271zM332 233l48 38h271l-48 -38h-271zM416 300l43 34h271l-43 -34h-271zM499 366l38 31h271l-38 -31h-271zM582 433l34 27h271l-34 -27h-271zM665 499l30 24h271l-30 -24
h-271zM311 0h-271l24 19h271zM749 566l23 19h271l-23 -19h-271zM849 646h271l-18 -14h-271z" />
    <glyph glyph-name="FL0030h" unicode="0" 
d="M133 34l18 48h833l-19 -48h-832zM158 100l17 45h833l-17 -45h-833zM311 499l9 24h833l-9 -24h-833zM318 566l-16 19h874l-7 -19h-851zM952 0h-832l7 19h832zM253 646h947l-6 -14h-930zM744 167l16 41h272l-16 -41h-272zM184 167l15 41h271l-16 -41h-270zM770 233l14 38
h272l-15 -38h-271zM209 233l14 38h271l-14 -38h-271zM795 300l13 34h272l-13 -34h-272zM234 300l13 34h271l-13 -34h-271zM821 366l12 31h271l-12 -31h-271zM260 366l12 31h271l-12 -31h-271zM847 433l10 27h272l-11 -27h-271zM286 433l10 27h271l-10 -27h-271z" />
    <glyph glyph-name="FL0031h" unicode="1" horiz-adv-x="491" 
d="M71 34l19 48h393l-19 -48h-393zM97 100l17 45h393l-17 -45h-393zM183 167l16 41h271l-16 -41h-271zM209 233l14 38h271l-14 -38h-271zM234 300l13 34h271l-13 -34h-271zM260 366l12 31h271l-12 -31h-271zM59 0l7 19h393l-7 -19h-393zM286 433l10 27h271l-10 -27h-271z
M311 499l9 24h271l-9 -24h-271zM318 566l-16 19h313l-7 -19h-290zM639 646l-6 -14h-369l-11 14h386z" />
    <glyph glyph-name="FL0032h" unicode="2" horiz-adv-x="990" 
d="M132 34l19 48h830l-19 -48h-830zM158 100l17 45h830l-17 -45h-830zM234 300l13 34h834l-13 -34h-834zM483 243l-4 -10h-271l15 38h834l-11 -28h-563zM259 366l12 31h834l-12 -31h-834zM311 499l9 24h834l-9 -24h-834zM318 566l-16 19h875l-7 -19h-852zM950 0h-831l7 19
h831zM1201 646l-6 -14h-931l-11 14h948zM183 167l16 41h270l-16 -41h-270zM847 433l10 27h273l-11 -27h-272z" />
    <glyph glyph-name="FL0034h" unicode="3" horiz-adv-x="990" 
d="M131 34l19 48h835l-19 -48h-835zM157 100l17 45h835l-17 -45h-835zM234 300l13 34h834l-13 -34h-834zM774 243h-562l11 28h834l-15 -38h-272zM259 366l12 31h834l-12 -31h-834zM367 499l-19 24h806l-9 -24h-778zM315 566l-15 19h877l-7 -19h-855zM953 0h-834l7 19h834z
M1201 646l-6 -14h-931l-11 14h948zM744 167l16 41h273l-16 -41h-273zM847 433l10 27h273l-11 -27h-272z" />
    <glyph glyph-name="FL0035h" unicode="4" 
d="M235 300l13 34h832l-13 -34h-832zM770 233l4 10h-561l11 28h832l-15 -38h-271zM260 366l12 31h832l-12 -31h-832zM694 34l18 48h272l-19 -48h-271zM719 100l17 45h272l-17 -45h-272zM745 167l15 41h272l-16 -41h-271zM286 433l11 27h271l-11 -27h-271zM847 433l11 27h271
l-11 -27h-271zM311 499l9 24h272l-9 -24h-272zM873 499l9 24h271l-9 -24h-271zM318 566l-16 19h313l-7 -19h-290zM253 646h386l-6 -14h-369zM952 0h-271l7 19h271zM898 566l7 19h271l-7 -19h-271zM923 632l6 14h271l-6 -14h-271z" />
    <glyph glyph-name="FL0036h" unicode="5" horiz-adv-x="990" 
d="M132 34l19 48h832l-19 -48h-832zM158 100l17 45h832l-17 -45h-832zM235 300l13 34h831l-13 -34h-831zM769 233l4 10h-560l11 28h831l-15 -38h-271zM260 366l12 31h831l-12 -31h-831zM311 499l9 24h685l-9 -24h-685zM951 0h-831l7 19h831zM318 566l-16 19h727l-7 -19h-704
zM743 167l16 41h272l-16 -41h-272zM253 646h800l-6 -14h-783zM286 433l11 27h270l-10 -27h-271z" />
    <glyph glyph-name="FL0037h" unicode="6" horiz-adv-x="990" 
d="M133 34l18 48h833l-19 -48h-832zM158 100l17 45h833l-17 -45h-833zM484 243l-4 -10h-271l14 38h833l-15 -38h-271l4 10h-290zM234 300l13 34h833l-13 -34h-833zM260 366l12 31h832l-12 -31h-832zM311 499l9 24h832l-9 -24h-832zM318 566l-16 19h874l-7 -19h-851zM952 0
h-832l7 19h832zM1200 646l-6 -14h-930l-11 14h947zM744 167l16 41h272l-16 -41h-272zM184 167l15 41h271l-16 -41h-270zM286 433l10 27h271l-10 -27h-271z" />
    <glyph glyph-name="FL0038h" unicode="7" horiz-adv-x="990" 
d="M372 499l-20 24h798l-9 -24h-769zM164 34l63 48h372l-64 -48h-371zM251 100l60 45h372l-60 -45h-372zM318 566l-16 19h872l-7 -19h-849zM340 167l54 41h373l-54 -41h-373zM427 233l51 38h373l-50 -38h-374zM1198 646l-6 -14h-928l-11 14h945zM516 300l45 34h374l-45 -34
h-374zM604 366l41 31h374l-42 -31h-373zM693 433l36 27h374l-36 -27h-374zM490 0h-371l25 19h371z" />
    <glyph glyph-name="FL0062h" unicode="8" horiz-adv-x="990" 
d="M133 34l18 48h833l-19 -48h-832zM158 100l17 45h833l-17 -45h-833zM484 243l-4 -10h-271l14 38h833l-15 -38h-271l4 10h-290zM234 300l13 34h833l-13 -34h-833zM260 366l12 31h832l-12 -31h-832zM311 499l9 24h833l-9 -24h-833zM318 566l-16 19h874l-7 -19h-851zM120 0
l7 19h832l-7 -19h-832zM1200 646l-6 -14h-930l-11 14h947zM744 167l16 41h272l-16 -41h-272zM184 167l15 41h271l-16 -41h-270zM286 433l10 27h271l-10 -27h-271zM847 433l10 27h272l-11 -27h-271z" />
    <glyph glyph-name="FL0039h" unicode="9" horiz-adv-x="990" 
d="M132 34l19 48h833l-19 -48h-833zM158 100l17 45h833l-17 -45h-833zM235 300l13 34h832l-13 -34h-832zM774 243h-561l11 28h832l-15 -38h-271zM260 366l12 31h832l-12 -31h-832zM311 499l9 24h833l-9 -24h-833zM318 566l-16 19h874l-7 -19h-851zM952 0h-832l7 19h832z
M1200 646l-6 -14h-930l-11 14h947zM744 167l16 41h272l-16 -41h-272zM847 433l10 27h272l-11 -27h-271zM286 433l11 27h270l-10 -27h-271z" />
    <glyph glyph-name="FL003Ah" unicode=":" horiz-adv-x="353" 
d="M53 34l19 48h273l-19 -48h-273zM79 100l17 45h273l-17 -45h-273zM180 366l12 31h273l-12 -31h-273zM206 433l10 27h273l-10 -27h-273zM41 0l7 19h273l-7 -19h-273zM165 325l3 9h273l-3 -9h-273z" />
    <glyph glyph-name="FL003Bh" unicode=";" horiz-adv-x="353" 
d="M53 34l19 48h273l-19 -48h-273zM79 100l17 45h273l-17 -45h-273zM41 0l7 19h273l-7 -19l-41 -33h-116l13 33h-129zM180 366l12 31h273l-12 -31h-273zM206 433l10 27h273l-10 -27h-273zM132 -99l21 55h107l-67 -55h-61zM438 325h-273l3 9h273zM173 -115h-47l3 8h54z" />
    <glyph glyph-name="FL003Ch" unicode="&#x3c;" horiz-adv-x="631" 
d="M304 34l-23 48h271l23 -48h-271zM272 100l-22 45h271l22 -45h-271zM239 167l-20 41h271l20 -41h-271zM207 233l-18 38h271l18 -38h-271zM175 300l-11 23l14 11h271l-14 -11l11 -23h-271zM218 366l39 31h271l-39 -31h-271zM302 433l34 27h271l-34 -27h-271zM385 499l30 24
h271l-30 -24h-271zM469 566l23 19h271l-23 -19h-271zM583 19l9 -19h-271l-9 19h271zM569 646h271l-18 -14h-271z" />
    <glyph glyph-name="FL003Dh" unicode="=" horiz-adv-x="563" 
d="M104 167l16 41h519l-16 -41h-519zM129 233l15 38h519l-15 -38h-519zM180 366l12 31h519l-12 -31h-519zM206 433l11 27h519l-11 -27h-519zM612 137h-519l3 8h519zM235 507h519l-3 -8h-519z" />
    <glyph glyph-name="FL003Eh" unicode="&#x3e;" horiz-adv-x="596" 
d="M83 34l60 48h271l-60 -48h-271zM165 100l57 45h271l-57 -45h-271zM249 167l52 41h271l-52 -41h-271zM332 233l48 38h271l-48 -38h-271zM445 323l-6 11h271l6 -11l-29 -23h-271zM424 366l-15 31h271l15 -31h-271zM391 433l-13 27h271l13 -27h-271zM359 499l-11 24h271
l11 -24h-271zM311 0h-271l24 19h271zM327 566l-9 19h271l9 -19h-271zM559 646l7 -14h-271l-7 14h271z" />
    <glyph glyph-name="FL003Fh" unicode="?" horiz-adv-x="990" 
d="M234 300l13 34h834l-13 -34h-834zM259 366l12 31h834l-12 -31h-834zM1046 243h-834l11 28h834zM311 499l9 24h834l-9 -24h-834zM318 566l-16 19h875l-7 -19h-852zM1201 646l-6 -14h-931l-11 14h948zM131 34l19 48h273l-19 -48h-273zM157 100l17 45h273l-17 -45h-273z
M847 433l10 27h273l-11 -27h-272zM119 0l7 19h273l-7 -19h-273z" />
    <glyph glyph-name="FL0040h" unicode="@" horiz-adv-x="1139" 
d="M27 -33l20 52h824l-20 -52h-824zM829 -91h-824l18 47h824zM337 69h553l-14 -35h-823l18 48h271zM444 167l16 41h755l-16 -41h-755zM469 233l15 38h755l-15 -38h-755zM283 632l6 16h1095l-6 -16h-1095zM1084 573h-553l-3 -7h-271l8 19h1095l-8 -19h-271zM308 699l5 12
h1095l-5 -12h-1095zM520 366l12 31h416l-12 -31h-416zM78 100l18 45h270l-17 -45h-271zM546 433l11 27h416l-11 -27h-416zM104 167l16 41h271l-16 -41h-271zM129 233l15 38h271l-15 -38h-271zM978 300l13 34h272l-13 -34h-272zM155 300l13 34h271l-13 -34h-271zM1004 366
l12 31h271l-12 -31h-271zM180 366l12 31h271l-12 -31h-271zM1030 433l10 27h272l-11 -27h-271zM206 433l11 27h271l-11 -27h-271zM1055 499l9 24h272l-9 -24h-272zM232 499l9 24h271l-9 -24h-271zM739 300l13 34h172l-13 -34h-172zM495 300l13 34h171l-13 -34h-171z" />
    <glyph glyph-name="FL0041h" unicode="A" horiz-adv-x="990" 
d="M209 233l14 38h833l-15 -38h-832zM234 300l13 34h833l-13 -34h-833zM470 207l-15 -40h-271l15 41h833l-16 -41h-271l15 40h-290zM311 499l9 24h833l-9 -24h-833zM532 367h290l11 30h271l-12 -31h-832l12 31h271zM318 566l-16 19h874l-7 -19h-851zM1200 646l-6 -14h-930
l-11 14h947zM694 34l18 48h272l-19 -48h-271zM133 34l18 48h271l-18 -48h-271zM719 100l17 45h272l-17 -45h-272zM158 100l17 45h271l-17 -45h-271zM847 433l10 27h272l-11 -27h-271zM286 433l10 27h271l-10 -27h-271zM952 0h-271l7 19h271zM391 0h-271l7 19h271z" />
    <glyph glyph-name="FL0042h" unicode="B" 
d="M133 34l18 48h832l-19 -48h-831zM158 100l17 45h832l-17 -45h-832zM484 243l-4 -10h-271l14 38h832l-15 -38h-271l4 10h-289zM1075 322l-9 -22h-832l13 34h703l-20 -12h145zM260 366l12 31h782l-51 -31h-743zM311 499l9 24h833l-9 -24h-833zM318 566l-16 19h874l-7 -19
h-851zM120 0l7 19h831l-7 -19h-831zM1200 646l-6 -14h-930l-11 14h947zM743 167l16 41h272l-16 -41h-272zM184 167l15 41h271l-16 -41h-270zM1120 437l-7 -4h-375l45 27h346zM286 433l10 27h271l-10 -27h-271z" />
    <glyph glyph-name="FL0043h" unicode="C" horiz-adv-x="988" 
d="M133 34l18 48h829l-19 -48h-828zM158 100l17 45h829l-17 -45h-829zM311 499l9 24h829l-9 -24h-829zM318 566l-16 19h871l-7 -19h-848zM949 0h-829l7 19h829zM1197 646l-6 -14h-927l-11 14h944zM184 167l15 41h271l-16 -41h-270zM209 233l14 38h271l-14 -38h-271zM234 300
l13 34h271l-13 -34h-271zM260 366l12 31h271l-12 -31h-271zM286 433l10 27h271l-10 -27h-271z" />
    <glyph glyph-name="FL0044h" unicode="D" 
d="M158 100l17 45h769l-75 -45h-711zM133 34l18 48h688l-80 -48h-626zM311 499l9 24h833l-9 -24h-833zM318 566l-16 19h874l-7 -19h-851zM1027 195l-47 -28h-371l65 41h358zM1200 646l-6 -14h-930l-11 14h947zM713 233l60 38h283l-15 -38h-328zM120 0l7 19h607l-31 -19h-583
zM184 167l15 41h271l-16 -41h-270zM209 233l14 38h271l-14 -38h-271zM795 300l13 34h272l-13 -34h-272zM234 300l13 34h271l-13 -34h-271zM821 366l12 31h271l-12 -31h-271zM260 366l12 31h271l-12 -31h-271zM847 433l10 27h272l-11 -27h-271zM286 433l10 27h271l-10 -27
h-271z" />
    <glyph glyph-name="FL0045h" unicode="E" 
d="M133 34l18 48h832l-19 -48h-831zM158 100l17 45h832l-17 -45h-832zM234 300l13 34h833l-13 -34h-833zM484 243l-4 -10h-271l14 38h833l-11 -28h-561zM260 366l12 31h832l-12 -31h-832zM311 499l9 24h832l-9 -24h-832zM318 566l-16 19h874l-7 -19h-851zM952 0h-832l7 19
h832zM1200 646l-6 -14h-930l-11 14h947zM184 167l15 41h271l-16 -41h-270zM286 433l10 27h271l-10 -27h-271z" />
    <glyph glyph-name="FL0046h" unicode="F" horiz-adv-x="990" 
d="M234 300l13 34h832l-13 -34h-832zM484 243l-4 -10h-271l14 38h832l-11 -28h-560zM260 366l12 31h831l-12 -31h-831zM311 499l9 24h831l-9 -24h-831zM318 566l-16 19h873l-7 -19h-850zM1199 646l-6 -14h-929l-11 14h946zM133 34l18 48h271l-18 -48h-271zM158 100l17 45
h271l-17 -45h-271zM184 167l15 41h271l-15 -41h-271zM286 433l10 27h271l-10 -27h-271zM391 0h-271l7 19h271z" />
    <glyph glyph-name="FL0047h" unicode="G" horiz-adv-x="990" 
d="M133 34l18 48h832l-19 -48h-831zM158 100l17 45h832l-17 -45h-832zM311 499l9 24h831l-9 -24h-831zM318 566l-16 19h873l-7 -19h-850zM951 0h-831l7 19h831zM773 243h-136l11 28h407l-15 -38h-271zM659 300l13 34h407l-13 -34h-407zM1199 646l-6 -14h-929l-11 14h946z
M684 366l12 31h407l-12 -31h-407zM743 167l16 41h272l-16 -41h-272zM184 167l15 41h271l-16 -41h-270zM209 233l14 38h271l-14 -38h-271zM234 300l13 34h271l-13 -34h-271zM260 366l12 31h271l-12 -31h-271zM286 433l10 27h271l-10 -27h-271z" />
    <glyph glyph-name="FL0048h" unicode="H" 
d="M484 243l-4 -10h-271l14 38h833l-15 -38h-271l4 10h-290zM234 300l13 34h833l-13 -34h-833zM260 366l12 31h832l-12 -31h-832zM694 34l18 48h272l-19 -48h-271zM133 34l18 48h271l-18 -48h-271zM719 100l17 45h272l-17 -45h-272zM158 100l17 45h271l-17 -45h-271z
M745 167l15 41h272l-16 -41h-271zM184 167l15 41h271l-15 -41h-271zM286 433l10 27h272l-11 -27h-271zM847 433l11 27h271l-11 -27h-271zM311 499l9 24h272l-9 -24h-272zM873 499l9 24h271l-9 -24h-271zM318 566l-16 19h313l-7 -19h-290zM639 646l-6 -14h-369l-11 14h386z
M952 0h-271l7 19h271zM391 0h-271l7 19h271zM898 566l7 19h271l-7 -19h-271zM1200 646l-6 -14h-271l6 14h271z" />
    <glyph glyph-name="FL0049h" unicode="I" horiz-adv-x="430" 
d="M133 34l18 48h272l-19 -48h-271zM158 100l17 45h272l-17 -45h-272zM184 167l15 41h272l-16 -41h-271zM209 233l14 38h272l-15 -38h-271zM234 300l13 34h272l-13 -34h-272zM260 366l12 31h271l-12 -31h-271zM286 433l10 27h272l-11 -27h-271zM311 499l9 24h272l-9 -24
h-272zM318 566l-16 19h313l-7 -19h-290zM639 646l-6 -14h-369l-11 14h386zM391 0h-271l7 19h271z" />
    <glyph glyph-name="FL00BEh" unicode="J" 
d="M133 34l19 48h832l-19 -48h-832zM159 100l17 45h832l-17 -45h-832zM952 0h-832l7 19h832zM190 366l-25 31h378l-12 -31h-341zM744 167l16 41h272l-16 -41h-272zM184 167l16 41h270l-16 -41h-270zM770 233l14 38h272l-15 -38h-271zM209 233l15 38h271l-15 -38h-271z
M235 300l3 7l-22 27h303l-13 -34h-271zM795 300l13 34h272l-13 -34h-272zM821 366l12 31h271l-12 -31h-271zM847 433l10 27h272l-11 -27h-271zM872 499l9 24h272l-9 -24h-272zM879 566l-16 19h313l-7 -19h-290zM814 646h386l-6 -14h-369z" />
    <glyph glyph-name="FL004Bh" unicode="K" 
d="M484 243l-4 -10h-271l14 38h752l34 -38h-374l-8 10h-143zM234 300l13 34h703l-20 -12l19 -22h-715zM260 366l12 31h782l-51 -31h-743zM692 167l-35 41h373l-15 -41h-323zM692 34l19 48h271l-18 -48h-272zM133 34l18 48h271l-18 -48h-271zM728 126l-17 19h295l-17 -45
h-271zM158 100l17 45h271l-17 -45h-271zM184 167l15 41h271l-15 -41h-271zM1120 437l-7 -4h-376l45 27h347zM286 433l10 27h272l-11 -27h-271zM846 499l35 21l1 3h271l-9 -24h-298zM311 499l9 24h272l-9 -24h-272zM318 566l-16 19h313l-7 -19h-290zM639 646l-6 -14h-369
l-11 14h386zM951 0h-271l7 19h271zM391 0h-271l7 19h271zM898 566l7 19h271l-7 -19h-271zM1200 646l-6 -14h-271l6 14h271z" />
    <glyph glyph-name="FL004Ch" unicode="L" horiz-adv-x="913" 
d="M133 34l18 48h789l-19 -48h-788zM158 100l17 45h789l-17 -45h-789zM909 0h-789l7 19h789zM184 167l15 41h271l-16 -41h-270zM209 233l14 38h271l-14 -38h-271zM234 300l13 34h271l-13 -34h-271zM260 366l12 31h271l-12 -31h-271zM286 433l10 27h271l-10 -27h-271z
M311 499l9 24h271l-9 -24h-271zM318 566l-16 19h313l-7 -19h-290zM639 646l-6 -14h-369l-11 14h386z" />
    <glyph glyph-name="FL004Dh" unicode="M" horiz-adv-x="1329" 
d="M311 499l9 24h1171l-9 -24h-1171zM318 566l-16 19h1212l-7 -19h-1189zM1538 646l-6 -14h-1268l-11 14h1285zM133 34l18 48h272l-19 -48h-271zM1032 34l19 48h271l-19 -48h-271zM582 34l19 48h271l-19 -48h-271zM158 100l17 45h272l-17 -45h-272zM608 100l17 45h271
l-17 -45h-271zM1058 100l17 45h271l-17 -45h-271zM184 167l15 41h272l-15 -41h-272zM634 167l15 41h271l-15 -41h-271zM1084 167l15 41h271l-16 -41h-270zM209 233l14 38h272l-14 -38h-272zM659 233l14 38h271l-14 -38h-271zM1109 233l14 38h271l-15 -38h-270zM234 300
l13 34h272l-13 -34h-272zM684 300l13 34h271l-13 -34h-271zM1134 300l13 34h271l-13 -34h-271zM260 366l12 31h272l-12 -31h-272zM710 366l12 31h271l-12 -31h-271zM1160 366l12 31h270l-12 -31h-270zM286 433l10 27h272l-10 -27h-272zM736 433l10 27h271l-10 -27h-271z
M1186 433l10 27h271l-11 -27h-270zM1290 0h-271l7 19h271zM391 0h-271l7 19h271zM840 0h-271l7 19h271z" />
    <glyph glyph-name="FL004Eh" unicode="N" 
d="M234 300l13 34h833l-13 -34h-833zM537 233l-24 38h543l-15 -38h-504zM579 167l-26 41h479l-16 -41h-437zM622 100l-29 45h415l-17 -45h-369zM260 366l12 31h520l20 -31h-552zM663 34l-30 48h351l-19 -48h-302zM133 34l18 48h271l-18 -48h-271zM286 433l10 27h456l17 -27
h-483zM158 100l17 45h272l-18 -45h-271zM184 167l15 41h272l-16 -41h-271zM209 233l14 38h272l-15 -38h-271zM311 499l9 24h393l15 -24h-417zM821 366l12 31h271l-12 -31h-271zM847 433l11 27h271l-11 -27h-271zM318 566l-16 19h371l12 -19h-367zM873 499l9 24h271l-9 -24
h-271zM253 646h382l9 -14h-380zM685 0l-12 19h286l-7 -19h-267zM391 0h-271l7 19h271zM898 566l7 19h271l-7 -19h-271zM1200 646l-6 -14h-271l6 14h271z" />
    <glyph glyph-name="FL004Fh" unicode="O" 
d="M133 34l18 48h833l-19 -48h-832zM158 100l17 45h833l-17 -45h-833zM311 499l9 24h833l-9 -24h-833zM318 566l-16 19h874l-7 -19h-851zM952 0h-832l7 19h832zM253 646h947l-6 -14h-930zM744 167l16 41h272l-16 -41h-272zM184 167l15 41h271l-16 -41h-270zM770 233l14 38
h272l-15 -38h-271zM209 233l14 38h271l-14 -38h-271zM795 300l13 34h272l-13 -34h-272zM234 300l13 34h271l-13 -34h-271zM821 366l12 31h271l-12 -31h-271zM260 366l12 31h271l-12 -31h-271zM847 433l10 27h272l-11 -27h-271zM286 433l10 27h271l-10 -27h-271z" />
    <glyph glyph-name="FL0050h" unicode="P" horiz-adv-x="990" 
d="M209 233l14 38h832l-14 -38h-832zM234 300l13 34h832l-13 -34h-832zM311 499l9 24h832l-9 -24h-832zM532 367h290l11 30h271l-12 -31h-832l12 31h271zM318 566l-16 19h874l-7 -19h-851zM1200 646l-6 -14h-930l-11 14h947zM133 34l18 48h271l-18 -48h-271zM158 100l17 45
h271l-17 -45h-271zM470 207l-15 -40h-271l15 41h832v-1h-561zM286 433l10 27h271l-10 -27h-271zM847 433l10 27h271l-10 -27h-271zM391 0h-271l7 19h271z" />
    <glyph glyph-name="FL0051h" unicode="Q" 
d="M133 34l18 48h833l-19 -48h-832zM158 100l17 45h833l-17 -45h-833zM120 0l7 19h832l-7 -19h-84l9 -33h-273l-10 33h-474zM472 167l118 41h442l-16 -41h-544zM311 499l9 24h833l-9 -24h-833zM318 566l-16 19h874l-7 -19h-851zM623 -99l-16 55h273l16 -55h-273zM1200 646
l-6 -14h-930l-11 14h947zM662 233l110 38h284l-15 -38h-379zM184 167l15 41h271l-16 -41h-270zM209 233l14 38h271l-14 -38h-271zM796 300l13 34h271l-13 -34h-271zM234 300l13 34h271l-13 -34h-271zM260 366l12 31h271l-12 -31h-271zM821 366l12 31h271l-12 -31h-271z
M634 -134l-8 27h272l8 -27h-272zM847 433l10 27h272l-11 -27h-271zM286 433l10 27h271l-10 -27h-271z" />
    <glyph glyph-name="FL0052h" unicode="R" horiz-adv-x="990" 
d="M209 233l14 38h833l-15 -38h-832zM234 300l13 34h833l-13 -34h-833zM538 384h290l5 13h271l-12 -31h-832l12 31h271zM311 499l9 24h833l-9 -24h-833zM318 566l-16 19h874l-7 -19h-851zM1200 646l-6 -14h-930l-11 14h947zM669 34l-14 48h273l13 -48h-272zM133 34l18 48
h271l-18 -48h-271zM649 100l-13 45h275l12 -45h-274zM158 100l17 45h271l-17 -45h-271zM629 167l-12 41h276l12 -41h-276zM184 167l15 41h272l-16 -41h-271zM847 433l10 27h272l-11 -27h-271zM286 433l10 27h271l-10 -27h-271zM679 0l-6 19h272l6 -19h-272zM391 0h-271l7 19
h271z" />
    <glyph glyph-name="FL0053h" unicode="S" horiz-adv-x="990" 
d="M132 34l19 48h832l-19 -48h-832zM158 100l17 45h832l-17 -45h-832zM235 300l13 34h831l-13 -34h-831zM773 243h-560l11 28h831l-15 -38h-271zM260 366l12 31h831l-12 -31h-831zM311 499l9 24h831l-9 -24h-831zM318 566l-16 19h873l-7 -19h-850zM951 0h-831l7 19h831z
M1199 646l-6 -14h-929l-11 14h946zM743 167l16 41h272l-16 -41h-272zM286 433l11 27h270l-10 -27h-271z" />
    <glyph glyph-name="FL0054h" unicode="T" horiz-adv-x="948" 
d="M366 499l-19 24h762l-9 -24h-734zM314 566l-14 19h833l-7 -19h-812zM385 34l18 48h271l-18 -48h-271zM1157 646l-6 -14h-887l-11 14h904zM410 100l17 45h271l-17 -45h-271zM436 167l15 41h271l-15 -41h-271zM461 233l14 38h271l-14 -38h-271zM486 300l13 34h271l-13 -34
h-271zM512 366l12 31h271l-12 -31h-271zM538 433l10 27h271l-10 -27h-271zM643 0h-271l7 19h271z" />
    <glyph glyph-name="FL0055h" unicode="U" 
d="M133 34l18 48h833l-19 -48h-832zM158 100l17 45h833l-17 -45h-833zM952 0h-832l7 19h832zM744 167l16 41h272l-16 -41h-272zM184 167l15 41h271l-16 -41h-270zM770 233l14 38h272l-15 -38h-271zM209 233l14 38h271l-14 -38h-271zM795 300l13 34h272l-13 -34h-272z
M234 300l13 34h271l-13 -34h-271zM821 366l12 31h271l-12 -31h-271zM260 366l12 31h271l-12 -31h-271zM847 433l10 27h272l-11 -27h-271zM286 433l10 27h271l-10 -27h-271zM872 499l9 24h272l-9 -24h-272zM311 499l9 24h271l-9 -24h-271zM318 566l-16 19h313l-7 -19h-290z
M639 646l-6 -14h-369l-11 14h386zM898 566l7 19h271l-7 -19h-271zM1200 646l-6 -14h-271l6 14h271z" />
    <glyph glyph-name="FL0056h" unicode="V" 
d="M280 100l-39 45h702l-73 -45h-590zM338 34l-42 48h544l-78 -48h-424zM396 -33l-45 52h386l-85 -52h-256zM1028 197l-49 -30h-372l66 41h359zM222 167l-26 30l4 11h358l35 -41h-371zM713 233l60 38h283l-15 -38h-328zM209 233l15 38h281l32 -38h-328zM795 300l13 34h272
l-13 -34h-272zM235 300l13 34h270l-13 -34h-270zM454 -99l-48 55h228l-90 -55h-90zM821 366l12 31h271l-12 -31h-271zM260 366l12 31h271l-12 -31h-271zM847 433l10 27h272l-11 -27h-271zM286 433l11 27h270l-10 -27h-271zM872 499l9 24h272l-9 -24h-272zM311 499l9 24h271
l-9 -24h-271zM318 566l-16 19h313l-7 -19h-290zM639 646l-6 -14h-369l-11 14h386zM898 566l7 19h271l-7 -19h-271zM1200 646l-6 -14h-271l6 14h271zM486 -135l-25 28h70z" />
    <glyph glyph-name="FL0057h" unicode="W" horiz-adv-x="1329" 
d="M133 34l18 48h1171l-19 -48h-1170zM158 100l17 45h1171l-17 -45h-1171zM120 0l7 19h1170l-7 -19h-1170zM1082 167l16 41h272l-16 -41h-272zM632 167l16 41h271l-16 -41h-271zM184 167l15 41h271l-16 -41h-270zM1108 233l14 38h272l-15 -38h-271zM209 233l14 38h271
l-14 -38h-271zM658 233l14 38h271l-14 -38h-271zM1133 300l13 34h272l-13 -34h-272zM234 300l13 34h271l-13 -34h-271zM683 300l13 34h271l-13 -34h-271zM1159 366l12 31h271l-12 -31h-271zM260 366l12 31h271l-12 -31h-271zM709 366l12 31h271l-12 -31h-271zM1185 433
l10 27h272l-11 -27h-271zM286 433l10 27h271l-10 -27h-271zM735 433l10 27h271l-10 -27h-271zM1210 499l9 24h272l-9 -24h-272zM311 499l9 24h271l-9 -24h-271zM760 499l9 24h271l-9 -24h-271zM318 566l-16 19h313l-7 -19h-290zM639 646l-6 -14h-369l-11 14h386zM1236 566
l7 19h271l-7 -19h-271zM786 566l7 19h271l-7 -19h-271zM1538 646l-6 -14h-271l6 14h271zM1088 646l-6 -14h-271l6 14h271z" />
    <glyph glyph-name="FL0058h" unicode="X" 
d="M630 244l-18 -11h-372l63 38h672l34 -38h-370zM352 366l-27 31h729l-51 -31h-651zM389 323l-10 11h571l-20 -12l19 -22h-598zM183 167l15 40l1 1h373l-66 -41h-323zM694 167l-34 41h370l-15 -41h-321zM132 34l18 48h272l-19 -48h-271zM692 34l19 48h271l-18 -48h-272z
M438 124l-9 -24h-272l17 45h297zM728 126l-16 19h294l-17 -45h-271zM1120 437l-7 -4h-374l44 27h346zM294 433l-5 6l8 21h345l22 -27h-370zM311 499l9 24h271v-1l19 -23h-299zM847 499l34 21l1 3h271l-9 -24h-297zM318 566l-16 19h313l-7 -19h-290zM639 646l-6 -14h-369
l-11 14h386zM951 0h-271l7 19h271zM898 566l7 19h271l-7 -19h-271zM390 0h-271l7 19h271zM1200 646l-6 -14h-271l6 14h271z" />
    <glyph glyph-name="FL0059h" unicode="Y" 
d="M350 366l-27 31h731l-51 -31h-653zM408 300l-30 34h572l-56 -34h-486zM467 233l-33 38h412l-63 -38h-316zM413 34l19 48h271l-19 -48h-271zM439 100l17 45h271l-17 -45h-271zM464 167l16 41h271l-16 -41h-271zM1120 437l-7 -4h-374l43 27h347zM291 433l-3 4l9 23h346
l22 -27h-374zM844 499l37 23v1h272l-9 -24h-300zM311 499l9 24h271v-1l19 -23h-299zM318 566l-16 19h313l-7 -19h-290zM639 646l-6 -14h-369l-11 14h386zM898 566l7 19h271l-7 -19h-271zM671 0h-271l7 19h271zM1200 646l-6 -14h-271l6 14h271z" />
    <glyph glyph-name="FL005Ah" unicode="Z" horiz-adv-x="990" 
d="M132 34l19 48h830l-19 -48h-830zM158 100l17 45h830l-17 -45h-830zM372 499l-20 24h798l-9 -24h-769zM318 566l-16 19h872l-7 -19h-849zM950 0h-831l7 19h831zM192 167l73 41h376l-74 -41h-375zM310 233l68 38h375l-68 -38h-375zM1198 646l-6 -14h-928l-11 14h945z
M430 300l61 34h375l-61 -34h-375zM549 366l55 31h374l-55 -31h-374zM669 433l48 27h374l-48 -27h-374z" />
    <glyph glyph-name="FL005Bh" unicode="[" horiz-adv-x="545" 
d="M27 -33l20 52h466l-20 -52h-466zM471 -91h-466l18 47h466zM532 69l-14 -35h-465l18 48h271l-5 -13h195zM78 100l18 45h270l-17 -45h-271zM104 167l16 41h271l-16 -41h-271zM129 233l15 38h271l-15 -38h-271zM155 300l13 34h271l-13 -34h-271zM180 366l12 31h271l-12 -31
h-271zM531 573l-3 -7h-271l8 19h465l-4 -12h-195zM283 632l6 16h465l-6 -16h-465zM206 433l11 27h271l-11 -27h-271zM232 499l9 24h271l-9 -24h-271zM308 699l5 12h466l-5 -12h-466z" />
    <glyph glyph-name="FL005Ch" unicode="\" horiz-adv-x="911" 
d="M584 34l-23 48h271l23 -48h-271zM552 100l-21 45h271l21 -45h-271zM520 167l-20 41h271l20 -41h-271zM488 233l-18 38h271l18 -38h-271zM456 300l-17 34h271l17 -34h-271zM424 366l-15 31h271l15 -31h-271zM391 433l-13 27h271l13 -27h-271zM359 499l-11 24h271l11 -24
h-271zM327 566l-9 19h271l9 -19h-271zM863 19l9 -19h-271l-9 19h271zM559 646l7 -14h-271l-7 14h271z" />
    <glyph glyph-name="FL005Dh" unicode="]" horiz-adv-x="545" 
d="M27 -33l20 52h466l-20 -52h-466zM471 -91h-466l18 47h466zM52 34l14 35h195l5 13h271l-18 -48h-467zM273 100l17 45h272l-18 -45h-271zM299 167l16 41h271l-16 -41h-271zM324 233l15 38h271l-15 -38h-271zM350 300l13 34h271l-13 -34h-271zM375 366l12 31h271l-12 -31
h-271zM455 573h-195l4 12h467l-8 -19h-271zM282 632l6 16h467l-6 -16h-467zM401 433l11 27h271l-11 -27h-271zM427 499l9 24h271l-9 -24h-271zM308 699l5 12h466l-5 -12h-466z" />
    <glyph glyph-name="FL005Eh" unicode="^" horiz-adv-x="491" 
d="M665 523l14 -23l-2 -1h-445v1l32 23h401zM323 566l27 19h277l11 -19h-315zM273 433l-17 27h146l-37 -27h-92zM495 433l-17 27h146l-38 -27h-91zM415 632l22 16h151l10 -16h-183zM507 699l17 12h26l7 -12h-50zM523 387l-6 10h20zM302 387l-6 10h20z" />
    <glyph glyph-name="FL005Fh" unicode="_" horiz-adv-x="598" 
d="M52 34l19 48h519l-19 -48h-519zM78 100l17 45h519l-17 -45h-519zM559 0h-519l7 19h519z" />
    <glyph glyph-name="FL0060h" unicode="`" horiz-adv-x="382" 
d="M347 632l-5 16h216l5 -16h-216zM326 699l-4 12h218l3 -12h-217z" />
    <glyph glyph-name="FL0061h" unicode="a" horiz-adv-x="990" 
d="M209 233l14 38h833l-15 -38h-832zM234 300l13 34h833l-13 -34h-833zM470 207l-15 -40h-271l15 41h833l-16 -41h-271l15 40h-290zM311 499l9 24h833l-9 -24h-833zM532 367h290l11 30h271l-12 -31h-832l12 31h271zM318 566l-16 19h874l-7 -19h-851zM1200 646l-6 -14h-930
l-11 14h947zM694 34l18 48h272l-19 -48h-271zM133 34l18 48h271l-18 -48h-271zM719 100l17 45h272l-17 -45h-272zM158 100l17 45h271l-17 -45h-271zM847 433l10 27h272l-11 -27h-271zM286 433l10 27h271l-10 -27h-271zM952 0h-271l7 19h271zM391 0h-271l7 19h271z" />
    <glyph glyph-name="FL006Fh" unicode="b" 
d="M133 34l18 48h832l-19 -48h-831zM158 100l17 45h832l-17 -45h-832zM484 243l-4 -10h-271l14 38h832l-15 -38h-271l4 10h-289zM1075 322l-9 -22h-832l13 34h703l-20 -12h145zM260 366l12 31h782l-51 -31h-743zM311 499l9 24h833l-9 -24h-833zM318 566l-16 19h874l-7 -19
h-851zM120 0l7 19h831l-7 -19h-831zM1200 646l-6 -14h-930l-11 14h947zM743 167l16 41h272l-16 -41h-272zM184 167l15 41h271l-16 -41h-270zM1120 437l-7 -4h-375l45 27h346zM286 433l10 27h271l-10 -27h-271z" />
    <glyph glyph-name="FL0063h" unicode="c" horiz-adv-x="948" 
d="M133 34l18 48h789l-19 -48h-788zM158 100l17 45h789l-17 -45h-789zM311 499l9 24h789l-9 -24h-789zM318 566l-16 19h831l-7 -19h-808zM909 0h-789l7 19h789zM1157 646l-6 -14h-887l-11 14h904zM184 167l15 41h271l-16 -41h-270zM209 233l14 38h271l-14 -38h-271zM234 300
l13 34h271l-13 -34h-271zM260 366l12 31h271l-12 -31h-271zM286 433l10 27h271l-10 -27h-271z" />
    <glyph glyph-name="FL0064h" unicode="d" 
d="M158 100l17 45h769l-75 -45h-711zM133 34l18 48h688l-80 -48h-626zM311 499l9 24h833l-9 -24h-833zM318 566l-16 19h874l-7 -19h-851zM1027 195l-47 -28h-371l65 41h358zM1200 646l-6 -14h-930l-11 14h947zM713 233l60 38h283l-15 -38h-328zM120 0l7 19h607l-31 -19h-583
zM184 167l15 41h271l-16 -41h-270zM209 233l14 38h271l-14 -38h-271zM795 300l13 34h272l-13 -34h-272zM234 300l13 34h271l-13 -34h-271zM821 366l12 31h271l-12 -31h-271zM260 366l12 31h271l-12 -31h-271zM847 433l10 27h272l-11 -27h-271zM286 433l10 27h271l-10 -27
h-271z" />
    <glyph glyph-name="FL0065h" unicode="e" horiz-adv-x="948" 
d="M133 34l18 48h789l-19 -48h-788zM158 100l17 45h789l-17 -45h-789zM234 300l13 34h790l-13 -34h-790zM484 243l-4 -10h-271l14 38h790l-11 -28h-518zM260 366l12 31h789l-12 -31h-789zM311 499l9 24h789l-9 -24h-789zM318 566l-16 19h831l-7 -19h-808zM909 0h-789l7 19
h789zM1157 646l-6 -14h-887l-11 14h904zM184 167l15 41h271l-16 -41h-270zM286 433l10 27h271l-10 -27h-271z" />
    <glyph glyph-name="FL0066h" unicode="f" horiz-adv-x="948" 
d="M234 300l13 34h790l-13 -34h-790zM484 243l-4 -10h-271l14 38h790l-11 -28h-518zM260 366l12 31h789l-12 -31h-789zM311 499l9 24h789l-9 -24h-789zM318 566l-16 19h831l-7 -19h-808zM133 34l18 48h271l-18 -48h-271zM1157 646l-6 -14h-887l-11 14h904zM158 100l17 45
h271l-17 -45h-271zM184 167l15 41h271l-15 -41h-271zM286 433l10 27h271l-10 -27h-271zM391 0h-271l7 19h271z" />
    <glyph glyph-name="FL0067h" unicode="g" horiz-adv-x="990" 
d="M133 34l18 48h832l-19 -48h-831zM158 100l17 45h832l-17 -45h-832zM311 499l9 24h831l-9 -24h-831zM318 566l-16 19h873l-7 -19h-850zM951 0h-831l7 19h831zM773 243h-136l11 28h407l-15 -38h-271zM659 300l13 34h407l-13 -34h-407zM1199 646l-6 -14h-929l-11 14h946z
M684 366l12 31h407l-12 -31h-407zM743 167l16 41h272l-16 -41h-272zM184 167l15 41h271l-16 -41h-270zM209 233l14 38h271l-14 -38h-271zM234 300l13 34h271l-13 -34h-271zM260 366l12 31h271l-12 -31h-271zM286 433l10 27h271l-10 -27h-271z" />
    <glyph glyph-name="FL0068h" unicode="h" 
d="M484 243l-4 -10h-271l14 38h833l-15 -38h-271l4 10h-290zM234 300l13 34h833l-13 -34h-833zM260 366l12 31h832l-12 -31h-832zM694 34l18 48h272l-19 -48h-271zM133 34l18 48h271l-18 -48h-271zM719 100l17 45h272l-17 -45h-272zM158 100l17 45h271l-17 -45h-271z
M745 167l15 41h272l-16 -41h-271zM184 167l15 41h271l-15 -41h-271zM286 433l10 27h272l-11 -27h-271zM847 433l11 27h271l-11 -27h-271zM311 499l9 24h272l-9 -24h-272zM873 499l9 24h271l-9 -24h-271zM318 566l-16 19h313l-7 -19h-290zM639 646l-6 -14h-369l-11 14h386z
M952 0h-271l7 19h271zM391 0h-271l7 19h271zM898 566l7 19h271l-7 -19h-271zM1200 646l-6 -14h-271l6 14h271z" />
    <glyph glyph-name="FL0069h" unicode="i" horiz-adv-x="430" 
d="M133 34l18 48h272l-19 -48h-271zM158 100l17 45h272l-17 -45h-272zM184 167l15 41h272l-16 -41h-271zM209 233l14 38h272l-15 -38h-271zM234 300l13 34h272l-13 -34h-272zM260 366l12 31h271l-12 -31h-271zM286 433l10 27h272l-11 -27h-271zM311 499l9 24h272l-9 -24
h-272zM318 566l-16 19h313l-7 -19h-290zM639 646l-6 -14h-369l-11 14h386zM391 0h-271l7 19h271z" />
    <glyph glyph-name="FL006Ah" unicode="j" 
d="M133 34l19 48h832l-19 -48h-832zM159 100l17 45h832l-17 -45h-832zM952 0h-832l7 19h832zM190 366l-25 31h378l-12 -31h-341zM744 167l16 41h272l-16 -41h-272zM184 167l16 41h270l-16 -41h-270zM770 233l14 38h272l-15 -38h-271zM209 233l15 38h271l-15 -38h-271z
M238 307l-22 27h303l-13 -34h-271zM795 300l13 34h272l-13 -34h-272zM821 366l12 31h271l-12 -31h-271zM847 433l10 27h272l-11 -27h-271zM872 499l9 24h272l-9 -24h-272zM898 566l7 19h271l-7 -19h-271zM1200 646l-6 -14h-271l6 14h271z" />
    <glyph glyph-name="FL006Bh" unicode="k" 
d="M484 243l-4 -10h-271l14 38h752l34 -38h-374l-8 10h-143zM234 300l13 34h703l-20 -12l19 -22h-715zM260 366l12 31h782l-51 -31h-743zM692 167l-35 41h373l-15 -41h-323zM692 34l19 48h271l-18 -48h-272zM133 34l18 48h271l-18 -48h-271zM728 126l-17 19h295l-17 -45
h-271zM158 100l17 45h271l-17 -45h-271zM184 167l15 41h271l-15 -41h-271zM1120 437l-7 -4h-376l45 27h347zM286 433l10 27h272l-11 -27h-271zM846 499l35 21l1 3h271l-9 -24h-298zM311 499l9 24h272l-9 -24h-272zM318 566l-16 19h313l-7 -19h-290zM639 646l-6 -14h-369
l-11 14h386zM951 0h-271l7 19h271zM391 0h-271l7 19h271zM898 566l7 19h271l-7 -19h-271zM1200 646l-6 -14h-271l6 14h271z" />
    <glyph glyph-name="FL006Ch" unicode="l" horiz-adv-x="913" 
d="M133 34l18 48h789l-19 -48h-788zM158 100l17 45h789l-17 -45h-789zM909 0h-789l7 19h789zM184 167l15 41h271l-16 -41h-270zM209 233l14 38h271l-14 -38h-271zM234 300l13 34h271l-13 -34h-271zM260 366l12 31h271l-12 -31h-271zM286 433l10 27h271l-10 -27h-271z
M311 499l9 24h271l-9 -24h-271zM318 566l-16 19h313l-7 -19h-290zM639 646l-6 -14h-369l-11 14h386z" />
    <glyph glyph-name="FL006Dh" unicode="m" horiz-adv-x="1329" 
d="M311 499l9 24h1171l-9 -24h-1171zM318 566l-16 19h1212l-7 -19h-1189zM1538 646l-6 -14h-1268l-11 14h1285zM133 34l18 48h272l-19 -48h-271zM1032 34l19 48h271l-19 -48h-271zM582 34l19 48h271l-19 -48h-271zM158 100l17 45h272l-17 -45h-272zM608 100l17 45h271
l-17 -45h-271zM1058 100l17 45h271l-17 -45h-271zM184 167l15 41h272l-15 -41h-272zM634 167l15 41h271l-15 -41h-271zM1084 167l15 41h271l-16 -41h-270zM209 233l14 38h272l-14 -38h-272zM659 233l14 38h271l-14 -38h-271zM1109 233l14 38h271l-15 -38h-270zM234 300
l13 34h272l-13 -34h-272zM684 300l13 34h271l-13 -34h-271zM1134 300l13 34h271l-13 -34h-271zM260 366l12 31h272l-12 -31h-272zM710 366l12 31h271l-12 -31h-271zM1160 366l12 31h270l-12 -31h-270zM286 433l10 27h272l-10 -27h-272zM736 433l10 27h271l-10 -27h-271z
M1186 433l10 27h271l-11 -27h-270zM1290 0h-271l7 19h271zM391 0h-271l7 19h271zM840 0h-271l7 19h271z" />
    <glyph glyph-name="FL006Eh" unicode="n" 
d="M234 300l13 34h833l-13 -34h-833zM543 233l-24 38h537l-15 -38h-498zM585 167l-26 41h473l-16 -41h-431zM628 100l-29 45h409l-17 -45h-363zM260 366l12 31h513l20 -31h-545zM670 34l-31 48h345l-19 -48h-295zM133 34l18 48h271l-18 -48h-271zM286 433l10 27h449l17 -27
h-476zM158 100l17 45h271l-17 -45h-271zM184 167l15 41h271l-15 -41h-271zM209 233l14 38h271l-14 -38h-271zM311 499l9 24h385l15 -24h-409zM821 366l12 31h271l-12 -31h-271zM847 433l10 27h272l-11 -27h-271zM318 566l-16 19h364l12 -19h-360zM872 499l9 24h272l-9 -24
h-272zM253 646h375l9 -14h-373zM898 566l7 19h271l-7 -19h-271zM391 0h-271l7 19h271zM692 0l-13 19h280l-7 -19h-260zM1200 646l-6 -14h-271l6 14h271z" />
    <glyph glyph-name="o" unicode="o" 
d="M133 34l18 48h833l-19 -48h-832zM158 100l17 45h833l-17 -45h-833zM311 499l9 24h833l-9 -24h-833zM318 566l-16 19h874l-7 -19h-851zM952 0h-832l7 19h832zM253 646h947l-6 -14h-930zM744 167l16 41h272l-16 -41h-272zM184 167l15 41h271l-16 -41h-270zM770 233l14 38
h272l-15 -38h-271zM209 233l14 38h271l-14 -38h-271zM795 300l13 34h272l-13 -34h-272zM234 300l13 34h271l-13 -34h-271zM821 366l12 31h271l-12 -31h-271zM260 366l12 31h271l-12 -31h-271zM847 433l10 27h272l-11 -27h-271zM286 433l10 27h271l-10 -27h-271z" />
    <glyph glyph-name="FL00B7h" unicode="p" horiz-adv-x="990" 
d="M209 233l14 38h832l-14 -38h-832zM234 300l13 34h832l-13 -34h-832zM311 499l9 24h832l-9 -24h-832zM532 367h290l11 30h271l-12 -31h-832l12 31h271zM318 566l-16 19h874l-7 -19h-851zM1200 646l-6 -14h-930l-11 14h947zM133 34l18 48h271l-18 -48h-271zM158 100l17 45
h271l-17 -45h-271zM470 207l-15 -40h-271l15 41h832v-1h-561zM286 433l10 27h271l-10 -27h-271zM847 433l10 27h271l-10 -27h-271zM391 0h-271l7 19h271z" />
    <glyph glyph-name="FL0071h" unicode="q" 
d="M133 34l18 48h833l-19 -48h-832zM158 100l17 45h833l-17 -45h-833zM120 0l7 19h832l-7 -19h-84l9 -33h-273l-10 33h-474zM472 167l118 41h442l-16 -41h-544zM311 499l9 24h833l-9 -24h-833zM318 566l-16 19h874l-7 -19h-851zM623 -99l-16 55h273l16 -55h-273zM1200 646
l-6 -14h-930l-11 14h947zM662 233l110 38h284l-15 -38h-379zM184 167l15 41h271l-16 -41h-270zM209 233l14 38h271l-14 -38h-271zM796 300l13 34h271l-13 -34h-271zM234 300l13 34h271l-13 -34h-271zM260 366l12 31h271l-12 -31h-271zM821 366l12 31h271l-12 -31h-271z
M634 -134l-8 27h272l8 -27h-272zM847 433l10 27h272l-11 -27h-271zM286 433l10 27h271l-10 -27h-271z" />
    <glyph glyph-name="FL0072h" unicode="r" horiz-adv-x="990" 
d="M209 233l14 38h833l-15 -38h-832zM234 300l13 34h833l-13 -34h-833zM538 384h290l5 13h271l-12 -31h-832l12 31h271zM311 499l9 24h833l-9 -24h-833zM318 566l-16 19h874l-7 -19h-851zM1200 646l-6 -14h-930l-11 14h947zM722 34l-14 48h273l13 -48h-272zM133 34l18 48
h271l-18 -48h-271zM702 100l-13 45h275l12 -45h-274zM158 100l17 45h271l-17 -45h-271zM682 167l-12 41h276l12 -41h-276zM184 167l15 41h272l-16 -41h-271zM847 433l10 27h272l-11 -27h-271zM286 433l10 27h271l-10 -27h-271zM732 0l-6 19h272l6 -19h-272zM391 0h-271l7 19
h271z" />
    <glyph glyph-name="FL00B9h" unicode="s" horiz-adv-x="990" 
d="M132 34l19 48h832l-19 -48h-832zM158 100l17 45h832l-17 -45h-832zM235 300l13 34h831l-13 -34h-831zM773 243h-560l11 28h831l-15 -38h-271zM260 366l12 31h831l-12 -31h-831zM311 499l9 24h831l-9 -24h-831zM318 566l-16 19h873l-7 -19h-850zM951 0h-831l7 19h831z
M1199 646l-6 -14h-929l-11 14h946zM743 167l16 41h272l-16 -41h-272zM286 433l11 27h270l-10 -27h-271z" />
    <glyph glyph-name="FL0074h" unicode="t" horiz-adv-x="911" 
d="M231 499l9 24h832l-9 -24h-832zM257 566l7 19h832l-7 -19h-832zM334 34l18 48h271l-18 -48h-271zM359 100l17 45h271l-17 -45h-271zM1120 646l-6 -14h-832l6 14h832zM385 167l15 41h271l-15 -41h-271zM410 233l14 38h271l-14 -38h-271zM435 300l13 34h271l-13 -34h-271z
M461 366l12 31h271l-12 -31h-271zM487 433l10 27h271l-10 -27h-271zM592 0h-271l7 19h271z" />
    <glyph glyph-name="FL0075h" unicode="u" 
d="M133 34l18 48h833l-19 -48h-832zM158 100l17 45h833l-17 -45h-833zM952 0h-832l7 19h832zM744 167l16 41h272l-16 -41h-272zM184 167l15 41h271l-16 -41h-270zM770 233l14 38h272l-15 -38h-271zM209 233l14 38h271l-14 -38h-271zM795 300l13 34h272l-13 -34h-272z
M234 300l13 34h271l-13 -34h-271zM821 366l12 31h271l-12 -31h-271zM260 366l12 31h271l-12 -31h-271zM847 433l10 27h272l-11 -27h-271zM286 433l10 27h271l-10 -27h-271zM872 499l9 24h272l-9 -24h-272zM311 499l9 24h271l-9 -24h-271zM318 566l-16 19h313l-7 -19h-290z
M639 646l-6 -14h-369l-11 14h386zM898 566l7 19h271l-7 -19h-271zM1200 646l-6 -14h-271l6 14h271z" />
    <glyph glyph-name="FL00BCh" unicode="v" 
d="M281 100l-39 45h700l-75 -45h-586zM339 34l-42 48h541l-79 -48h-420zM1028 197l-50 -30h-371l66 41h359zM222 167l-26 30l4 11h358l35 -41h-371zM713 233l60 38h283l-15 -38h-328zM209 233l15 38h281l32 -38h-328zM795 300l13 34h272l-13 -34h-272zM235 300l13 34h270
l-13 -34h-270zM821 366l12 31h271l-12 -31h-271zM260 366l12 31h271l-12 -31h-271zM847 433l10 27h272l-11 -27h-271zM286 433l11 27h270l-10 -27h-271zM369 0l-17 19h382l-31 -19h-334zM872 499l9 24h272l-9 -24h-272zM311 499l9 24h271l-9 -24h-271zM318 566l-16 19h313
l-7 -19h-290zM639 646l-6 -14h-369l-11 14h386zM898 566l7 19h271l-7 -19h-271zM1200 646l-6 -14h-271l6 14h271z" />
    <glyph glyph-name="FL0077h" unicode="w" horiz-adv-x="1329" 
d="M133 34l18 48h1171l-19 -48h-1170zM158 100l17 45h1171l-17 -45h-1171zM120 0l7 19h1170l-7 -19h-1170zM1082 167l16 41h272l-16 -41h-272zM632 167l16 41h271l-16 -41h-271zM184 167l15 41h271l-16 -41h-270zM1108 233l14 38h272l-15 -38h-271zM209 233l14 38h271
l-14 -38h-271zM658 233l14 38h271l-14 -38h-271zM1133 300l13 34h272l-13 -34h-272zM234 300l13 34h271l-13 -34h-271zM683 300l13 34h271l-13 -34h-271zM1159 366l12 31h271l-12 -31h-271zM260 366l12 31h271l-12 -31h-271zM709 366l12 31h271l-12 -31h-271zM1185 433
l10 27h272l-11 -27h-271zM286 433l10 27h271l-10 -27h-271zM735 433l10 27h271l-10 -27h-271zM1210 499l9 24h272l-9 -24h-272zM311 499l9 24h271l-9 -24h-271zM760 499l9 24h271l-9 -24h-271zM318 566l-16 19h313l-7 -19h-290zM639 646l-6 -14h-369l-11 14h386zM1236 566
l7 19h271l-7 -19h-271zM786 566l7 19h271l-7 -19h-271zM1538 646l-6 -14h-271l6 14h271zM1088 646l-6 -14h-271l6 14h271z" />
    <glyph glyph-name="FL0078h" unicode="x" 
d="M630 244l-18 -11h-372l63 38h672l34 -38h-370zM352 366l-27 31h729l-51 -31h-651zM389 323l-10 11h571l-20 -12l19 -22h-598zM183 167l15 40l1 1h373l-66 -41h-323zM694 167l-34 41h370l-15 -41h-321zM132 34l18 48h272l-19 -48h-271zM692 34l19 48h271l-18 -48h-272z
M438 124l-9 -24h-272l17 45h297zM728 126l-16 19h294l-17 -45h-271zM1120 437l-7 -4h-374l44 27h346zM294 433l-5 6l8 21h345l22 -27h-370zM311 499l9 24h271v-1l19 -23h-299zM847 499l34 21l1 3h271l-9 -24h-297zM318 566l-16 19h313l-7 -19h-290zM639 646l-6 -14h-369
l-11 14h386zM951 0h-271l7 19h271zM898 566l7 19h271l-7 -19h-271zM390 0h-271l7 19h271zM1200 646l-6 -14h-271l6 14h271z" />
    <glyph glyph-name="FL0079h" unicode="y" 
d="M350 366l-27 31h731l-51 -31h-653zM408 300l-30 34h572l-56 -34h-486zM467 233l-33 38h412l-63 -38h-316zM413 34l19 48h271l-19 -48h-271zM439 100l17 45h271l-17 -45h-271zM464 167l16 41h271l-16 -41h-271zM1120 437l-7 -4h-374l43 27h347zM291 433l-3 4l9 23h346
l22 -27h-374zM844 499l37 23v1h272l-9 -24h-300zM311 499l9 24h271v-1l19 -23h-299zM318 566l-16 19h313l-7 -19h-290zM639 646l-6 -14h-369l-11 14h386zM898 566l7 19h271l-7 -19h-271zM671 0h-271l7 19h271zM1200 646l-6 -14h-271l6 14h271z" />
    <glyph glyph-name="FL007Ah" unicode="z" horiz-adv-x="910" 
d="M53 34l19 48h830l-19 -48h-830zM79 100l17 45h830l-17 -45h-830zM232 499l9 24h830l-9 -24h-830zM871 0h-831l7 19h831zM258 566l7 19h830l-7 -19h-830zM113 167l73 41h376l-74 -41h-375zM231 233l68 38h375l-68 -38h-375zM351 300l61 34h375l-61 -34h-375zM1119 646
l-6 -14h-830l6 14h830zM470 366l55 31h374l-55 -31h-374zM590 433l48 27h374l-48 -27h-374z" />
    <glyph glyph-name="FL007Bh" unicode="{" horiz-adv-x="706" 
d="M188 -33l20 52h466l-20 -52h-466zM632 -91h-466l18 47h466zM498 69h195l-14 -35h-465l18 48h271zM290 233l4 10h-161l11 28h432l-15 -38h-271zM155 300l13 34h432l-13 -34h-432zM180 366l12 31h432l-12 -31h-432zM239 100l17 45h271l-17 -45h-271zM265 167l15 41h272
l-16 -41h-271zM887 573h-195l-3 -7h-271l8 19h465zM444 632l6 16h465l-6 -16h-465zM367 433l11 27h271l-11 -27h-271zM393 499l9 24h271l-9 -24h-271zM469 699l5 12h466l-5 -12h-466z" />
    <glyph glyph-name="FL007Ch" unicode="|" horiz-adv-x="350" 
d="M-23 -166l22 59h271l-23 -59h-270zM2 -99l21 55h271l-21 -55h-271zM27 -33l20 52h271l-20 -52h-271zM53 34l18 48h271l-18 -48h-271zM78 100l18 45h271l-18 -45h-271zM104 167l16 41h271l-16 -41h-271zM129 233l15 38h271l-15 -38h-271zM155 300l13 34h271l-13 -34h-271z
M180 366l12 31h271l-12 -31h-271zM206 433l11 27h271l-11 -27h-271zM232 499l9 24h271l-9 -24h-271zM257 566l8 19h271l-8 -19h-271zM283 632l6 16h271l-6 -16h-271zM308 699l5 12h271l-5 -12h-271zM333 765l4 9h271l-4 -9h-271zM246 -170h-271l1 1h270v-1z" />
    <glyph glyph-name="FL007Dh" unicode="}" horiz-adv-x="671" 
d="M27 -33l20 52h466l-20 -52h-466zM471 -91h-466l18 47h466zM66 69h195l5 13h271l-18 -48h-467zM599 243l-4 -10h-271l15 38h432l-11 -28h-161zM350 300l13 34h432l-13 -34h-432zM375 366l12 31h432l-12 -31h-432zM273 100l17 45h271l-17 -45h-271zM299 167l16 41h270
l-15 -41h-271zM455 573h-195l4 12h467l-8 -19h-271zM282 632l6 16h467l-6 -16h-467zM401 433l11 27h271l-11 -27h-271zM427 499l9 24h271l-9 -24h-271zM308 699l5 12h466l-5 -12h-466z" />
    <glyph glyph-name="FL007Eh" unicode="~" horiz-adv-x="541" 
d="M224 366l22 31h224l-1 -31h-245zM574 241h-219v30h241zM471 300l26 34h145l-25 -34h-146zM176 300l25 34h144l-25 -34h-144zM521 366l23 31h143l-22 -31h-144zM277 241h-144l22 30h144zM356 300v34h112v-34h-112z" />
    <glyph glyph-name="FL007Fh" horiz-adv-x="249" 
 />
    <glyph glyph-name="FL20ACh" horiz-adv-x="988" 
d="M133 34l19 48h828l-19 -48h-828zM159 100l17 45h828l-17 -45h-828zM129 233l15 38h651l-15 -38h-651zM180 366l12 31h651l-12 -31h-651zM311 499l9 24h829l-9 -24h-829zM318 566l-16 19h871l-7 -19h-848zM949 0h-829l7 19h829zM253 646h944l-6 -14h-927zM509 307h300
l-3 -7h-651l3 7h80l10 27h271zM471 208l-16 -41h-271l16 41h271zM209 439h80l8 21h271l-8 -21h300l-3 -6h-651z" />
    <glyph glyph-name="FL20ACh" unicode="&#x20ac;" horiz-adv-x="988" 
d="M133 34l19 48h828l-19 -48h-828zM159 100l17 45h828l-17 -45h-828zM129 233l15 38h651l-15 -38h-651zM180 366l12 31h651l-12 -31h-651zM311 499l9 24h829l-9 -24h-829zM318 566l-16 19h871l-7 -19h-848zM949 0h-829l7 19h829zM253 646h944l-6 -14h-927zM509 307h300
l-3 -7h-651l3 7h80l10 27h271zM471 208l-16 -41h-271l16 41h271zM209 439h80l8 21h271l-8 -21h300l-3 -6h-651z" />
    <glyph glyph-name="FL017Dh" horiz-adv-x="990" 
d="M132 34l19 48h830l-19 -48h-830zM158 100l17 45h830l-17 -45h-830zM372 499l-20 24h798l-9 -24h-769zM318 566l-16 19h872l-7 -19h-849zM950 0h-831l7 19h831zM192 167l73 41h376l-74 -41h-375zM310 233l68 38h375l-68 -38h-375zM253 646h945l-6 -14h-928zM430 300l61 34
h375l-61 -34h-375zM549 366l55 31h374l-55 -31h-374zM669 433l48 27h374l-48 -27h-374zM990 700h-376l-4 11h391zM842 765l10 9h216l-9 -9h-217zM593 765l-3 9h215l3 -9h-215z" />
    <glyph glyph-name="FL017Dh" unicode="&#x17d;" horiz-adv-x="990" 
d="M132 34l19 48h830l-19 -48h-830zM158 100l17 45h830l-17 -45h-830zM372 499l-20 24h798l-9 -24h-769zM318 566l-16 19h872l-7 -19h-849zM950 0h-831l7 19h831zM192 167l73 41h376l-74 -41h-375zM310 233l68 38h375l-68 -38h-375zM253 646h945l-6 -14h-928zM430 300l61 34
h375l-61 -34h-375zM549 366l55 31h374l-55 -31h-374zM669 433l48 27h374l-48 -27h-374zM990 700h-376l-4 11h391zM842 765l10 9h216l-9 -9h-217zM593 765l-3 9h215l3 -9h-215z" />
    <glyph glyph-name="FL017Eh" horiz-adv-x="910" 
d="M53 34l19 48h830l-19 -48h-830zM79 100l17 45h830l-17 -45h-830zM232 499l9 24h830l-9 -24h-830zM871 0h-831l7 19h831zM258 566l7 19h830l-7 -19h-830zM113 167l73 41h376l-74 -41h-375zM231 233l68 38h375l-68 -38h-375zM351 300l61 34h375l-61 -34h-375zM289 646h830
l-6 -14h-830zM470 366l55 31h374l-55 -31h-374zM590 433l48 27h374l-48 -27h-374zM917 700h-376l-4 11h391zM769 765l10 9h216l-9 -9h-217zM520 765l-3 9h215l3 -9h-215z" />
    <glyph glyph-name="FL017Eh" unicode="&#x17e;" horiz-adv-x="910" 
d="M53 34l19 48h830l-19 -48h-830zM79 100l17 45h830l-17 -45h-830zM232 499l9 24h830l-9 -24h-830zM871 0h-831l7 19h831zM258 566l7 19h830l-7 -19h-830zM113 167l73 41h376l-74 -41h-375zM231 233l68 38h375l-68 -38h-375zM351 300l61 34h375l-61 -34h-375zM289 646h830
l-6 -14h-830zM470 366l55 31h374l-55 -31h-374zM590 433l48 27h374l-48 -27h-374zM917 700h-376l-4 11h391zM769 765l10 9h216l-9 -9h-217zM520 765l-3 9h215l3 -9h-215z" />
    <glyph glyph-name="FL00A1h" unicode="&#xa1;" horiz-adv-x="431" 
d="M132 34l19 48h273l-19 -48h-273zM158 100l17 45h273l-17 -45h-273zM183 167l16 41h273l-16 -41h-273zM208 233l15 38h273l-15 -38h-273zM234 300l13 34h273l-13 -34h-273zM259 366l12 31h273l-12 -31h-273zM312 499l9 24h271l-9 -24h-271zM318 566l-16 19h313l-7 -19
h-290zM639 646l-6 -14h-369l-11 14h386zM119 0l7 19h273l-7 -19h-273z" />
    <glyph glyph-name="FL00A2h" unicode="&#xa2;" horiz-adv-x="948" 
d="M133 34l18 48h789l-19 -48h-788zM158 100l17 45h789l-17 -45h-789zM909 0h-178l-13 -33h-258l13 33h-353l7 19h789zM311 499l9 24h789l-9 -24h-789zM318 566l-16 19h831l-7 -19h-808zM409 -166l23 59h258l-23 -59h-258zM435 -99l21 55h258l-21 -55h-258zM979 646h178
l-6 -14h-887l-11 14h468l1 2h258zM184 167l15 41h271l-16 -41h-270zM536 167l16 41h258l-16 -41h-258zM209 233l14 38h271l-14 -38h-271zM562 233l14 38h258l-14 -38h-258zM234 300l13 34h271l-13 -34h-271zM587 300l13 34h258l-13 -34h-258zM260 366l12 31h271l-12 -31
h-271zM613 366l12 31h258l-12 -31h-258zM286 433l10 27h271l-10 -27h-271zM639 433l10 27h258l-10 -27h-258zM741 699l5 12h258l-5 -12h-258zM766 765l4 9h258l-4 -9h-258zM666 -170h-258v1h258v-1z" />
    <glyph glyph-name="FL00A3h" unicode="&#xa3;" horiz-adv-x="885" 
d="M52 34l19 48h841l-19 -48h-841zM78 100l17 45h841l-17 -45h-841zM155 300l13 34h691l-13 -34h-691zM824 243h-305l-4 -10h-271l4 10h-115l11 28h691zM180 366l12 31h691l-12 -31h-691zM881 0h-841l7 19h841zM218 167l16 41h271l-16 -41h-271zM346 499l9 24h451l-9 -24
h-451zM353 566l-16 19h493l-7 -19h-470zM288 646h566l-6 -14h-549zM321 433l11 27h270l-10 -27h-271z" />
    <glyph glyph-name="FL00A4h" unicode="&#xa4;" 
d="M183 167l15 40l1 1h831l-15 -41h-832zM240 233l63 38h672l34 -38h-769zM1120 437l-7 -4h-819l-5 6l8 21h832zM636 367l-1 -1h-283l-27 31h729l-51 -31h-295l1 1h-73zM132 34l18 48h272l-19 -48h-271zM692 34l19 48h271l-18 -48h-272zM438 124l-9 -24h-272l17 45h297z
M718 100l10 26l-16 19h294l-17 -45h-271zM683 300l13 34h254l-20 -12l19 -22h-266zM351 300l38 23l-10 11h244l-13 -34h-259zM311 499l9 24h271v-1l19 -23h-299zM846 499l35 21l1 3h271l-9 -24h-298zM318 566l-16 19h313l-7 -19h-290zM253 646h386l-6 -14h-369zM951 0h-271
l7 19h271zM898 566l7 19h271l-7 -19h-271zM390 0h-271l7 19h271zM923 632l6 14h271l-6 -14h-271z" />
    <glyph glyph-name="FL00A5h" unicode="&#xa5;" 
d="M247 100l17 45h655l-17 -45h-655zM298 233l15 38h655l-15 -38h-655zM350 366l-27 31h731l-51 -31h-653zM329 312h68l-19 22h572l-36 -22h70l-5 -12h-655zM741 183h193l-6 -16h-655l6 16h191l9 25h271zM413 34l18 48h271l-18 -48h-271zM1120 437l-7 -4h-374l43 27h347z
M288 437l9 23h346l22 -27h-374zM844 499l37 23v1h272l-9 -24h-300zM311 499l9 24h271v-1l19 -23h-299zM318 566l-16 19h313l-7 -19h-290zM253 646h386l-6 -14h-369zM898 566l7 19h271l-7 -19h-271zM671 0h-271l7 19h271zM923 632l6 14h271l-6 -14h-271z" />
    <glyph glyph-name="FL00A6h" unicode="&#xa6;" horiz-adv-x="431" 
d="M132 34l18 48h273l-18 -48h-273zM157 100l17 45h273l-17 -45h-273zM183 167l15 41h273l-15 -41h-273zM208 233l14 38h273l-14 -38h-273zM532 368h-271l11 29h271zM286 433l10 27h271l-10 -27h-271zM311 499l9 24h271l-9 -24h-271zM318 566l-16 19h313l-7 -19h-290z
M639 646l-6 -14h-369l-11 14h386zM119 0l7 19h273l-7 -19h-273z" />
    <glyph glyph-name="FL00A7h" unicode="&#xa7;" horiz-adv-x="912" 
d="M104 167l15 40l1 1h687l-16 -41h-687zM161 233l63 38h607l-15 -38h-655zM557 367l-1 -1h-230l12 31h637l-51 -31h-295l1 1h-73zM1041 437l-7 -4h-682l10 27h688zM53 34l18 48h272l-19 -48h-271zM359 124l-9 -24h-272l17 45h297zM851 322l-9 -22h-238l13 34h254zM272 300
l38 23l4 11h230l-13 -34h-259zM767 499l35 21l1 3h271l-9 -24h-298zM311 0h-271l7 19h271zM819 566l7 19h271l-7 -19h-271zM844 632l6 14h271l-6 -14h-271z" />
    <glyph glyph-name="FL00A8h" unicode="&#xa8;" horiz-adv-x="626" 
d="M282 632l6 16h215l-6 -16h-215zM614 632l6 16h215l-6 -16h-215zM640 699l5 12h215l-5 -12h-215zM308 699l5 12h215l-5 -12h-215z" />
    <glyph glyph-name="FL00A9h" unicode="&#xa9;" horiz-adv-x="306" 
d="M423 523q-2 -2 -4.5 -2.5t-4.5 -2.5l-9 -5q-35 -13 -50 -14h-26q-21 3 -35 14q-8 8 -9 10h58l10.5 -3l3.5 -1l-0.5 -0.5t-2.5 -0.5q3 0 9 1.5t16 3.5h44zM425 705q-20 0 -39 -6h-34q4 2 8.5 5t9.5 5q1 1 4 1q4 0 6 1h96q2 -2 3 -2l10 -10h-35q-11 6 -25 6h-4zM322 566
q-1 4 -1.5 9t0.5 10h22q0 -16 16 -19h-37zM431 585q-7 -12 -16 -19h-34q17 3 30 19h20zM266 566v9q0 7 1 10h20q-1 -5 -0.5 -10t1.5 -9h-22zM487 585q-5 -9 -15 -19h-20q5 5 9 9.5t7 9.5h19zM339 632q2 5 5 8.5t6 7.5h24q-10 -8 -15 -16h-20zM284 632q2 4 5 8t5 8h21
q-3 -4 -6 -7.5t-5 -8.5h-20zM507 648q0 -13 -1 -16h-18v16h19zM449 648v-9l-18 -4q-1 4 -2 7.5t-2 5.5h22z" />
    <glyph glyph-name="FL00AAh" unicode="&#xaa;" horiz-adv-x="913" 
d="M53 34l19 48h834l-19 -48h-834zM79 100l17 45h834l-17 -45h-834zM404 243l-4 -10h-271l15 38h834l-15 -38h-272l4 10h-291zM155 300l13 34h834l-13 -34h-834zM180 366l12 31h834l-12 -31h-834zM231 499l9 24h835l-9 -24h-835zM257 566l7 19h834l-7 -19h-834zM874 0h-834
l7 19h834zM282 632l6 14h834l-6 -14h-834zM665 167l16 41h273l-16 -41h-273zM104 167l16 41h270l-16 -41h-270zM768 433l10 27h273l-11 -27h-272z" />
    <glyph glyph-name="FL00ABh" unicode="&#xab;" horiz-adv-x="665" 
d="M504 233l-24 38h226l23 -38h-225zM219 233l-24 38h226l23 -38h-225zM449 323l15 11h226l-15 -11l14 -23h-226zM178 300l-14 23l15 11h226l-15 -11l14 -23h-226zM544 167l-25 41h217l-56 -41h-136zM259 167l-25 41h217l-56 -41h-136zM508 366l43 31h226l-43 -31h-226z
M223 366l43 31h226l-43 -31h-226zM601 433l37 27h170l17 -27h-224zM316 433l37 27h170l17 -27h-224zM300 100l-27 45h91l-62 -45h-2zM585 100l-27 45h91l-62 -45h-2zM407 499l33 24h44l15 -24h-92zM692 499l33 24h44l15 -24h-92z" />
    <glyph glyph-name="FL00ACh" unicode="&#xac;" horiz-adv-x="515" 
d="M155 300l13 34h471l-13 -34h-471zM440 233l4 10h-311l11 28h471l-15 -38h-160zM180 366l12 31h471l-12 -31h-471zM389 100l17 45h160l-17 -45h-160zM415 167l15 41h161l-16 -41h-160z" />
    <glyph glyph-name="FL00ADh" unicode="&#xad;" horiz-adv-x="433" 
d="M155 300l13 34h389l-13 -34h-389zM180 366l12 31h389l-12 -31h-389zM522 243h-389l11 28h389z" />
    <glyph glyph-name="registered" unicode="&#xae;" horiz-adv-x="306" 
d="M426 523q-9 -7 -21 -11q-14 -6 -24.5 -8.5t-18.5 -4.5h-40q-18 3 -28 13q-8 5 -12 11h44q14 -4 20 -5l6 -1q5 1 9.5 1.5t8.5 0.5q5 0 10 0.5t12 3.5h34zM424 703q-16 0 -31 -4h-40q7 4 16 8l4 2l4 2h96q2 -1 2.5 -2t2.5 -2q3 -2 5.5 -4t4.5 -4h-38q-9 4 -22 4h-4z
M265 566q-1 5 -0.5 9.5t1.5 9.5h24q-1 -5 -1.5 -9.5t-0.5 -9.5h-23zM404 585q1 -6 5 -14l1 -5h-20v1q-2 6 -3.5 10t-3.5 8h21zM487 585q-5 -9 -15 -19h-20q11 13 15 19h20zM322 566l7 19h20l-8 -19h-19zM442 648q1 -4 0.5 -7t-0.5 -5l-1.5 -3l-0.5 -1h-21q1 0 1 2q3 8 -1 14
h23zM284 632q5 7 12 16h21q-3 -5 -6 -8.5t-6 -7.5h-21zM507 648q0 -13 -1 -16h-19q0 4 0.5 8t-0.5 8h20zM347 632l6 16h19l-6 -16h-19z" />
    <glyph glyph-name="FL00AEh" unicode="&#xaf;" horiz-adv-x="597" 
d="M231 499l9 24h518l-9 -24h-518zM257 566l7 19h518l-7 -19h-518zM806 646l-6 -14h-518l6 14h518z" />
    <glyph glyph-name="FL00B0h" unicode="&#xb0;" horiz-adv-x="294" 
d="M363 645h66l1 3h73l-6 -16h-215l6 16h76zM308 699l5 12h215l-5 -12h-215z" />
    <glyph glyph-name="FL00B1h" unicode="&#xb1;" horiz-adv-x="516" 
d="M53 34l19 48h471l-19 -48h-471zM79 100l17 45h471l-17 -45h-471zM180 366l12 31h471l-12 -31h-471zM206 433l11 27h471l-11 -27h-471zM512 0h-471l7 19h471zM284 233l15 38h160l-15 -38h-160zM310 300l13 34h160l-13 -34h-160zM387 499l9 24h160l-9 -24h-160zM412 566
l7 19h160l-7 -19h-160zM429 192h-160l6 16h160zM603 646l-6 -14h-160l6 14h160z" />
    <glyph glyph-name="FL00B2h" unicode="&#xb2;" horiz-adv-x="868" 
d="M53 34l19 48h788l-19 -48h-788zM79 100l17 45h788l-17 -45h-788zM829 0h-789l7 19h789zM104 167l16 41h270l-16 -41h-270zM129 233l15 38h270l-14 -38h-271zM155 300l13 34h270l-13 -34h-270zM180 366l12 31h271l-12 -31h-271zM206 433l11 27h270l-10 -27h-271zM232 499
l9 24h270l-9 -24h-270zM257 566l7 19h271l-7 -19h-271zM559 646l-6 -14h-271l6 14h271z" />
    <glyph glyph-name="FL00B3h" unicode="&#xb3;" horiz-adv-x="911" 
d="M201 100l-39 45h700l-75 -45h-586zM259 34l-42 48h541l-79 -48h-420zM948 197l-50 -30h-371l66 41h359zM142 167l-26 30l4 11h358l35 -41h-371zM633 233l60 38h283l-15 -38h-328zM129 233l15 38h281l32 -38h-328zM715 300l13 34h272l-13 -34h-272zM155 300l13 34h270
l-13 -34h-270zM741 366l12 31h271l-12 -31h-271zM180 366l12 31h271l-12 -31h-271zM767 433l10 27h272l-11 -27h-271zM206 433l11 27h270l-10 -27h-271zM289 0l-17 19h382l-31 -19h-334zM792 499l9 24h272l-9 -24h-272zM232 499l9 24h270l-9 -24h-270zM818 566l7 19h271
l-7 -19h-271zM257 566l7 19h271l-7 -19h-271zM559 646l-6 -14h-271l6 14h271zM1120 646l-6 -14h-271l6 14h271z" />
    <glyph glyph-name="FL00B4h" unicode="&#xb4;" horiz-adv-x="382" 
d="M303 632l17 16h216l-17 -16h-216zM375 699l13 12h217l-13 -12h-217z" />
    <glyph glyph-name="FL00B5h" unicode="&#xb5;" horiz-adv-x="911" 
d="M270 366l-27 31h731l-51 -31h-653zM328 300l-30 34h572l-56 -34h-486zM387 233l-33 38h412l-63 -38h-316zM333 34l19 48h271l-19 -48h-271zM359 100l17 45h271l-17 -45h-271zM384 167l16 41h271l-16 -41h-271zM1040 437l-7 -4h-374l43 27h347zM211 433l-3 4l9 23h346
l22 -27h-374zM764 499l37 23v1h272l-9 -24h-300zM232 499l9 24h270v-1l19 -23h-298zM818 566l7 19h271l-7 -19h-271zM591 0h-271l7 19h271zM257 566l7 19h271l-7 -19h-271zM559 646l-6 -14h-271l6 14h271zM1120 646l-6 -14h-271l6 14h271z" />
    <glyph glyph-name="FL00B6h" unicode="&#xb6;" horiz-adv-x="990" 
d="M209 233l14 38h833l-15 -38h-832zM234 300l13 34h833l-13 -34h-833zM538 384h290l5 13h271l-12 -31h-832l12 31h271zM311 499l9 24h833l-9 -24h-833zM318 566l-16 19h874l-7 -19h-851zM744 34l-43 48h310l38 -48h-305zM685 100l-41 45h316l36 -45h-311zM624 167l-37 41
h323l33 -41h-319zM1200 646l-6 -14h-930l-11 14h947zM133 34l18 48h271l-18 -48h-271zM158 100l17 45h271l-17 -45h-271zM184 167l15 41h272l-16 -41h-271zM847 433l10 27h272l-11 -27h-271zM286 433l10 27h271l-10 -27h-271zM775 0l-17 19h303l16 -19h-302zM391 0h-271
l7 19h271z" />
    <glyph glyph-name="FL00B8h" unicode="&#xb7;" horiz-adv-x="369" 
d="M103 167l16 41h290l-16 -41h-290zM129 233l14 38h290l-14 -38h-290zM154 300l13 34h290l-13 -34h-290zM180 366l12 31h290l-12 -31h-290zM206 433l10 27h290l-10 -27h-290z" />
    <glyph glyph-name="FL00BDh" unicode="&#xb8;" horiz-adv-x="225" 
d="M-151 -166l23 59h272l-22 -59h-273zM-109 -58h129l5 14h144l-22 -55h-272zM29 -33l13 33h144l-13 -33h-144z" />
    <glyph glyph-name="FL00BFh" unicode="&#xb9;" horiz-adv-x="350" 
d="M53 34l19 48h271l-19 -48h-271zM79 100l17 45h271l-17 -45h-271zM104 167l16 41h271l-16 -41h-271zM129 233l15 38h271l-15 -38h-271zM155 300l13 34h271l-13 -34h-271zM180 366l12 31h271l-12 -31h-271zM206 433l11 27h271l-11 -27h-271zM232 499l9 24h271l-9 -24h-271z
M257 566l7 19h271l-7 -19h-271zM311 0h-271l7 19h271zM288 646h271l-6 -14h-271z" />
    <glyph glyph-name="FL00BAh" unicode="&#xba;" horiz-adv-x="518" 
d="M229 433l10 27h417l-11 -27h-416zM434 522h73v1h173l-9 -24h-417l9 24h171v-1zM305 632l6 16h417l-6 -16h-417zM303 699l-10 12h459l-5 -12h-444zM524 566l7 19h173l-8 -19h-172zM280 566l7 19h171l-7 -19h-171z" />
    <glyph glyph-name="FL00BBh" unicode="&#xbb;" horiz-adv-x="665" 
d="M435 233l52 38h226l-52 -38h-226zM150 233l52 38h226l-52 -38h-226zM559 323l-7 11h226l7 -11l-32 -23h-226zM274 323l-7 11h226l7 -11l-32 -23h-226zM434 167l-26 41h218l-56 -41h-136zM149 167l-26 41h218l-56 -41h-136zM532 366l-19 31h226l19 -31h-226zM247 366
l-19 31h226l19 -31h-226zM493 433l37 27h170l17 -27h-224zM208 433l37 27h170l17 -27h-224zM190 100l-28 45h92l-62 -45h-2zM475 100l-28 45h92l-62 -45h-2zM584 499l33 24h44l15 -24h-92zM299 499l33 24h44l15 -24h-92z" />
    <glyph glyph-name="FL0EB2h" unicode="&#xbc;" horiz-adv-x="1098" 
d="M298 120l-109 25h796l-20 -45h-37l-47 16l-21 -16h-602zM982 185l-16 8l-20 -12l10 -14h-785l62 22l-32 19h76l-11 -23l29 9l6 14h29q0 -32 30 -32q6 0 10.5 2t16.5 4l6 19q-8 -3 -25 -3q-18 0 -19 10h73q-2 -6 -2 -5q3 -18 36 -18q5 0 9.5 0.5t12.5 1.5q18 0 38 21h31
l-9 -23l24 4l7 19h33q16 -21 34 -21l8 21h25l-8 -17l33 7l4 10h21q-2 -3 -3.5 -6t-3.5 -6h27l12 12h46l3 -12l15 -3l5 15h21l-6 -17l23 2l6 15h37q13 -16 31 -16l6 16h151q10 -22 7 -34l-1.5 -1t-4.5 -6l-88 14l-7 -14h-39zM346 306l-22 -3l-2 -3h-118l-4 10l6 24h44l43 -4
l2 4h806l-36 -9l42 -25h-71l3 6l-28 5l-5 -11h-33l2 6l-20 5l-5 -11h-68l-3 6l-3 -6h-31q-5 14 -18 14q-16 0 -19 -4q-3 -3 -6 -5.5t-5 -4.5h-58l5 11l-26 -5l-3 -6h-36l1 1l-18 5l-3 -6h-76v1l-1 -1h-37q-9 6 -25 6h-15q-4 -2 -6.5 -3.5t-4.5 -2.5h-46l4 9q-26 -3 -45 -9
h-64zM401 395q9 0 15 2h594l-12 -7l108 -24h-794l16 31h57q6 -2 8 -2h8zM420 77l-138 5h555l-58 -45l-48 40l-111 -43h-41l2 3l-12 25l-181 -28h-5zM538 460l27 -25l64 25h91l-3 -11l85 11h99l-18 -27h-416l37 27h34zM227 252l-9 19h90l-19 -38h-131l-23 14zM1158 259
l-92 -7q3 -5 5.5 -9.5t5.5 -9.5h-77l20 38h137zM459 271q-8 -8 -14.5 -17.5t-11.5 -20.5h-77q5 9 12.5 17.5t18.5 17.5q1 1 2 1.5t2 1.5h68zM524 251q-2 -6 -4 -10.5t-4 -7.5h-59q0 1 1 2l3 8q16 21 27 28h37q3 -3 4 -6q-2 -5 -2.5 -8.5t-2.5 -5.5zM768 271q-17 -19 -32 -38
h-27l17 38h42zM947 233l15 38h32l-16 -38h-31zM653 233l15 38h32l-18 -38h-29zM625 233l-24 38h45l-16 -38h-5zM918 233l-21 38h41l-17 -38h-3zM830 233l14 38h21l-14 -38h-21zM332 235q0 -1 -0.5 -1.5l-0.5 -0.5h-18l17 38h23q-10 -10 -18 -28zM556 268v3h15l-15 -38h-20
q5 8 10 16.5t10 18.5zM814 249h-39l21 22h17zM880 249q2 -5 3 -8.5t3 -7.5h-12zM564 12l5 7h13zM582 243q1 -3 2 -5.5t2 -4.5h-8zM466 207q-6 0 -7 1h19q-3 -1 -12 -1z" />
    <glyph glyph-name="mu" unicode="&#xbd;" horiz-adv-x="1143" 
d="M385 34l14 22l-176 15l4 11h77l138 -5l-37 -43h-20zM744 56l-55 -22h-47l111 43l48 -40l58 45h30l-65 -48h-63zM939 449h166l10 -14q-2 -2 -1 -2h-209l18 27h22zM240 100l22 16l-107 20q-11 0 -14 9h70l109 -25l-40 -20h-40zM580 34l1 3l-22 -3h-149l181 28l12 -25l-2 -3
h-21zM836 249l-1 22h31l-14 -38h-94q15 19 32 38h28l-21 -22h39zM136 233l3 26l83 12h18l9 -19l-92 -5l23 -14h-44zM1020 390l12 7h49l110 -31h-63zM152 167l48 27l-27 14h50l32 -19l-62 -22h-41zM1207 268l-3 -1l-24 -28h-62l2 -6h-21q-3 5 -5.5 9.5t-5.5 9.5l92 7l-1 12
h28v-3zM608 233q-1 2 -2 4.5t-2 5.5l-4 -10h-22l15 38h30l24 -38h-39zM908 233q-2 4 -3 7.5t-3 8.5l-6 -16h-23l14 38h32l21 -38h-32zM1182 334q-18 -12 -49 -15q12 -5 22.5 -9.5t18.5 -9.5h-45l-42 25l36 9h59zM538 208q-20 -21 -38 -21q-8 -1 -12.5 -1.5t-9.5 -0.5
q-33 0 -36 18q0 -1 2 5h37q1 -1 7 -1q9 0 12 1h38zM371 208q1 -10 19 -10q17 0 25 3l-6 -19q-12 -2 -16.5 -4t-10.5 -2q-30 0 -30 32h19zM586 -8l-19 8l7 19h17l-5 -7l18 7h48zM409 268q-11 -9 -18.5 -17.5t-12.5 -17.5h-25l0.5 0.5t0.5 1.5l3 8q8 18 18 28h38
q-1 -1 -2 -1.5t-2 -1.5zM597 460l6 -4l10 4h38l-64 -25l-27 25h37zM987 100l20 45h24l-22 -45h-22zM704 233l18 38h26l-17 -38h-27zM304 366q4 8 7.5 16t7.5 15h31l-16 -31h-30zM943 233l17 38h24l-15 -38h-26zM1000 233l16 38h26l-20 -38h-22zM455 233q5 11 11.5 20.5
t14.5 17.5h29q-11 -7 -27 -28l-3 -8q-1 -1 -1 -2h-24zM457 433q19 15 36 27h33l-37 -27h-32zM578 268q-5 -10 -10 -18.5t-10 -16.5h-20q2 3 4 7.5t4 10.5q2 2 2.5 5.5t2.5 8.5q-1 3 -4 6h31v-3zM311 233l19 38h22l-17 -38h-24zM652 233l16 38h22l-15 -38h-23zM1131 208
l8 -19l-1 -9l-2 -5l-2 -4l-2 -4h-20q3 5 4.5 6l1.5 1q3 12 -7 34h20zM200 319l7 15h21l-6 -24l4 -10h-18zM1017 167l7 14l88 -14h-95zM999 82q-9 -12 -29 -12q-14 0 -22.5 2.5t-19.5 9.5h71zM658 187q-18 0 -34 21h42zM882 100l21 16l47 -16h-68zM819 300q2 2 5 4.5t6 5.5
q3 4 19 4q13 0 18 -14h-48zM584 189l-24 -4l9 23h22zM742 460h82l-85 -11zM317 194l-29 -9l11 23h24zM1004 185l-26 -18l-10 14l20 12zM713 499l41 16l11 -16h-52zM716 198l-33 -7l8 17h29zM954 192q-18 0 -31 16h37zM880 193l-23 -2l6 17h23zM773 208l-12 -12h-27
q2 3 3.5 6t3.5 6h32zM837 193l-15 3l-3 12h23zM1061 306l-3 -6h-30l5 11zM516 300q2 1 4.5 2.5t6.5 3.5h15q16 0 25 -6h-51zM347 433q11 8 20 8h4l22 -8h-46zM396 12l-10 7h62zM474 309l-4 -9h-41q19 6 45 9zM766 311l-5 -11h-24l3 6zM972 300l5 11l20 -5l-2 -6h-23z
M368 306l-3 -6h-21l2 3zM315 330l-43 4h45zM681 300l3 6l18 -5l-1 -1h-20zM438 397q-6 -2 -15 -2h-8q-2 0 -8 2h31zM898 300l3 6l3 -6h-6zM774 18l-1 1h7zM604 300l1 1v-1h-1z" />
    <glyph glyph-name="FL0EB6h" unicode="&#xbe;" horiz-adv-x="806" 
d="M659 249l-1 22h31l-14 -38h-94q15 19 32 38h28l-21 -22h39zM431 233q-1 2 -2 4.5t-2 5.5l-4 -10h-22l15 38h30l24 -38h-39zM731 233q-2 4 -3 7.5t-3 8.5l-6 -16h-23l14 38h32l21 -38h-32zM361 208q-20 -21 -38 -21q-8 -1 -12.5 -1.5t-9.5 -0.5q-33 0 -36 18q0 -1 2 5h37
q1 -1 7 -1q9 0 12 1h38zM194 208q1 -10 19 -10q17 0 25 3l-6 -19q-12 -2 -16.5 -4t-10.5 -2q-30 0 -30 32h19zM232 268q-11 -9 -18.5 -17.5t-12.5 -17.5h-25l0.5 0.5t0.5 1.5l3 8q8 18 18 28h38q-1 -1 -2 -1.5t-2 -1.5zM527 233l18 38h26l-17 -38h-27zM766 233l17 38h24
l-15 -38h-26zM823 233l16 38h26l-20 -38h-22zM278 233q5 11 11.5 20.5t14.5 17.5h29q-11 -7 -27 -28l-3 -8q-1 -1 -1 -2h-24zM401 268q-5 -10 -10 -18.5t-10 -16.5h-20q2 3 4 7.5t4 10.5q2 2 2.5 5.5t2.5 8.5q-1 3 -4 6h31v-3zM134 233l19 38h22l-17 -38h-24zM475 233l16 38
h22l-15 -38h-23zM481 187q-18 0 -34 21h42zM642 300q2 2 5 4.5t6 5.5q3 4 19 4q13 0 18 -14h-48zM407 189l-24 -4l9 23h22zM140 194l-29 -9l11 23h24zM827 185l-26 -18l-10 14l20 12zM539 198l-33 -7l8 17h29zM777 192q-18 0 -31 16h37zM703 193l-23 -2l6 17h23zM596 208
l-12 -12h-27q2 3 3.5 6t3.5 6h32zM660 193l-15 3l-3 12h23zM884 306l-3 -6h-30l5 11zM339 300q2 1 4.5 2.5t6.5 3.5h15q16 0 25 -6h-51zM297 309l-4 -9h-41q19 6 45 9zM589 311l-5 -11h-24l3 6zM795 300l5 11l20 -5l-2 -6h-23zM191 306l-3 -6h-21l2 3zM504 300l3 6l18 -5
l-1 -1h-20zM721 300l3 6l3 -6h-6zM427 300l1 1v-1h-1z" />
    <glyph glyph-name="FL0EBDh" unicode="&#xbf;" horiz-adv-x="913" 
d="M53 34l19 48h833l-19 -48h-833zM79 100l17 45h833l-17 -45h-833zM155 300l13 34h834l-13 -34h-834zM405 243l-4 -10h-272l15 38h834l-11 -28h-562zM180 366l12 31h834l-12 -31h-834zM40 0l7 19h833l-7 -19h-833zM104 167l16 41h272l-16 -41h-272zM794 499l9 24h271
l-9 -24h-271zM819 566l7 19h271l-7 -19h-271zM1121 646l-6 -14h-271l6 14h271z" />
    <glyph glyph-name="FL00C0h" unicode="&#xc0;" horiz-adv-x="990" 
d="M209 233l14 38h833l-15 -38h-832zM234 300l13 34h833l-13 -34h-833zM470 207l-15 -40h-271l15 41h833l-16 -41h-271l15 40h-290zM311 499l9 24h833l-9 -24h-833zM532 367h290l11 30h271l-12 -31h-832l12 31h271zM318 566l-16 19h874l-7 -19h-851zM1200 646l-6 -14h-930
l-11 14h947zM694 34l18 48h272l-19 -48h-271zM133 34l18 48h271l-18 -48h-271zM719 100l17 45h272l-17 -45h-272zM158 100l17 45h271l-17 -45h-271zM847 433l10 27h272l-11 -27h-271zM286 433l10 27h271l-10 -27h-271zM952 0h-271l7 19h271zM391 0h-271l7 19h271zM734 700
l-4 11h215l4 -11h-215zM712 765l-3 9h217l3 -9h-217z" />
    <glyph glyph-name="FL00C1h" unicode="&#xc1;" horiz-adv-x="990" 
d="M209 233l14 38h833l-15 -38h-832zM234 300l13 34h833l-13 -34h-833zM470 207l-15 -40h-271l15 41h833l-16 -41h-271l15 40h-290zM311 499l9 24h833l-9 -24h-833zM532 367h290l11 30h271l-12 -31h-832l12 31h271zM318 566l-16 19h874l-7 -19h-851zM1200 646l-6 -14h-930
l-11 14h947zM694 34l18 48h272l-19 -48h-271zM133 34l18 48h271l-18 -48h-271zM719 100l17 45h272l-17 -45h-272zM158 100l17 45h271l-17 -45h-271zM847 433l10 27h272l-11 -27h-271zM286 433l10 27h271l-10 -27h-271zM952 0h-271l7 19h271zM391 0h-271l7 19h271zM870 700
h-215l11 11h216zM724 765l9 9h218l-10 -9h-217z" />
    <glyph glyph-name="FL00C2h" unicode="&#xc2;" horiz-adv-x="990" 
d="M209 233l14 38h833l-15 -38h-832zM234 300l13 34h833l-13 -34h-833zM745 167l15 40h-290l-15 -40h-271l15 41h833l-16 -41h-271zM311 499l9 24h833l-9 -24h-833zM532 367h290l11 30h271l-12 -31h-832l12 31h271zM318 566l-16 19h874l-7 -19h-851zM253 646h947l-6 -14
h-930zM694 34l18 48h272l-19 -48h-271zM133 34l18 48h271l-18 -48h-271zM719 100l17 45h272l-17 -45h-272zM158 100l17 45h271l-17 -45h-271zM847 433l10 27h272l-11 -27h-271zM286 433l10 27h271l-10 -27h-271zM952 0h-271l7 19h271zM391 0h-271l7 19h271zM746 700h-215
l11 11h216zM864 700l-4 11h214l4 -11h-214zM600 765l9 9h218l-10 -9h-217zM843 765l-3 9h214l3 -9h-214z" />
    <glyph glyph-name="FL00C3h" unicode="&#xc3;" horiz-adv-x="990" 
d="M209 233l14 38h833l-15 -38h-832zM234 300l13 34h833l-13 -34h-833zM745 167l15 40h-290l-15 -40h-271l15 41h833l-16 -41h-271zM311 499l9 24h833l-9 -24h-833zM532 367h290l11 30h271l-12 -31h-832l12 31h271zM318 566l-16 19h874l-7 -19h-851zM253 646h947l-6 -14
h-930zM694 34l18 48h272l-19 -48h-271zM133 34l18 48h271l-18 -48h-271zM719 100l17 45h272l-17 -45h-272zM158 100l17 45h271l-17 -45h-271zM847 433l10 27h272l-11 -27h-271zM286 433l10 27h271l-10 -27h-271zM391 0h-271l7 19h271zM952 0h-271l7 19h271zM1078 700h-288
l-4 11h303zM672 700h-215l11 11h216zM526 765l9 9h218l-10 -9h-217zM930 765l10 9h216l-9 -9h-217zM769 765l-3 9h127l3 -9h-127z" />
    <glyph glyph-name="FL00C4h" unicode="&#xc4;" horiz-adv-x="990" 
d="M209 233l14 38h833l-15 -38h-832zM234 300l13 34h833l-13 -34h-833zM470 207l-15 -40h-271l15 41h833l-16 -41h-271l15 40h-290zM311 499l9 24h833l-9 -24h-833zM532 367h290l11 30h271l-12 -31h-832l12 31h271zM318 566l-16 19h874l-7 -19h-851zM1200 646l-6 -14h-930
l-11 14h947zM694 34l18 48h272l-19 -48h-271zM133 34l18 48h271l-18 -48h-271zM719 100l17 45h272l-17 -45h-272zM158 100l17 45h271l-17 -45h-271zM847 433l10 27h272l-11 -27h-271zM286 433l10 27h271l-10 -27h-271zM952 0h-271l7 19h271zM391 0h-271l7 19h271zM531 700
l4 11h215l-4 -11h-215zM863 700l4 11h215l-4 -11h-215zM887 765l4 9h215l-4 -9h-215zM555 765l4 9h215l-4 -9h-215z" />
    <glyph glyph-name="FL00C5h" unicode="&#xc5;" horiz-adv-x="990" 
d="M209 233l14 38h833l-15 -38h-832zM234 300l13 34h833l-13 -34h-833zM745 167l15 40h-290l-15 -40h-271l15 41h833l-16 -41h-271zM311 499l9 24h833l-9 -24h-833zM532 367h290l11 30h271l-12 -31h-832l12 31h271zM318 566l-16 19h874l-7 -19h-851zM253 646h947l-6 -14
h-930zM694 34l18 48h272l-19 -48h-271zM133 34l18 48h271l-18 -48h-271zM719 100l17 45h272l-17 -45h-272zM158 100l17 45h271l-17 -45h-271zM847 433l10 27h272l-11 -27h-271zM286 433l10 27h271l-10 -27h-271zM391 0h-271l7 19h271zM952 0h-271l7 19h271zM909 700h-215
l4 11h215zM718 765l4 9h75l-4 -9h-75zM859 765l4 9h74l-4 -9h-74z" />
    <glyph glyph-name="FL00C6h" unicode="&#xc6;" horiz-adv-x="1508" 
d="M1562 243h-517l-4 -10h-832l14 38h1350zM234 300l13 34h1350l-13 -34h-1350zM693 34l18 48h789l-19 -48h-788zM718 100l17 45h789l-17 -45h-789zM532 367h289l11 30h789l-12 -31h-1349l12 31h271zM311 499l9 24h1349l-9 -24h-1349zM318 566l-16 19h1391l-7 -19h-1368z
M744 167l15 40h-289l-15 -40h-271l15 41h832l-16 -41h-271zM253 646h1464l-6 -14h-1447zM1469 0h-789l7 19h789zM133 34l18 48h271l-18 -48h-271zM158 100l17 45h271l-17 -45h-271zM846 433l10 27h272l-10 -27h-272zM286 433l10 27h271l-10 -27h-271zM391 0h-271l7 19h271z
" />
    <glyph glyph-name="FL00C7h" unicode="&#xc7;" horiz-adv-x="948" 
d="M133 34l18 48h789l-19 -48h-788zM158 100l17 45h789l-17 -45h-789zM481 -33l13 33h-374l7 19h789l-7 -19h-271l-13 -33h-144zM311 499l9 24h789l-9 -24h-789zM301 -166l23 59h272l-22 -59h-273zM318 566l-16 19h831l-7 -19h-808zM343 -58h129l5 14h144l-22 -55h-272z
M253 646h904l-6 -14h-887zM184 167l15 41h271l-16 -41h-270zM209 233l14 38h271l-14 -38h-271zM234 300l13 34h271l-13 -34h-271zM260 366l12 31h271l-12 -31h-271zM286 433l10 27h271l-10 -27h-271z" />
    <glyph glyph-name="FL00C8h" unicode="&#xc8;" 
d="M133 34l18 48h832l-19 -48h-831zM158 100l17 45h832l-17 -45h-832zM234 300l13 34h833l-13 -34h-833zM484 243l-4 -10h-271l14 38h833l-11 -28h-561zM260 366l12 31h832l-12 -31h-832zM311 499l9 24h832l-9 -24h-832zM318 566l-16 19h874l-7 -19h-851zM952 0h-832l7 19
h832zM1200 646l-6 -14h-930l-11 14h947zM184 167l15 41h271l-16 -41h-270zM286 433l10 27h271l-10 -27h-271zM734 700l-4 11h215l4 -11h-215zM712 765l-3 9h217l3 -9h-217z" />
    <glyph glyph-name="FL00C9h" unicode="&#xc9;" 
d="M133 34l18 48h832l-19 -48h-831zM158 100l17 45h832l-17 -45h-832zM234 300l13 34h833l-13 -34h-833zM1045 243h-561l-4 -10h-271l14 38h833zM260 366l12 31h832l-12 -31h-832zM311 499l9 24h832l-9 -24h-832zM318 566l-16 19h874l-7 -19h-851zM952 0h-832l7 19h832z
M253 646h947l-6 -14h-930zM184 167l15 41h271l-16 -41h-270zM286 433l10 27h271l-10 -27h-271zM870 700h-215l11 11h216zM724 765l9 9h218l-10 -9h-217z" />
    <glyph glyph-name="FL00CAh" unicode="&#xca;" 
d="M133 34l18 48h832l-19 -48h-831zM158 100l17 45h832l-17 -45h-832zM234 300l13 34h833l-13 -34h-833zM1045 243h-561l-4 -10h-271l14 38h833zM260 366l12 31h832l-12 -31h-832zM311 499l9 24h832l-9 -24h-832zM318 566l-16 19h874l-7 -19h-851zM952 0h-832l7 19h832z
M253 646h947l-6 -14h-930zM184 167l15 41h271l-16 -41h-270zM286 433l10 27h271l-10 -27h-271zM746 700h-215l11 11h216zM864 700l-4 11h214l4 -11h-214zM600 765l9 9h218l-10 -9h-217zM843 765l-3 9h214l3 -9h-214z" />
    <glyph glyph-name="FL00CBh" unicode="&#xcb;" 
d="M133 34l18 48h832l-19 -48h-831zM158 100l17 45h832l-17 -45h-832zM234 300l13 34h833l-13 -34h-833zM484 243l-4 -10h-271l14 38h833l-11 -28h-561zM260 366l12 31h832l-12 -31h-832zM311 499l9 24h832l-9 -24h-832zM318 566l-16 19h874l-7 -19h-851zM952 0h-832l7 19
h832zM1200 646l-6 -14h-930l-11 14h947zM184 167l15 41h271l-16 -41h-270zM286 433l10 27h271l-10 -27h-271zM531 700l4 11h215l-4 -11h-215zM863 700l4 11h215l-4 -11h-215zM555 765l4 9h215l-4 -9h-215zM887 765l4 9h215l-4 -9h-215z" />
    <glyph glyph-name="FL00CCh" unicode="&#xcc;" horiz-adv-x="430" 
d="M133 34l18 48h272l-19 -48h-271zM158 100l17 45h272l-17 -45h-272zM184 167l15 41h272l-16 -41h-271zM209 233l14 38h272l-15 -38h-271zM234 300l13 34h272l-13 -34h-272zM260 366l12 31h271l-12 -31h-271zM286 433l10 27h272l-11 -27h-271zM311 499l9 24h272l-9 -24
h-272zM318 566l-16 19h313l-7 -19h-290zM639 646l-6 -14h-369l-11 14h386zM391 0h-271l7 19h271zM418 700l-4 11h215l4 -11h-215zM396 765l-3 9h217l3 -9h-217z" />
    <glyph glyph-name="FL00CDh" unicode="&#xcd;" horiz-adv-x="430" 
d="M133 34l18 48h272l-19 -48h-271zM158 100l17 45h272l-17 -45h-272zM184 167l15 41h272l-16 -41h-271zM209 233l14 38h272l-15 -38h-271zM234 300l13 34h272l-13 -34h-272zM260 366l12 31h271l-12 -31h-271zM286 433l10 27h272l-11 -27h-271zM311 499l9 24h272l-9 -24
h-272zM318 566l-16 19h313l-7 -19h-290zM639 646l-6 -14h-369l-11 14h386zM391 0h-271l7 19h271zM571 700h-215l11 11h216zM425 765l9 9h218l-10 -9h-217z" />
    <glyph glyph-name="FL00CEh" unicode="&#xce;" horiz-adv-x="430" 
d="M133 34l18 48h272l-19 -48h-271zM158 100l17 45h272l-17 -45h-272zM184 167l15 41h272l-16 -41h-271zM209 233l14 38h272l-15 -38h-271zM234 300l13 34h272l-13 -34h-272zM260 366l12 31h271l-12 -31h-271zM286 433l10 27h272l-11 -27h-271zM311 499l9 24h272l-9 -24
h-272zM318 566l-16 19h313l-7 -19h-290zM253 646h386l-6 -14h-369zM120 0l7 19h271l-7 -19h-271zM444 700h-215l11 11h216zM562 700l-4 11h214l4 -11h-214zM298 765l9 9h218l-10 -9h-217zM541 765l-3 9h214l3 -9h-214z" />
    <glyph glyph-name="FL00CFh" unicode="&#xcf;" horiz-adv-x="430" 
d="M133 34l18 48h272l-19 -48h-271zM158 100l17 45h272l-17 -45h-272zM184 167l15 41h272l-16 -41h-271zM209 233l14 38h272l-15 -38h-271zM234 300l13 34h272l-13 -34h-272zM260 366l12 31h271l-12 -31h-271zM286 433l10 27h272l-11 -27h-271zM311 499l9 24h272l-9 -24
h-272zM318 566l-16 19h313l-7 -19h-290zM639 646l-6 -14h-369l-11 14h386zM391 0h-271l7 19h271zM230 700l4 11h215l-4 -11h-215zM562 700l4 11h215l-4 -11h-215zM586 765l4 9h215l-4 -9h-215zM254 765l4 9h215l-4 -9h-215z" />
    <glyph glyph-name="FL00D0h" unicode="&#xd0;" 
d="M158 100l17 45h769l-75 -45h-711zM133 34l18 48h688l-80 -48h-626zM311 499l9 24h833l-9 -24h-833zM318 566l-16 19h874l-7 -19h-851zM155 300l13 34h471l-13 -34h-471zM209 233l4 10h-80l11 28h471l-11 -28h-120l-4 -10h-271zM1027 195l-47 -28h-373l65 41h360zM180 366
l12 31h471l-12 -31h-471zM253 646h947l-6 -14h-930zM712 233l61 38h283l-15 -38h-329zM703 0h-583l7 19h607zM184 167l15 41h271l-16 -41h-270zM795 300l13 34h272l-13 -34h-272zM821 366l12 31h271l-12 -31h-271zM847 433l10 27h272l-11 -27h-271zM286 433l11 27h270
l-10 -27h-271z" />
    <glyph glyph-name="FL00D1h" unicode="&#xd1;" 
d="M234 300l13 34h833l-13 -34h-833zM535 233l-24 38h545l-15 -38h-506zM576 167l-26 41h482l-16 -41h-440zM618 100l-28 45h418l-17 -45h-373zM260 366l12 31h523l19 -31h-554zM659 34l-30 48h355l-19 -48h-306zM133 34l18 48h271l-18 -48h-271zM286 433l10 27h460l17 -27
h-487zM158 100l17 45h271l-17 -45h-271zM184 167l15 41h271l-15 -41h-271zM209 233l14 38h272l-15 -38h-271zM311 499l9 24h396l15 -24h-420zM821 366l12 31h271l-12 -31h-271zM847 433l11 27h271l-11 -27h-271zM318 566l-16 19h375l12 -19h-371zM873 499l9 24h271l-9 -24
h-271zM253 646h386l9 -14h-384zM952 0h-271l-12 19h290zM898 566l7 19h271l-7 -19h-271zM120 0l7 19h271l-7 -19h-271zM923 632l6 14h271l-6 -14h-271zM1078 700h-288l-4 11h303zM672 700h-215l11 11h216zM526 765l9 9h218l-10 -9h-217zM930 765l10 9h216l-9 -9h-217z
M769 765l-3 9h127l3 -9h-127z" />
    <glyph glyph-name="FL00D2h" unicode="&#xd2;" 
d="M133 34l18 48h833l-19 -48h-832zM158 100l17 45h833l-17 -45h-833zM311 499l9 24h833l-9 -24h-833zM318 566l-16 19h874l-7 -19h-851zM952 0h-832l7 19h832zM253 646h947l-6 -14h-930zM744 167l16 41h272l-16 -41h-272zM184 167l15 41h271l-16 -41h-270zM770 233l14 38
h272l-15 -38h-271zM209 233l14 38h271l-14 -38h-271zM795 300l13 34h272l-13 -34h-272zM234 300l13 34h271l-13 -34h-271zM821 366l12 31h271l-12 -31h-271zM260 366l12 31h271l-12 -31h-271zM847 433l10 27h272l-11 -27h-271zM286 433l10 27h271l-10 -27h-271zM734 700
l-4 11h215l4 -11h-215zM712 765l-3 9h217l3 -9h-217z" />
    <glyph glyph-name="FL00D3h" unicode="&#xd3;" 
d="M133 34l18 48h833l-19 -48h-832zM158 100l17 45h833l-17 -45h-833zM311 499l9 24h833l-9 -24h-833zM318 566l-16 19h874l-7 -19h-851zM952 0h-832l7 19h832zM253 646h947l-6 -14h-930zM744 167l16 41h272l-16 -41h-272zM184 167l15 41h271l-16 -41h-270zM770 233l14 38
h272l-15 -38h-271zM209 233l14 38h271l-14 -38h-271zM795 300l13 34h272l-13 -34h-272zM234 300l13 34h271l-13 -34h-271zM821 366l12 31h271l-12 -31h-271zM260 366l12 31h271l-12 -31h-271zM847 433l10 27h272l-11 -27h-271zM286 433l10 27h271l-10 -27h-271zM870 700
h-215l11 11h216zM724 765l9 9h218l-10 -9h-217z" />
    <glyph glyph-name="FL00D4h" unicode="&#xd4;" 
d="M133 34l18 48h833l-19 -48h-832zM158 100l17 45h833l-17 -45h-833zM311 499l9 24h833l-9 -24h-833zM318 566l-16 19h874l-7 -19h-851zM952 0h-832l7 19h832zM253 646h947l-6 -14h-930zM744 167l16 41h272l-16 -41h-272zM184 167l15 41h271l-16 -41h-270zM770 233l14 38
h272l-15 -38h-271zM209 233l14 38h271l-14 -38h-271zM795 300l13 34h272l-13 -34h-272zM234 300l13 34h271l-13 -34h-271zM821 366l12 31h271l-12 -31h-271zM260 366l12 31h271l-12 -31h-271zM847 433l10 27h272l-11 -27h-271zM286 433l10 27h271l-10 -27h-271zM746 700
h-215l11 11h216zM864 700l-4 11h214l4 -11h-214zM600 765l9 9h218l-10 -9h-217zM843 765l-3 9h214l3 -9h-214z" />
    <glyph glyph-name="FL00D5h" unicode="&#xd5;" 
d="M133 34l18 48h833l-19 -48h-832zM158 100l17 45h833l-17 -45h-833zM311 499l9 24h833l-9 -24h-833zM318 566l-16 19h874l-7 -19h-851zM952 0h-832l7 19h832zM253 646h947l-6 -14h-930zM744 167l16 41h272l-16 -41h-272zM184 167l15 41h271l-16 -41h-270zM770 233l14 38
h272l-15 -38h-271zM209 233l14 38h271l-14 -38h-271zM795 300l13 34h272l-13 -34h-272zM234 300l13 34h271l-13 -34h-271zM821 366l12 31h271l-12 -31h-271zM260 366l12 31h271l-12 -31h-271zM847 433l10 27h272l-11 -27h-271zM286 433l10 27h271l-10 -27h-271zM1078 700
h-288l-4 11h303zM672 700h-215l11 11h216zM526 765l9 9h218l-10 -9h-217zM930 765l10 9h216l-9 -9h-217zM769 765l-3 9h127l3 -9h-127z" />
    <glyph glyph-name="FL00D6h" unicode="&#xd6;" 
d="M133 34l18 48h833l-19 -48h-832zM158 100l17 45h833l-17 -45h-833zM311 499l9 24h833l-9 -24h-833zM318 566l-16 19h874l-7 -19h-851zM952 0h-832l7 19h832zM253 646h947l-6 -14h-930zM744 167l16 41h272l-16 -41h-272zM184 167l15 41h271l-16 -41h-270zM770 233l14 38
h272l-15 -38h-271zM209 233l14 38h271l-14 -38h-271zM795 300l13 34h272l-13 -34h-272zM234 300l13 34h271l-13 -34h-271zM821 366l12 31h271l-12 -31h-271zM260 366l12 31h271l-12 -31h-271zM847 433l10 27h272l-11 -27h-271zM286 433l10 27h271l-10 -27h-271zM863 700
l4 11h215l-4 -11h-215zM531 700l4 11h215l-4 -11h-215zM555 765l4 9h215l-4 -9h-215zM887 765l4 9h215l-4 -9h-215z" />
    <glyph glyph-name="FL00D7h" unicode="&#xd7;" horiz-adv-x="491" 
d="M150 233l53 38h329l23 -38h-405zM416 460l15 -24l33 24h170l17 -27h-443l37 27h171zM248 366l-19 31h374l-43 -31h-312zM243 300l32 23l-7 11h248l-15 -11l14 -23h-272zM149 167l-26 41h219l-57 -41h-136zM371 167l-25 41h216l-56 -41h-135zM190 100l-28 45h93l-63 -45
h-2zM411 100l-27 45h91l-62 -45h-2zM518 499l33 24h44l15 -24h-92zM299 499l33 24h44l15 -24h-92z" />
    <glyph glyph-name="FL00D8h" unicode="&#xd8;" 
d="M133 34l18 48h833l-19 -48h-832zM158 100l17 45h833l-17 -45h-833zM311 499l9 24h833l-9 -24h-833zM209 233l14 38h504l-47 -38h-471zM234 300l13 34h272l-9 -25l31 25h265l-43 -34h-529zM184 167l15 41h449l-51 -41h-413zM318 566l-16 19h874l-7 -19h-851zM952 0h-832
l7 19h832zM580 366l39 31h485l-12 -31h-512zM253 646h947l-6 -14h-930zM663 433l34 27h432l-11 -27h-455zM744 167l16 41h272l-16 -41h-272zM770 233l14 38h272l-15 -38h-271zM795 300l14 34h271l-13 -34h-272zM260 366l12 31h271l-12 -31h-271zM286 433l10 27h271l-10 -27
h-271z" />
    <glyph glyph-name="FL00D9h" unicode="&#xd9;" 
d="M133 34l18 48h833l-19 -48h-832zM158 100l17 45h833l-17 -45h-833zM952 0h-832l7 19h832zM744 167l16 41h272l-16 -41h-272zM184 167l15 41h271l-16 -41h-270zM770 233l14 38h272l-15 -38h-271zM209 233l14 38h271l-14 -38h-271zM795 300l13 34h272l-13 -34h-272z
M234 300l13 34h271l-13 -34h-271zM821 366l12 31h271l-12 -31h-271zM260 366l12 31h271l-12 -31h-271zM847 433l10 27h272l-11 -27h-271zM286 433l10 27h271l-10 -27h-271zM872 499l9 24h272l-9 -24h-272zM311 499l9 24h271l-9 -24h-271zM318 566l-16 19h313l-7 -19h-290z
M639 646l-6 -14h-369l-11 14h386zM898 566l7 19h271l-7 -19h-271zM1200 646l-6 -14h-271l6 14h271zM734 700l-4 11h215l4 -11h-215zM712 765l-3 9h217l3 -9h-217z" />
    <glyph glyph-name="FL00DAh" unicode="&#xda;" 
d="M133 34l18 48h833l-19 -48h-832zM158 100l17 45h833l-17 -45h-833zM120 0l7 19h832l-7 -19h-832zM744 167l16 41h272l-16 -41h-272zM184 167l15 41h271l-16 -41h-270zM770 233l14 38h272l-15 -38h-271zM209 233l14 38h271l-14 -38h-271zM795 300l13 34h272l-13 -34h-272z
M234 300l13 34h271l-13 -34h-271zM821 366l12 31h271l-12 -31h-271zM260 366l12 31h271l-12 -31h-271zM847 433l10 27h272l-11 -27h-271zM286 433l10 27h271l-10 -27h-271zM872 499l9 24h272l-9 -24h-272zM311 499l9 24h271l-9 -24h-271zM318 566l-16 19h313l-7 -19h-290z
M253 646h386l-6 -14h-369zM898 566l7 19h271l-7 -19h-271zM923 632l6 14h271l-6 -14h-271zM870 700h-215l11 11h216zM724 765l9 9h218l-10 -9h-217z" />
    <glyph glyph-name="FL00DBh" unicode="&#xdb;" 
d="M133 34l18 48h833l-19 -48h-832zM158 100l17 45h833l-17 -45h-833zM120 0l7 19h832l-7 -19h-832zM744 167l16 41h272l-16 -41h-272zM184 167l15 41h271l-16 -41h-270zM770 233l14 38h272l-15 -38h-271zM209 233l14 38h271l-14 -38h-271zM795 300l13 34h272l-13 -34h-272z
M234 300l13 34h271l-13 -34h-271zM821 366l12 31h271l-12 -31h-271zM260 366l12 31h271l-12 -31h-271zM847 433l10 27h272l-11 -27h-271zM286 433l10 27h271l-10 -27h-271zM872 499l9 24h272l-9 -24h-272zM311 499l9 24h271l-9 -24h-271zM318 566l-16 19h313l-7 -19h-290z
M253 646h386l-6 -14h-369zM898 566l7 19h271l-7 -19h-271zM923 632l6 14h271l-6 -14h-271zM746 700h-215l11 11h216zM864 700l-4 11h214l4 -11h-214zM600 765l9 9h218l-10 -9h-217zM843 765l-3 9h214l3 -9h-214z" />
    <glyph glyph-name="FL00DCh" unicode="&#xdc;" 
d="M133 34l18 48h833l-19 -48h-832zM158 100l17 45h833l-17 -45h-833zM952 0h-832l7 19h832zM744 167l16 41h272l-16 -41h-272zM184 167l15 41h271l-16 -41h-270zM770 233l14 38h272l-15 -38h-271zM209 233l14 38h271l-14 -38h-271zM795 300l13 34h272l-13 -34h-272z
M234 300l13 34h271l-13 -34h-271zM821 366l12 31h271l-12 -31h-271zM260 366l12 31h271l-12 -31h-271zM847 433l10 27h272l-11 -27h-271zM286 433l10 27h271l-10 -27h-271zM872 499l9 24h272l-9 -24h-272zM311 499l9 24h271l-9 -24h-271zM318 566l-16 19h313l-7 -19h-290z
M639 646l-6 -14h-369l-11 14h386zM898 566l7 19h271l-7 -19h-271zM1200 646l-6 -14h-271l6 14h271zM863 700l4 11h215l-4 -11h-215zM531 700l4 11h215l-4 -11h-215zM887 765l4 9h215l-4 -9h-215zM555 765l4 9h215l-4 -9h-215z" />
    <glyph glyph-name="FL00DDh" unicode="&#xdd;" 
d="M350 366l-27 31h731l-51 -31h-653zM408 300l-30 34h572l-56 -34h-486zM467 233l-33 38h412l-63 -38h-316zM413 34l19 48h271l-19 -48h-271zM439 100l17 45h271l-17 -45h-271zM464 167l16 41h271l-16 -41h-271zM1120 437l-7 -4h-374l43 27h347zM291 433l-3 4l9 23h346
l22 -27h-374zM844 499l37 23v1h272l-9 -24h-300zM311 499l9 24h271v-1l19 -23h-299zM318 566l-16 19h313l-7 -19h-290zM639 646l-6 -14h-369l-11 14h386zM898 566l7 19h271l-7 -19h-271zM671 0h-271l7 19h271zM1200 646l-6 -14h-271l6 14h271zM870 700h-215l11 11h216z
M724 765l9 9h218l-10 -9h-217z" />
    <glyph glyph-name="FL00DEh" unicode="&#xde;" horiz-adv-x="990" 
d="M992 105h-561l-2 -5h-271l17 45h832zM184 167l15 41h833l-16 -41h-832zM493 265h290l2 6h271l-15 -38h-832l14 38h272zM286 433l10 27h833l-11 -27h-832zM538 383l-7 -17h-271l12 31h832l-12 -31h-271l7 17h-290zM311 499l9 24h833l-9 -24h-833zM133 34l18 48h271
l-18 -48h-271zM234 300l13 34h272l-13 -34h-272zM796 300l13 34h271l-13 -34h-271zM318 566l-16 19h313l-7 -19h-290zM253 646h386l-6 -14h-369zM391 0h-271l7 19h271z" />
    <glyph glyph-name="FL00DFh" unicode="&#xdf;" horiz-adv-x="990" 
d="M492 34l19 48h474l-19 -48h-474zM518 100l17 45h474l-17 -45h-474zM312 499l9 24h833l-9 -24h-833zM315 566l-15 19h877l-7 -19h-855zM595 300l13 34h473l-13 -34h-473zM57 -166l22 59h271l-22 -59h-271zM770 233l4 10h-201l11 28h473l-15 -38h-272zM82 -99l21 55h271
l-21 -55h-271zM620 366l12 31h473l-12 -31h-473zM107 -33l20 52h271l-20 -52h-271zM1201 646l-6 -14h-931l-11 14h948zM133 34l19 48h270l-18 -48h-271zM159 100l17 45h270l-17 -45h-270zM744 167l16 41h273l-16 -41h-273zM184 167l16 41h270l-15 -41h-271zM209 233l15 38
h270l-14 -38h-271zM235 300l13 34h270l-13 -34h-270zM953 0h-473l7 19h473zM260 366l12 31h271l-12 -31h-271zM847 433l10 27h273l-11 -27h-272zM286 433l11 27h270l-10 -27h-271z" />
    <glyph glyph-name="FL00E0h" unicode="&#xe0;" horiz-adv-x="990" 
d="M209 233l14 38h833l-15 -38h-832zM234 300l13 34h833l-13 -34h-833zM470 207l-15 -40h-271l15 41h833l-16 -41h-271l15 40h-290zM311 499l9 24h833l-9 -24h-833zM532 367h290l11 30h271l-12 -31h-832l12 31h271zM318 566l-16 19h874l-7 -19h-851zM1200 646l-6 -14h-930
l-11 14h947zM694 34l18 48h272l-19 -48h-271zM133 34l18 48h271l-18 -48h-271zM719 100l17 45h272l-17 -45h-272zM158 100l17 45h271l-17 -45h-271zM847 433l10 27h272l-11 -27h-271zM286 433l10 27h271l-10 -27h-271zM952 0h-271l7 19h271zM391 0h-271l7 19h271zM734 700
l-4 11h215l4 -11h-215zM712 765l-3 9h217l3 -9h-217z" />
    <glyph glyph-name="FL00E1h" unicode="&#xe1;" horiz-adv-x="990" 
d="M209 233l14 38h833l-15 -38h-832zM234 300l13 34h833l-13 -34h-833zM470 207l-15 -40h-271l15 41h833l-16 -41h-271l15 40h-290zM311 499l9 24h833l-9 -24h-833zM532 367h290l11 30h271l-12 -31h-832l12 31h271zM318 566l-16 19h874l-7 -19h-851zM1200 646l-6 -14h-930
l-11 14h947zM694 34l18 48h272l-19 -48h-271zM133 34l18 48h271l-18 -48h-271zM719 100l17 45h272l-17 -45h-272zM158 100l17 45h271l-17 -45h-271zM847 433l10 27h272l-11 -27h-271zM286 433l10 27h271l-10 -27h-271zM952 0h-271l7 19h271zM391 0h-271l7 19h271zM870 700
h-215l11 11h216zM724 765l9 9h218l-10 -9h-217z" />
    <glyph glyph-name="FL00E2h" unicode="&#xe2;" horiz-adv-x="990" 
d="M209 233l14 38h833l-15 -38h-832zM234 300l13 34h833l-13 -34h-833zM745 167l15 40h-290l-15 -40h-271l15 41h833l-16 -41h-271zM311 499l9 24h833l-9 -24h-833zM532 367h290l11 30h271l-12 -31h-832l12 31h271zM318 566l-16 19h874l-7 -19h-851zM253 646h947l-6 -14
h-930zM694 34l18 48h272l-19 -48h-271zM133 34l18 48h271l-18 -48h-271zM719 100l17 45h272l-17 -45h-272zM158 100l17 45h271l-17 -45h-271zM847 433l10 27h272l-11 -27h-271zM286 433l10 27h271l-10 -27h-271zM952 0h-271l7 19h271zM391 0h-271l7 19h271zM746 700h-215
l11 11h216zM864 700l-4 11h214l4 -11h-214zM600 765l9 9h218l-10 -9h-217zM843 765l-3 9h214l3 -9h-214z" />
    <glyph glyph-name="FL00E3h" unicode="&#xe3;" horiz-adv-x="990" 
d="M209 233l14 38h833l-15 -38h-832zM234 300l13 34h833l-13 -34h-833zM745 167l15 40h-290l-15 -40h-271l15 41h833l-16 -41h-271zM311 499l9 24h833l-9 -24h-833zM532 367h290l11 30h271l-12 -31h-832l12 31h271zM318 566l-16 19h874l-7 -19h-851zM253 646h947l-6 -14
h-930zM694 34l18 48h272l-19 -48h-271zM133 34l18 48h271l-18 -48h-271zM719 100l17 45h272l-17 -45h-272zM158 100l17 45h271l-17 -45h-271zM847 433l10 27h272l-11 -27h-271zM286 433l10 27h271l-10 -27h-271zM391 0h-271l7 19h271zM952 0h-271l7 19h271zM1078 700h-288
l-4 11h303zM672 700h-215l11 11h216zM526 765l9 9h218l-10 -9h-217zM930 765l10 9h216l-9 -9h-217zM769 765l-3 9h127l3 -9h-127z" />
    <glyph glyph-name="FL00E4h" unicode="&#xe4;" horiz-adv-x="990" 
d="M209 233l14 38h833l-15 -38h-832zM234 300l13 34h833l-13 -34h-833zM470 207l-15 -40h-271l15 41h833l-16 -41h-271l15 40h-290zM311 499l9 24h833l-9 -24h-833zM532 367h290l11 30h271l-12 -31h-832l12 31h271zM318 566l-16 19h874l-7 -19h-851zM1200 646l-6 -14h-930
l-11 14h947zM694 34l18 48h272l-19 -48h-271zM133 34l18 48h271l-18 -48h-271zM719 100l17 45h272l-17 -45h-272zM158 100l17 45h271l-17 -45h-271zM847 433l10 27h272l-11 -27h-271zM286 433l10 27h271l-10 -27h-271zM952 0h-271l7 19h271zM391 0h-271l7 19h271zM531 700
l4 11h215l-4 -11h-215zM863 700l4 11h215l-4 -11h-215zM887 765l4 9h215l-4 -9h-215zM555 765l4 9h215l-4 -9h-215z" />
    <glyph glyph-name="FL00E5h" unicode="&#xe5;" horiz-adv-x="990" 
d="M209 233l14 38h833l-15 -38h-832zM234 300l13 34h833l-13 -34h-833zM745 167l15 40h-290l-15 -40h-271l15 41h833l-16 -41h-271zM311 499l9 24h833l-9 -24h-833zM532 367h290l11 30h271l-12 -31h-832l12 31h271zM318 566l-16 19h874l-7 -19h-851zM253 646h947l-6 -14
h-930zM694 34l18 48h272l-19 -48h-271zM133 34l18 48h271l-18 -48h-271zM719 100l17 45h272l-17 -45h-272zM158 100l17 45h271l-17 -45h-271zM847 433l10 27h272l-11 -27h-271zM286 433l10 27h271l-10 -27h-271zM391 0h-271l7 19h271zM952 0h-271l7 19h271zM909 700h-215
l4 11h215zM718 765l4 9h75l-4 -9h-75zM859 765l4 9h74l-4 -9h-74z" />
    <glyph glyph-name="FL00E6h" unicode="&#xe6;" horiz-adv-x="1508" 
d="M1562 243h-517l-4 -10h-832l14 38h1350zM234 300l13 34h1350l-13 -34h-1350zM693 34l18 48h789l-19 -48h-788zM718 100l17 45h789l-17 -45h-789zM532 367h289l11 30h789l-12 -31h-1349l12 31h271zM311 499l9 24h1349l-9 -24h-1349zM318 566l-16 19h1391l-7 -19h-1368z
M744 167l15 40h-289l-15 -40h-271l15 41h832l-16 -41h-271zM253 646h1464l-6 -14h-1447zM1469 0h-789l7 19h789zM133 34l18 48h271l-18 -48h-271zM158 100l17 45h271l-17 -45h-271zM846 433l10 27h272l-10 -27h-272zM286 433l10 27h271l-10 -27h-271zM391 0h-271l7 19h271z
" />
    <glyph glyph-name="FL00E7h" unicode="&#xe7;" horiz-adv-x="948" 
d="M133 34l18 48h789l-19 -48h-788zM158 100l17 45h789l-17 -45h-789zM481 -33l13 33h-374l7 19h789l-7 -19h-271l-13 -33h-144zM311 499l9 24h789l-9 -24h-789zM301 -166l23 59h272l-22 -59h-273zM318 566l-16 19h831l-7 -19h-808zM343 -58h129l5 14h144l-22 -55h-272z
M253 646h904l-6 -14h-887zM184 167l15 41h271l-16 -41h-270zM209 233l14 38h271l-14 -38h-271zM234 300l13 34h271l-13 -34h-271zM260 366l12 31h271l-12 -31h-271zM286 433l10 27h271l-10 -27h-271z" />
    <glyph glyph-name="FL00E8h" unicode="&#xe8;" horiz-adv-x="948" 
d="M133 34l18 48h789l-19 -48h-788zM158 100l17 45h789l-17 -45h-789zM234 300l13 34h790l-13 -34h-790zM484 243l-4 -10h-271l14 38h790l-11 -28h-518zM260 366l12 31h789l-12 -31h-789zM311 499l9 24h789l-9 -24h-789zM318 566l-16 19h831l-7 -19h-808zM909 0h-789l7 19
h789zM1157 646l-6 -14h-887l-11 14h904zM184 167l15 41h271l-16 -41h-270zM286 433l10 27h271l-10 -27h-271zM701 700l-4 11h215l4 -11h-215zM679 765l-3 9h217l3 -9h-217z" />
    <glyph glyph-name="FL00E9h" unicode="&#xe9;" horiz-adv-x="948" 
d="M133 34l18 48h789l-19 -48h-788zM158 100l17 45h789l-17 -45h-789zM234 300l13 34h790l-13 -34h-790zM484 243l-4 -10h-271l14 38h790l-11 -28h-518zM260 366l12 31h789l-12 -31h-789zM311 499l9 24h789l-9 -24h-789zM318 566l-16 19h831l-7 -19h-808zM909 0h-789l7 19
h789zM1157 646l-6 -14h-887l-11 14h904zM184 167l15 41h271l-16 -41h-270zM286 433l10 27h271l-10 -27h-271zM858 700h-215l11 11h216zM712 765l9 9h218l-10 -9h-217z" />
    <glyph glyph-name="FL00EAh" unicode="&#xea;" horiz-adv-x="948" 
d="M133 34l18 48h789l-19 -48h-788zM158 100l17 45h789l-17 -45h-789zM234 300l13 34h790l-13 -34h-790zM1002 243h-518l-4 -10h-271l14 38h790zM260 366l12 31h789l-12 -31h-789zM311 499l9 24h789l-9 -24h-789zM318 566l-16 19h831l-7 -19h-808zM909 0h-789l7 19h789z
M253 646h904l-6 -14h-887zM184 167l15 41h271l-16 -41h-270zM286 433l10 27h271l-10 -27h-271zM728 700h-215l11 11h216zM846 700l-4 11h214l4 -11h-214zM582 765l9 9h218l-10 -9h-217zM825 765l-3 9h214l3 -9h-214z" />
    <glyph glyph-name="FL00EBh" unicode="&#xeb;" horiz-adv-x="948" 
d="M133 34l18 48h789l-19 -48h-788zM158 100l17 45h789l-17 -45h-789zM234 300l13 34h790l-13 -34h-790zM484 243l-4 -10h-271l14 38h790l-11 -28h-518zM260 366l12 31h789l-12 -31h-789zM311 499l9 24h789l-9 -24h-789zM318 566l-16 19h831l-7 -19h-808zM909 0h-789l7 19
h789zM1157 646l-6 -14h-887l-11 14h904zM184 167l15 41h271l-16 -41h-270zM286 433l10 27h271l-10 -27h-271zM512 700l4 11h215l-4 -11h-215zM844 700l4 11h215l-4 -11h-215zM868 765l4 9h215l-4 -9h-215zM536 765l4 9h215l-4 -9h-215z" />
    <glyph glyph-name="FL00ECh" unicode="&#xec;" horiz-adv-x="430" 
d="M133 34l18 48h272l-19 -48h-271zM158 100l17 45h272l-17 -45h-272zM184 167l15 41h272l-16 -41h-271zM209 233l14 38h272l-15 -38h-271zM234 300l13 34h272l-13 -34h-272zM260 366l12 31h271l-12 -31h-271zM286 433l10 27h272l-11 -27h-271zM311 499l9 24h272l-9 -24
h-272zM318 566l-16 19h313l-7 -19h-290zM639 646l-6 -14h-369l-11 14h386zM391 0h-271l7 19h271zM418 700l-4 11h215l4 -11h-215zM396 765l-3 9h217l3 -9h-217z" />
    <glyph glyph-name="FL00EDh" unicode="&#xed;" horiz-adv-x="430" 
d="M133 34l18 48h272l-19 -48h-271zM158 100l17 45h272l-17 -45h-272zM184 167l15 41h272l-16 -41h-271zM209 233l14 38h272l-15 -38h-271zM234 300l13 34h272l-13 -34h-272zM260 366l12 31h271l-12 -31h-271zM286 433l10 27h272l-11 -27h-271zM311 499l9 24h272l-9 -24
h-272zM318 566l-16 19h313l-7 -19h-290zM639 646l-6 -14h-369l-11 14h386zM391 0h-271l7 19h271zM571 700h-215l11 11h216zM425 765l9 9h218l-10 -9h-217z" />
    <glyph glyph-name="FL00EEh" unicode="&#xee;" horiz-adv-x="430" 
d="M133 34l18 48h272l-19 -48h-271zM158 100l17 45h272l-17 -45h-272zM184 167l15 41h272l-16 -41h-271zM209 233l14 38h272l-15 -38h-271zM234 300l13 34h272l-13 -34h-272zM260 366l12 31h271l-12 -31h-271zM286 433l10 27h272l-11 -27h-271zM311 499l9 24h272l-9 -24
h-272zM318 566l-16 19h313l-7 -19h-290zM253 646h386l-6 -14h-369zM120 0l7 19h271l-7 -19h-271zM444 700h-215l11 11h216zM562 700l-4 11h214l4 -11h-214zM298 765l9 9h218l-10 -9h-217zM541 765l-3 9h214l3 -9h-214z" />
    <glyph glyph-name="FL00EFh" unicode="&#xef;" horiz-adv-x="430" 
d="M133 34l18 48h272l-19 -48h-271zM158 100l17 45h272l-17 -45h-272zM184 167l15 41h272l-16 -41h-271zM209 233l14 38h272l-15 -38h-271zM234 300l13 34h272l-13 -34h-272zM260 366l12 31h271l-12 -31h-271zM286 433l10 27h272l-11 -27h-271zM311 499l9 24h272l-9 -24
h-272zM318 566l-16 19h313l-7 -19h-290zM639 646l-6 -14h-369l-11 14h386zM391 0h-271l7 19h271zM230 700l4 11h215l-4 -11h-215zM562 700l4 11h215l-4 -11h-215zM586 765l4 9h215l-4 -9h-215zM254 765l4 9h215l-4 -9h-215z" />
    <glyph glyph-name="FL00F0h" unicode="&#xf0;" horiz-adv-x="990" 
d="M132 34l19 48h834l-19 -48h-834zM158 100l17 45h834l-17 -45h-834zM483 243l-4 -10h-271l15 38h834l-15 -38h-272l4 10h-291zM234 300l13 34h834l-13 -34h-834zM259 366l12 31h834l-12 -31h-834zM367 499l-19 24h806l-9 -24h-778zM315 566l-15 19h877l-7 -19h-855zM953 0
h-834l7 19h834zM253 646h948l-6 -14h-931zM744 167l16 41h273l-16 -41h-273zM183 167l16 41h270l-16 -41h-270zM847 433l10 27h273l-11 -27h-272z" />
    <glyph glyph-name="FL00F1h" unicode="&#xf1;" 
d="M234 300l13 34h833l-13 -34h-833zM535 233l-24 38h545l-15 -38h-506zM576 167l-26 41h482l-16 -41h-440zM618 100l-28 45h418l-17 -45h-373zM260 366l12 31h523l19 -31h-554zM659 34l-30 48h355l-19 -48h-306zM133 34l18 48h271l-18 -48h-271zM286 433l10 27h460l17 -27
h-487zM158 100l17 45h271l-17 -45h-271zM184 167l15 41h271l-15 -41h-271zM209 233l14 38h272l-15 -38h-271zM311 499l9 24h396l15 -24h-420zM821 366l12 31h271l-12 -31h-271zM847 433l11 27h271l-11 -27h-271zM318 566l-16 19h375l12 -19h-371zM873 499l9 24h271l-9 -24
h-271zM253 646h386l9 -14h-384zM952 0h-271l-12 19h290zM898 566l7 19h271l-7 -19h-271zM120 0l7 19h271l-7 -19h-271zM923 632l6 14h271l-6 -14h-271zM1078 700h-288l-4 11h303zM672 700h-215l11 11h216zM526 765l9 9h218l-10 -9h-217zM930 765l10 9h216l-9 -9h-217z
M769 765l-3 9h127l3 -9h-127z" />
    <glyph glyph-name="FL00F2h" unicode="&#xf2;" 
d="M133 34l18 48h833l-19 -48h-832zM158 100l17 45h833l-17 -45h-833zM311 499l9 24h833l-9 -24h-833zM318 566l-16 19h874l-7 -19h-851zM952 0h-832l7 19h832zM253 646h947l-6 -14h-930zM744 167l16 41h272l-16 -41h-272zM184 167l15 41h271l-16 -41h-270zM770 233l14 38
h272l-15 -38h-271zM209 233l14 38h271l-14 -38h-271zM795 300l13 34h272l-13 -34h-272zM234 300l13 34h271l-13 -34h-271zM821 366l12 31h271l-12 -31h-271zM260 366l12 31h271l-12 -31h-271zM847 433l10 27h272l-11 -27h-271zM286 433l10 27h271l-10 -27h-271zM734 700
l-4 11h215l4 -11h-215zM712 765l-3 9h217l3 -9h-217z" />
    <glyph glyph-name="FL00F3h" unicode="&#xf3;" 
d="M133 34l18 48h833l-19 -48h-832zM158 100l17 45h833l-17 -45h-833zM311 499l9 24h833l-9 -24h-833zM318 566l-16 19h874l-7 -19h-851zM952 0h-832l7 19h832zM253 646h947l-6 -14h-930zM744 167l16 41h272l-16 -41h-272zM184 167l15 41h271l-16 -41h-270zM770 233l14 38
h272l-15 -38h-271zM209 233l14 38h271l-14 -38h-271zM795 300l13 34h272l-13 -34h-272zM234 300l13 34h271l-13 -34h-271zM821 366l12 31h271l-12 -31h-271zM260 366l12 31h271l-12 -31h-271zM847 433l10 27h272l-11 -27h-271zM286 433l10 27h271l-10 -27h-271zM870 700
h-215l11 11h216zM724 765l9 9h218l-10 -9h-217z" />
    <glyph glyph-name="FL00F5h" unicode="&#xf4;" 
d="M133 34l18 48h833l-19 -48h-832zM158 100l17 45h833l-17 -45h-833zM311 499l9 24h833l-9 -24h-833zM318 566l-16 19h874l-7 -19h-851zM952 0h-832l7 19h832zM253 646h947l-6 -14h-930zM744 167l16 41h272l-16 -41h-272zM184 167l15 41h271l-16 -41h-270zM770 233l14 38
h272l-15 -38h-271zM209 233l14 38h271l-14 -38h-271zM795 300l13 34h272l-13 -34h-272zM234 300l13 34h271l-13 -34h-271zM821 366l12 31h271l-12 -31h-271zM260 366l12 31h271l-12 -31h-271zM847 433l10 27h272l-11 -27h-271zM286 433l10 27h271l-10 -27h-271zM746 700
h-215l11 11h216zM864 700l-4 11h214l4 -11h-214zM600 765l9 9h218l-10 -9h-217zM843 765l-3 9h214l3 -9h-214z" />
    <glyph glyph-name="FL00F7h" unicode="&#xf5;" 
d="M133 34l18 48h833l-19 -48h-832zM158 100l17 45h833l-17 -45h-833zM311 499l9 24h833l-9 -24h-833zM318 566l-16 19h874l-7 -19h-851zM952 0h-832l7 19h832zM253 646h947l-6 -14h-930zM744 167l16 41h272l-16 -41h-272zM184 167l15 41h271l-16 -41h-270zM770 233l14 38
h272l-15 -38h-271zM209 233l14 38h271l-14 -38h-271zM795 300l13 34h272l-13 -34h-272zM234 300l13 34h271l-13 -34h-271zM821 366l12 31h271l-12 -31h-271zM260 366l12 31h271l-12 -31h-271zM847 433l10 27h272l-11 -27h-271zM286 433l10 27h271l-10 -27h-271zM1078 700
h-288l-4 11h303zM672 700h-215l11 11h216zM526 765l9 9h218l-10 -9h-217zM930 765l10 9h216l-9 -9h-217zM769 765l-3 9h127l3 -9h-127z" />
    <glyph glyph-name="FL00F6h" unicode="&#xf6;" 
d="M133 34l18 48h833l-19 -48h-832zM158 100l17 45h833l-17 -45h-833zM311 499l9 24h833l-9 -24h-833zM318 566l-16 19h874l-7 -19h-851zM952 0h-832l7 19h832zM253 646h947l-6 -14h-930zM744 167l16 41h272l-16 -41h-272zM184 167l15 41h271l-16 -41h-270zM770 233l14 38
h272l-15 -38h-271zM209 233l14 38h271l-14 -38h-271zM795 300l13 34h272l-13 -34h-272zM234 300l13 34h271l-13 -34h-271zM821 366l12 31h271l-12 -31h-271zM260 366l12 31h271l-12 -31h-271zM847 433l10 27h272l-11 -27h-271zM286 433l10 27h271l-10 -27h-271zM863 700
l4 11h215l-4 -11h-215zM531 700l4 11h215l-4 -11h-215zM555 765l4 9h215l-4 -9h-215zM887 765l4 9h215l-4 -9h-215z" />
    <glyph glyph-name="FL0100h" unicode="&#xf7;" horiz-adv-x="633" 
d="M155 300l13 34h589l-13 -34h-589zM180 366l12 31h589l-12 -31h-589zM722 243h-589l11 28h589zM262 100l17 45h215l-17 -45h-215zM413 499l10 24h215l-10 -24h-215zM510 188l-8 -21h-215l8 21h215zM248 64l7 18h215l-7 -18h-215zM660 580l-6 -14h-215l6 14h215zM397 456
l1 4h215l-1 -4h-215z" />
    <glyph glyph-name="FL00F8h" unicode="&#xf8;" 
d="M133 34l18 48h833l-19 -48h-832zM158 100l17 45h833l-17 -45h-833zM311 499l9 24h833l-9 -24h-833zM209 233l14 38h504l-47 -38h-471zM234 300l13 34h272l-9 -25l31 25h265l-43 -34h-529zM184 167l15 41h449l-51 -41h-413zM318 566l-16 19h874l-7 -19h-851zM952 0h-832
l7 19h832zM580 366l39 31h485l-12 -31h-512zM253 646h947l-6 -14h-930zM663 433l34 27h432l-11 -27h-455zM744 167l16 41h272l-16 -41h-272zM770 233l14 38h272l-15 -38h-271zM795 300l14 34h271l-13 -34h-272zM260 366l12 31h271l-12 -31h-271zM286 433l10 27h271l-10 -27
h-271z" />
    <glyph glyph-name="FL00F9h" unicode="&#xf9;" 
d="M133 34l18 48h833l-19 -48h-832zM158 100l17 45h833l-17 -45h-833zM952 0h-832l7 19h832zM744 167l16 41h272l-16 -41h-272zM184 167l15 41h271l-16 -41h-270zM770 233l14 38h272l-15 -38h-271zM209 233l14 38h271l-14 -38h-271zM795 300l13 34h272l-13 -34h-272z
M234 300l13 34h271l-13 -34h-271zM821 366l12 31h271l-12 -31h-271zM260 366l12 31h271l-12 -31h-271zM847 433l10 27h272l-11 -27h-271zM286 433l10 27h271l-10 -27h-271zM872 499l9 24h272l-9 -24h-272zM311 499l9 24h271l-9 -24h-271zM318 566l-16 19h313l-7 -19h-290z
M639 646l-6 -14h-369l-11 14h386zM898 566l7 19h271l-7 -19h-271zM1200 646l-6 -14h-271l6 14h271zM734 700l-4 11h215l4 -11h-215zM712 765l-3 9h217l3 -9h-217z" />
    <glyph glyph-name="FL00FAh" unicode="&#xfa;" 
d="M133 34l18 48h833l-19 -48h-832zM158 100l17 45h833l-17 -45h-833zM120 0l7 19h832l-7 -19h-832zM744 167l16 41h272l-16 -41h-272zM184 167l15 41h271l-16 -41h-270zM770 233l14 38h272l-15 -38h-271zM209 233l14 38h271l-14 -38h-271zM795 300l13 34h272l-13 -34h-272z
M234 300l13 34h271l-13 -34h-271zM821 366l12 31h271l-12 -31h-271zM260 366l12 31h271l-12 -31h-271zM847 433l10 27h272l-11 -27h-271zM286 433l10 27h271l-10 -27h-271zM872 499l9 24h272l-9 -24h-272zM311 499l9 24h271l-9 -24h-271zM318 566l-16 19h313l-7 -19h-290z
M253 646h386l-6 -14h-369zM898 566l7 19h271l-7 -19h-271zM923 632l6 14h271l-6 -14h-271zM870 700h-215l11 11h216zM724 765l9 9h218l-10 -9h-217z" />
    <glyph glyph-name="FL00FBh" unicode="&#xfb;" 
d="M133 34l18 48h833l-19 -48h-832zM158 100l17 45h833l-17 -45h-833zM120 0l7 19h832l-7 -19h-832zM744 167l16 41h272l-16 -41h-272zM184 167l15 41h271l-16 -41h-270zM770 233l14 38h272l-15 -38h-271zM209 233l14 38h271l-14 -38h-271zM795 300l13 34h272l-13 -34h-272z
M234 300l13 34h271l-13 -34h-271zM821 366l12 31h271l-12 -31h-271zM260 366l12 31h271l-12 -31h-271zM847 433l10 27h272l-11 -27h-271zM286 433l10 27h271l-10 -27h-271zM872 499l9 24h272l-9 -24h-272zM311 499l9 24h271l-9 -24h-271zM318 566l-16 19h313l-7 -19h-290z
M253 646h386l-6 -14h-369zM898 566l7 19h271l-7 -19h-271zM923 632l6 14h271l-6 -14h-271zM746 700h-215l11 11h216zM864 700l-4 11h214l4 -11h-214zM600 765l9 9h218l-10 -9h-217zM843 765l-3 9h214l3 -9h-214z" />
    <glyph glyph-name="FL00FCh" unicode="&#xfc;" 
d="M133 34l18 48h833l-19 -48h-832zM158 100l17 45h833l-17 -45h-833zM952 0h-832l7 19h832zM744 167l16 41h272l-16 -41h-272zM184 167l15 41h271l-16 -41h-270zM770 233l14 38h272l-15 -38h-271zM209 233l14 38h271l-14 -38h-271zM795 300l13 34h272l-13 -34h-272z
M234 300l13 34h271l-13 -34h-271zM821 366l12 31h271l-12 -31h-271zM260 366l12 31h271l-12 -31h-271zM847 433l10 27h272l-11 -27h-271zM286 433l10 27h271l-10 -27h-271zM872 499l9 24h272l-9 -24h-272zM311 499l9 24h271l-9 -24h-271zM318 566l-16 19h313l-7 -19h-290z
M639 646l-6 -14h-369l-11 14h386zM898 566l7 19h271l-7 -19h-271zM1200 646l-6 -14h-271l6 14h271zM863 700l4 11h215l-4 -11h-215zM531 700l4 11h215l-4 -11h-215zM887 765l4 9h215l-4 -9h-215zM555 765l4 9h215l-4 -9h-215z" />
    <glyph glyph-name="FL00FDh" unicode="&#xfd;" 
d="M350 366l-27 31h731l-51 -31h-653zM408 300l-30 34h572l-56 -34h-486zM467 233l-33 38h412l-63 -38h-316zM413 34l19 48h271l-19 -48h-271zM439 100l17 45h271l-17 -45h-271zM464 167l16 41h271l-16 -41h-271zM1120 437l-7 -4h-374l43 27h347zM291 433l-3 4l9 23h346
l22 -27h-374zM844 499l37 23v1h272l-9 -24h-300zM311 499l9 24h271v-1l19 -23h-299zM318 566l-16 19h313l-7 -19h-290zM639 646l-6 -14h-369l-11 14h386zM898 566l7 19h271l-7 -19h-271zM671 0h-271l7 19h271zM1200 646l-6 -14h-271l6 14h271zM870 700h-215l11 11h216z
M724 765l9 9h218l-10 -9h-217z" />
    <glyph glyph-name="FL00FEh" unicode="&#xfe;" horiz-adv-x="990" 
d="M992 105h-561l-2 -5h-271l17 45h832zM184 167l15 41h833l-16 -41h-832zM493 265h290l2 6h271l-15 -38h-832l14 38h272zM286 433l10 27h833l-11 -27h-832zM538 383l-7 -17h-271l12 31h832l-12 -31h-271l7 17h-290zM311 499l9 24h833l-9 -24h-833zM133 34l18 48h271
l-18 -48h-271zM234 300l13 34h272l-13 -34h-272zM796 300l13 34h271l-13 -34h-271zM318 566l-16 19h313l-7 -19h-290zM253 646h386l-6 -14h-369zM391 0h-271l7 19h271z" />
    <glyph glyph-name="FL00FFh" unicode="&#xff;" 
d="M350 366l-27 31h731l-51 -31h-653zM408 300l-30 34h572l-56 -34h-486zM467 233l-33 38h412l-63 -38h-316zM413 34l19 48h271l-19 -48h-271zM439 100l17 45h271l-17 -45h-271zM464 167l16 41h271l-16 -41h-271zM1120 437l-7 -4h-374l43 27h347zM291 433l-3 4l9 23h346
l22 -27h-374zM844 499l37 23v1h272l-9 -24h-300zM311 499l9 24h271v-1l19 -23h-299zM318 566l-16 19h313l-7 -19h-290zM639 646l-6 -14h-369l-11 14h386zM898 566l7 19h271l-7 -19h-271zM671 0h-271l7 19h271zM1200 646l-6 -14h-271l6 14h271zM531 700l4 11h215l-4 -11h-215
zM863 700l4 11h215l-4 -11h-215zM887 765l4 9h215l-4 -9h-215zM555 765l4 9h215l-4 -9h-215z" />
    <glyph glyph-name="FL0152h" unicode="&#x152;" horiz-adv-x="1495" 
d="M133 34l18 48h1336l-19 -48h-1335zM158 100l17 45h1336l-17 -45h-1336zM311 499l9 24h1336l-9 -24h-1336zM781 300l13 34h790l-13 -34h-790zM318 566l-16 19h1378l-7 -19h-1355zM1456 0h-1336l7 19h1336zM1549 243h-518l-4 -10h-271l14 38h790zM807 366l12 31h789
l-12 -31h-789zM253 646h1451l-6 -14h-1434zM730 167l16 41h271l-16 -41h-271zM184 167l15 41h271l-16 -41h-270zM209 233l14 38h271l-14 -38h-271zM234 300l13 34h271l-13 -34h-271zM260 366l12 31h271l-12 -31h-271zM833 433l10 27h271l-10 -27h-271zM286 433l10 27h271
l-10 -27h-271z" />
    <glyph glyph-name="FL0153h" unicode="&#x153;" horiz-adv-x="1495" 
d="M133 34l18 48h1336l-19 -48h-1335zM158 100l17 45h1336l-17 -45h-1336zM311 499l9 24h1336l-9 -24h-1336zM781 300l13 34h790l-13 -34h-790zM318 566l-16 19h1378l-7 -19h-1355zM1456 0h-1336l7 19h1336zM1549 243h-518l-4 -10h-271l14 38h790zM807 366l12 31h789
l-12 -31h-789zM253 646h1451l-6 -14h-1434zM730 167l16 41h271l-16 -41h-271zM184 167l15 41h271l-16 -41h-270zM209 233l14 38h271l-14 -38h-271zM234 300l13 34h271l-13 -34h-271zM260 366l12 31h271l-12 -31h-271zM833 433l10 27h271l-10 -27h-271zM286 433l10 27h271
l-10 -27h-271z" />
    <glyph glyph-name="FL0160h" unicode="&#x160;" horiz-adv-x="990" 
d="M132 34l19 48h832l-19 -48h-832zM158 100l17 45h832l-17 -45h-832zM235 300l13 34h831l-13 -34h-831zM769 233l4 10h-560l11 28h831l-15 -38h-271zM260 366l12 31h831l-12 -31h-831zM311 499l9 24h831l-9 -24h-831zM318 566l-16 19h873l-7 -19h-850zM951 0h-831l7 19h831
zM253 646h946l-6 -14h-929zM743 167l16 41h272l-16 -41h-272zM286 433l11 27h270l-10 -27h-271zM990 700h-376l-4 11h391zM842 765l10 9h216l-9 -9h-217zM593 765l-3 9h215l3 -9h-215z" />
    <glyph glyph-name="FL0161h" unicode="&#x161;" horiz-adv-x="990" 
d="M132 34l19 48h832l-19 -48h-832zM158 100l17 45h832l-17 -45h-832zM235 300l13 34h831l-13 -34h-831zM769 233l4 10h-560l11 28h831l-15 -38h-271zM260 366l12 31h831l-12 -31h-831zM311 499l9 24h831l-9 -24h-831zM318 566l-16 19h873l-7 -19h-850zM951 0h-831l7 19h831
zM253 646h946l-6 -14h-929zM743 167l16 41h272l-16 -41h-272zM286 433l11 27h270l-10 -27h-271zM990 700h-376l-4 11h391zM842 765l10 9h216l-9 -9h-217zM593 765l-3 9h215l3 -9h-215z" />
    <glyph glyph-name="FL0178h" unicode="&#x178;" 
d="M350 366l-27 31h731l-51 -31h-653zM408 300l-30 34h572l-56 -34h-486zM467 233l-33 38h412l-63 -38h-316zM413 34l19 48h271l-19 -48h-271zM439 100l17 45h271l-17 -45h-271zM464 167l16 41h271l-16 -41h-271zM1120 437l-7 -4h-374l43 27h347zM291 433l-3 4l9 23h346
l22 -27h-374zM844 499l37 23v1h272l-9 -24h-300zM311 499l9 24h271v-1l19 -23h-299zM318 566l-16 19h313l-7 -19h-290zM639 646l-6 -14h-369l-11 14h386zM898 566l7 19h271l-7 -19h-271zM671 0h-271l7 19h271zM1200 646l-6 -14h-271l6 14h271zM531 700l4 11h215l-4 -11h-215
zM863 700l4 11h215l-4 -11h-215zM887 765l4 9h215l-4 -9h-215zM555 765l4 9h215l-4 -9h-215z" />
    <glyph glyph-name="FL0192h" unicode="&#x192;" horiz-adv-x="912" 
d="M551 244l-18 -11h-372l63 38h672l34 -38h-370zM273 366l-27 31h729l-51 -31h-651zM310 323l-10 11h571l-20 -12l19 -22h-598zM104 167l15 40l1 1h373l-66 -41h-323zM615 167l-34 41h370l-15 -41h-321zM53 34l18 48h272l-19 -48h-271zM613 34l19 48h271l-18 -48h-272z
M359 124l-9 -24h-272l17 45h297zM649 126l-16 19h294l-17 -45h-271zM1041 437l-7 -4h-374l44 27h346zM215 433l-5 6l8 21h345l22 -27h-370zM233 499l9 24h270v-1l19 -23h-298zM768 499l34 21l1 3h271l-9 -24h-297zM872 0h-271l7 19h271zM311 0h-271l7 19h271zM819 566l7 19
h271l-7 -19h-271zM258 566l7 19h271l-7 -19h-271zM560 646l-6 -14h-271l6 14h271zM1121 646l-6 -14h-271l6 14h271z" />
    <glyph glyph-name="FL02C6h" unicode="&#x2c6;" horiz-adv-x="591" 
d="M376 699l13 12h394l3 -12h-410zM304 632l17 16h216l-17 -16h-216zM592 632l-5 16h215l5 -16h-215z" />
    <glyph glyph-name="FL02DCh" unicode="&#x2dc;" horiz-adv-x="750" 
d="M715 648l3 -7l7 7h217l-17 -16h-333l-5 16h128zM376 699l13 12h306l4 -12h-323zM304 632l17 16h216l-17 -16h-216zM781 699l13 12h216l-13 -12h-216z" />
    <glyph glyph-name="FL2013h" unicode="&#x2013;" horiz-adv-x="515" 
d="M155 300l13 34h471l-13 -34h-471zM180 366l12 31h471l-12 -31h-471zM604 243h-471l11 28h471z" />
    <glyph glyph-name="FL2014h" unicode="&#x2014;" horiz-adv-x="633" 
d="M155 300l13 34h589l-13 -34h-589zM180 366l12 31h589l-12 -31h-589zM722 243h-589l11 28h589z" />
    <glyph glyph-name="FL2018h" unicode="&#x2018;" horiz-adv-x="317" 
d="M448 369h-273l10 28h273zM199 433l11 27h273l-11 -27h-273zM224 499l9 24h273l-9 -24h-273zM281 566l24 19h96l-7 -19h-113zM362 632l15 12h47l-5 -12h-57z" />
    <glyph glyph-name="FL0027h" unicode="&#x2019;" horiz-adv-x="317" 
d="M225 499l10 24h273l-10 -24h-273zM251 566l8 19h273l-8 -19h-273zM277 632l5 13h273l-5 -13h-273zM329 433l10 27h123l-33 -27h-100zM352 370h-47l10 27h70z" />
    <glyph glyph-name="FL201Ah" unicode="&#x201a;" horiz-adv-x="317" 
d="M52 34l19 48h273l-19 -48h-273zM78 100l17 45h273l-17 -45h-273zM40 0l7 19h273l-7 -19l-41 -33h-116l13 33h-129zM131 -99l21 55h107l-67 -55h-61zM172 -115h-47l3 8h54z" />
    <glyph glyph-name="FL201Ch" unicode="&#x201c;" horiz-adv-x="630" 
d="M519 433l10 27h273l-10 -27h-273zM455 370h-273l10 27h273zM206 433l10 27h273l-10 -27h-273zM768 371h-273l10 26h273zM544 499l10 24h273l-10 -24h-273zM231 499l9 24h273l-9 -24h-273zM600 566l23 19h98l-7 -19h-114zM287 566l24 19h97l-7 -19h-114zM681 632l17 14h47
l-6 -14h-58zM369 632l16 13h47l-5 -13h-58z" />
    <glyph glyph-name="FL201Dh" unicode="&#x201d;" horiz-adv-x="630" 
d="M545 499l9 24h273l-9 -24h-273zM231 499l10 24h273l-10 -24h-273zM570 566l7 19h273l-7 -19h-273zM257 566l8 19h273l-8 -19h-273zM595 632l6 14h273l-6 -14h-273zM283 632l5 13h273l-5 -13h-273zM335 433l10 27h123l-33 -27h-100zM648 433l10 27h123l-34 -27h-99z
M358 370h-47l10 27h70zM671 371h-47l10 26h69z" />
    <glyph glyph-name="FL201Eh" unicode="&#x201e;" horiz-adv-x="626" 
d="M361 34l19 48h273l-19 -48h-273zM52 34l19 48h273l-19 -48h-273zM387 100l17 45h273l-17 -45h-273zM78 100l17 45h273l-17 -45h-273zM349 0l7 19h273l-7 -19l-41 -33h-116l13 33h-129zM40 0l7 19h273l-7 -19l-41 -33h-116l13 33h-129zM440 -99l21 55h107l-67 -55h-61z
M131 -99l21 55h107l-67 -55h-61zM481 -115h-47l3 8h54zM172 -115h-47l3 8h54z" />
    <glyph glyph-name="FL2020h" unicode="&#x2020;" horiz-adv-x="566" 
d="M180 366l12 31h522l-12 -31h-522zM206 433l11 27h522l-11 -27h-522zM178 34l18 48h271l-18 -48h-271zM203 100l17 45h271l-17 -45h-271zM229 167l15 41h271l-15 -41h-271zM254 233l14 38h271l-14 -38h-271zM280 300l13 34h271l-13 -34h-271zM631 507h126l-3 -8h-522l3 8
h125l6 16h271zM436 0h-271l7 19h271zM382 566l7 19h271l-7 -19h-271zM413 646h271l-6 -14h-271z" />
    <glyph glyph-name="FL2021h" unicode="&#x2021;" horiz-adv-x="566" 
d="M104 167l16 41h522l-16 -41h-522zM129 233l15 38h522l-15 -38h-522zM180 366l12 31h522l-12 -31h-522zM615 137h-126l-14 -37h-271l14 37h-125l3 8h522zM206 433l11 27h522l-11 -27h-522zM178 34l19 48h271l-19 -48h-271zM280 300l13 34h271l-13 -34h-271zM631 507h126
l-3 -8h-522l3 8h125l6 16h271zM382 566l7 19h271l-7 -19h-271zM436 0h-271l7 19h271zM413 646h271l-6 -14h-271z" />
    <glyph glyph-name="FL2022h" unicode="&#x2022;" 
d="M133 34l18 48h833l-19 -48h-832zM158 100l17 45h833l-17 -45h-833zM184 167l15 41h833l-16 -41h-832zM209 233l14 38h833l-15 -38h-832zM234 300l13 34h833l-13 -34h-833zM260 366l12 31h832l-12 -31h-832zM286 433l10 27h833l-11 -27h-832zM311 499l9 24h833l-9 -24
h-833zM318 566l-16 19h874l-7 -19h-851zM952 0h-832l7 19h832zM253 646h947l-6 -14h-930z" />
    <glyph glyph-name="FL2026h" unicode="&#x2026;" horiz-adv-x="979" 
d="M365 34l19 48h273l-19 -48h-273zM52 34l19 48h273l-19 -48h-273zM679 34l19 48h273l-19 -48h-273zM705 100l17 45h273l-17 -45h-273zM78 100l17 45h273l-17 -45h-273zM391 100l17 45h273l-17 -45h-273zM40 0l7 19h273l-7 -19h-273zM667 0l7 19h273l-7 -19h-273zM353 0
l7 19h273l-7 -19h-273z" />
    <glyph glyph-name="FL2030h" unicode="&#x2030;" horiz-adv-x="1328" 
d="M694 202l-14 -35h-428l51 41h638l-16 -41h-172l14 35h-73zM334 233l48 38h583l-15 -38h-616zM458 34l18 48h416l-18 -48h-416zM886 34l18 48h416l-18 -48h-416zM718 323h267l-9 -23h-558l29 23h-260l4 11h541zM203 366l12 31h596l-39 -31h-569zM662 121h73l9 24h173
l-18 -45h-416l17 45h171zM1090 121h73l9 24h173l-18 -45h-416l17 45h171zM404 444h73l6 16h407l-34 -27h-627l11 27h170zM962 233l15 38h416l-15 -38h-416zM1122 202l-14 -35h-171l16 41h416l-16 -41h-172l14 35h-73zM85 34l60 48h271l-60 -48h-271zM168 100l56 45h271
l-56 -45h-271zM499 499l9 24h172l-8 -21l26 21h271l-30 -24h-440zM988 300l9 23h416l-9 -23h-416zM861 0h-416l7 19h416zM873 0l7 19h416l-7 -19h-416zM280 566l8 19h415l-7 -19h-416zM253 646h474l-6 -14h-457zM314 0h-271l24 19h271zM752 566l23 19h271l-23 -19h-271z
M255 499l9 24h171l-9 -24h-171zM834 632l18 14h271l-18 -14h-271z" />
    <glyph glyph-name="FL2039h" unicode="&#x2039;" horiz-adv-x="380" 
d="M219 233l-24 38h226l23 -38h-225zM164 323l15 11h226l-15 -11l14 -23h-226zM259 167l-25 41h217l-56 -41h-136zM223 366l43 31h226l-43 -31h-226zM316 433l37 27h170l17 -27h-224zM300 100l-27 45h91l-62 -45h-2zM407 499l33 24h44l15 -24h-92z" />
    <glyph glyph-name="FL203Ah" unicode="&#x203a;" horiz-adv-x="380" 
d="M150 233l52 38h226l-52 -38h-226zM274 323l-7 11h226l7 -11l-32 -23h-226zM149 167l-26 41h218l-56 -41h-136zM247 366l-19 31h226l19 -31h-226zM208 433l37 27h170l17 -27h-224zM190 100l-28 45h92l-62 -45h-2zM299 499l33 24h44l15 -24h-92z" />
    <glyph glyph-name="FL2122h" unicode="&#x2122;" horiz-adv-x="404" 
d="M308 699l4 12h140l-4 -12h-140zM490 566v19h40l-14 -19h-26zM585 699q7 7 15 12h37l-4 -12h-48zM536 632q2 4 4.5 7.5t5.5 8.5h32l-12 -16h-30zM315 566l7 19h25l-7 -19h-25zM519 648q-1 -3 -1 -9v-7h-28v16h29zM512 711l6 -12h-42l4 12h32zM340 632l6 16h25l-6 -16h-25z
M564 566l7 19h18l-7 -19h-18zM425 566l7 19h17l-7 -19h-17zM595 648h18l-6 -16h-18zM456 648h18l-6 -16h-18z" />
    <glyph glyph-name="FL259" horiz-adv-x="500" 
 />
    </font>
</defs>
</svg>
