<?xml version="1.0" standalone="no"?>
<!DOCTYPE svg PUBLIC "-//W3C//DTD SVG 1.1//EN" "http://www.w3.org/Graphics/SVG/1.1/DTD/svg11.dtd" >
<svg xmlns="http://www.w3.org/2000/svg" xmlns:xlink="http://www.w3.org/1999/xlink" version="1.1">
<metadata>
Created by FontForge 20170731 at Wed Apr 15 18:31:38 2015
 By Aleksey,,,
2014 Iconian Fonts - www.iconian.com
</metadata>
<defs>
<font id="Paladins3D" horiz-adv-x="1016" >
  <font-face 
    font-family="Paladins 3D"
    font-weight="400"
    font-stretch="normal"
    units-per-em="1000"
    panose-1="0 0 0 0 0 0 0 0 0 0"
    ascent="800"
    descent="-200"
    x-height="660"
    cap-height="660"
    bbox="-173 -216 1768 838"
    underline-thickness="50"
    underline-position="-175"
    unicode-range="U+0020-2122"
  />
<missing-glyph horiz-adv-x="1014" 
d="M628 0v128h-386v63h387v119l-97 189h-498v-128h335l29 -62h-365v-309h595zM990 499h-317v-128h107v-371h210v499z" />
    <glyph glyph-name=".notdef" horiz-adv-x="1014" 
d="M628 0v128h-386v63h387v119l-97 189h-498v-128h335l29 -62h-365v-309h595zM990 499h-317v-128h107v-371h210v499z" />
    <glyph glyph-name=".null" horiz-adv-x="0" 
 />
    <glyph glyph-name="nonmarkingreturn" horiz-adv-x="500" 
 />
    <glyph glyph-name="space" unicode=" " horiz-adv-x="576" 
 />
    <glyph glyph-name="space" unicode="&#xa0;" horiz-adv-x="576" 
 />
    <glyph glyph-name="FL0021h" unicode="!" horiz-adv-x="456" 
d="M180 160l-61 -160h273l61 160h-273zM484 243l155 403h-386l78 -96l-118 -307h271zM660 660l-2 -6l32 -32l-164 -425h-294l-32 32h-8l123 318l-92 113h437zM98 -14l73 188h303l-2 -6l32 -32l-70 -182h-296l-32 32h-8z" />
    <glyph glyph-name="FL0022h" unicode="&#x22;" horiz-adv-x="690" 
d="M213 471l32 -32h77l-32 -83h8l32 -32h68l145 118l4 10l12 -12h76l-32 -83h8l32 -32h68l146 118l68 179l-32 32l2 6h-303l-6 -14l-6 7l2 6h-303l-74 -188h8zM669 486h-129l61 160h273l-61 -160l-142 -115h-47zM355 485h-129l62 160h273l-62 -160l-141 -115h-47z" />
    <glyph glyph-name="FL0023h" unicode="#" horiz-adv-x="1046" 
d="M703 654l2 6h-301l-53 -139h-125l-74 -188h8l22 -22h-37l-73 -188h8l32 -32h72l-40 -105h8l32 -32h294l53 137h108l-40 -105h8l32 -32h294l53 137h126l70 182l-28 28h38l71 182l-33 32l3 6h-82l39 101l-32 32l2 6h-301l-53 -139h-110l39 101zM753 347h-184l-19 -50h184z
M815 507l53 139h271l-53 -139h126l-62 -160h-126l-19 -50h126l-61 -160h-126l-53 -137h-271l53 137h-184l-53 -137h-271l53 137h-125l61 160h125l19 50h-125l62 160h125l53 139h271l-53 -139h184z" />
    <glyph glyph-name="FL0024h" unicode="$" horiz-adv-x="1015" 
d="M172 174l-73 -188h8l32 -32h229l-53 -138h8l32 -32h294l65 170h279l164 425l-32 32l2 6h-516l8 22h560l71 183l-33 32l3 6h-235l51 132l-32 32l2 6h-301l-65 -170h-417l92 -113l-123 -318h8l32 -32h509l-9 -23h-560zM649 646l65 170h271l-65 -170h279l-62 -161h-560
l-31 -82h560l-155 -403h-279l-65 -170h-271l65 170h-281l61 160h560l32 83h-560l118 307l-78 96h396z" />
    <glyph glyph-name="FL0025h" unicode="%" horiz-adv-x="939" 
d="M277 596l-111 -287h8l32 -32h161l-364 -291h11l32 -32h307l84 68l-13 -36h8l32 -32h439l133 345l-32 32l2 6h-173l357 285l-33 33l6 5h-317l-78 -63l10 25l-32 32l2 6h-524zM509 525h-73l-32 -81h73zM767 202h-73l-32 -81h73zM187 323l106 275l-40 48h474l-55 -144
l180 144h271l-405 -323h267l-124 -323h-416l58 151l-189 -151h-271l404 323h-260z" />
    <glyph glyph-name="FL0026h" unicode="&#x26;" horiz-adv-x="1054" 
d="M517 174l9 23h175l-9 -23h-175zM107 -14l32 -32h814l93 243h114l71 182l-33 32l3 6h-590l8 22h436l71 183l-33 32l3 6h-873l92 -113l-216 -561h8zM733 243h-249l-32 -83h249zM1013 485h-436l-31 -82h634l-62 -160h-114l-93 -243h-791l211 550l-78 96h822z" />
    <glyph glyph-name="FL002Ah" unicode="'" horiz-adv-x="377" 
d="M213 471l32 -32h77l-32 -83h8l32 -32h68l145 118l69 179l-32 32l2 6h-303l-74 -188h8zM355 485h-129l62 160h273l-62 -160l-141 -115h-47z" />
    <glyph glyph-name="FL0028h" unicode="(" horiz-adv-x="570" 
d="M372 160l125 325h195l62 161h-466l-248 -646h466l61 160h-195zM59 -46l-32 32h-8l260 674h496l-3 -6l33 -32l-71 -183h-195l-102 -265h151l-2 -6l32 -32l-70 -182h-489z" />
    <glyph glyph-name="FL0029h" unicode=")" horiz-adv-x="570" 
d="M92 174l-73 -188h8l32 -32h489l257 668l-32 32l2 6h-496l-74 -189h8l32 -32h143l-101 -265h-195zM296 160l125 325h-195l62 161h466l-248 -646h-466l61 160h195z" />
    <glyph glyph-name="FL0333h" unicode="*" horiz-adv-x="377" 
d="M243 550l32 -32h296l71 182l-33 32l3 6h-303l-74 -188h8zM529 564h-273l62 160h273z" />
    <glyph glyph-name="FL002Bh" unicode="+" horiz-adv-x="540" 
d="M590 572h-190l-59 -155h-155l-74 -188h8l32 -32h102l-47 -124h8l32 -32h183l60 156h156l71 182l-33 32l3 6h-112l45 117l-32 32zM409 558h160l-59 -155h156l-62 -160h-156l-60 -156h-160l60 156h-155l62 160h155z" />
    <glyph glyph-name="FL002Ch" unicode="," horiz-adv-x="377" 
d="M27 -14l32 -32h77l-32 -83h8l32 -32h68l145 118l68 179l-32 32l2 6h-303l-73 -188h8zM169 0h-129l61 160h273l-61 -160l-141 -115h-47z" />
    <glyph glyph-name="FL002Dh" unicode="-" horiz-adv-x="540" 
d="M666 403h-471l-62 -160h471zM186 417h501l-3 -6l33 -32l-71 -182h-494l-32 32h-8z" />
    <glyph glyph-name="FL002Eh" unicode="." horiz-adv-x="377" 
d="M101 160l-61 -160h273l61 160h-273zM19 -14l73 188h303l-2 -6l32 -32l-70 -182h-296l-32 32h-8z" />
    <glyph glyph-name="FL002Fh" unicode="/" horiz-adv-x="936" 
d="M1120 646h-271l-809 -646h271zM844 660h316l-6 -5l33 -33l-837 -668h-307l-32 32h-11z" />
    <glyph glyph-name="FL0030h" unicode="0" 
d="M517 174l102 265h215l-101 -265h-216zM315 547l-216 -561h8l32 -32h855l257 668l-32 32l2 6h-998zM867 485h-290l-125 -325h290zM120 0l211 550l-78 96h947l-248 -646h-832z" />
    <glyph glyph-name="FL0031h" unicode="1" horiz-adv-x="516" 
d="M120 160l-61 -160h393l61 160h-61l187 486h-386l78 -96l-150 -390h-61zM38 -14l73 188h61l143 373l-92 113h437l-2 -6l32 -32l-173 -448h17l-2 -6l32 -32l-70 -182h-416l-32 32h-8z" />
    <glyph glyph-name="FL0032h" unicode="2" horiz-adv-x="1015" 
d="M1046 243l155 403h-948l78 -96l-25 -65h561l-31 -82h-562l-155 -403h831l61 160h-560l32 83h563zM1222 660l-2 -6l32 -32l-164 -425h-563l-9 -23h516l-2 -6l32 -32l-70 -182h-854l-32 32h-8l167 431h561l8 22h-509l-32 32h-8l30 76l-92 113h999z" />
    <glyph glyph-name="FL0034h" unicode="3" horiz-adv-x="1015" 
d="M953 0l248 646h-948l125 -161h489l-31 -82h-562l-62 -160h562l-32 -83h-562l-61 -160h834zM1222 660l-2 -6l32 -32l-257 -668h-857l-32 32h-8l73 188h562l9 23h-511l-32 32h-8l74 188h561l8 22h-427l-32 32h-4l-147 189h998z" />
    <glyph glyph-name="FL0035h" unicode="4" 
d="M315 547l-123 -318h8l32 -32h509l-81 -211h8l32 -32h294l257 668l-32 32l2 6h-301l-93 -243h-216l79 205l-32 32l2 6h-437zM213 243l118 307l-78 96h386l-93 -243h290l93 243h271l-248 -646h-271l93 243h-561z" />
    <glyph glyph-name="FL0036h" unicode="5" horiz-adv-x="1015" 
d="M1125 411l2 6h-516l8 22h414l71 183l-33 32l3 6h-851l92 -113l-123 -318h8l32 -32h509l-9 -23h-560l-73 -188h8l32 -32h854l164 425zM1106 403l-155 -403h-831l61 160h560l32 83h-560l118 307l-78 96h800l-62 -161h-414l-31 -82h560z" />
    <glyph glyph-name="FL0037h" unicode="6" horiz-adv-x="1015" 
d="M452 160l32 83h290l-32 -83h-290zM546 403l31 82h561l62 161h-947l78 -96l-211 -550h832l155 403h-561zM139 -46l-32 32h-8l216 561l-92 113h998l-3 -6l33 -32l-71 -183h-561l-8 -22h517l-2 -6l32 -32l-164 -425h-855zM526 197l-9 -23h216l9 23h-216z" />
    <glyph glyph-name="FL0038h" unicode="7" horiz-adv-x="1015" 
d="M1136 485l62 161h-945l130 -161h379l-643 -485h371zM1219 660l-2 -6l32 -32l-69 -180l-651 -488h-409l-32 32h-12l601 453h-265l-32 32h-4l-153 189h996z" />
    <glyph glyph-name="FL0062h" unicode="8" horiz-adv-x="1015" 
d="M452 160l32 83h290l-32 -83h-290zM546 403l31 82h290l-31 -82h-290zM331 550l-211 -550h832l248 646h-947zM99 -14l216 561l-92 113h998l-2 -6l32 -32l-257 -668h-855l-32 32h-8zM526 197l-9 -23h216l9 23h-216zM619 439l-8 -22h215l8 22h-215z" />
    <glyph glyph-name="FL0039h" unicode="9" horiz-adv-x="1015" 
d="M546 403l31 82h290l-31 -82h-290zM213 243h561l-32 -83h-561l-61 -160h832l248 646h-947l78 -96zM99 -14l73 188h561l9 23h-510l-32 32h-8l123 318l-92 113h998l-2 -6l32 -32l-257 -668h-855l-32 32h-8zM619 439l-8 -22h215l8 22h-215z" />
    <glyph glyph-name="FL003Ah" unicode=":" horiz-adv-x="378" 
d="M226 485l-61 -160h273l61 160h-273zM102 160l-61 -160h273l61 160h-273zM20 -14l73 188h303l-2 -6l32 -32l-70 -182h-296l-32 32h-8zM144 311l73 188h303l-2 -6l32 -32l-70 -182h-296l-32 32h-8z" />
    <glyph glyph-name="FL003Bh" unicode=";" horiz-adv-x="378" 
d="M518 493l2 6h-303l-73 -188h8l32 -32h296l70 182zM28 -14l32 -32h77l-32 -83h8l32 -32h68l145 118l68 179l-32 32l2 6h-303l-73 -188h8zM170 0h-129l61 160h273l-61 -160l-141 -115h-47zM499 485l-61 -160h-273l61 160h273z" />
    <glyph glyph-name="FL003Ch" unicode="&#x3c;" horiz-adv-x="656" 
d="M564 660l-418 -333l166 -341h5l32 -32h296l-161 330l423 338l-33 33l6 5h-316zM164 323l405 323h271l-405 -323l157 -323h-271z" />
    <glyph glyph-name="FL003Dh" unicode="=" horiz-adv-x="588" 
d="M754 507h-519l-62 -160h519zM673 297h-519l-61 -160h519zM226 521h549l-3 -6l33 -32l-71 -182h-38l28 -28l-70 -182h-542l-32 32h-8l73 188h37l-22 22h-8z" />
    <glyph glyph-name="FL003Eh" unicode="&#x3e;" horiz-adv-x="621" 
d="M716 323l-157 323h-271l157 -323l-405 -323h271zM568 660l4 -10l29 -28l164 -337l-415 -331h-307l-32 32h-11l427 340l-162 334h303z" />
    <glyph glyph-name="FL003Fh" unicode="?" horiz-adv-x="1015" 
d="M180 160l-61 -160h273l61 160h-273zM1046 243l155 403h-948l78 -96l-25 -65h561l-31 -82h-562l-62 -160h834zM1222 660l-2 -6l32 -32l-164 -425h-857l-32 32h-8l74 188h561l8 22h-509l-32 32h-8l30 76l-92 113h999zM98 -14l73 188h303l-2 -6l32 -32l-70 -182h-296l-32 32
h-8z" />
    <glyph glyph-name="FL0040h" unicode="@" horiz-adv-x="1164" 
d="M999 489l3 6h-441l12 32h479l-25 -65zM-8 -105l32 -32h847l70 182l-32 32l2 6h-509l24 61h2l32 -32h778l230 598l-32 32l2 6h-1125l-329 -853h8zM762 360h-73l-31 -81h73zM971 280l113 293h-553l-194 -504h553l-61 -160h-824l317 825h1095l-221 -576h-755l124 323h416
l-78 -201h68z" />
    <glyph glyph-name="FL0041h" unicode="A" horiz-adv-x="1015" 
d="M532 367l45 118h290l-45 -118h-290zM952 0l248 646h-947l78 -96l-211 -550h271l79 207h290l-79 -207h271zM1221 660l-2 -6l32 -32l-257 -668h-294l-32 32h-8l67 175h-215l-79 -207h-294l-32 32h-8l216 561l-92 113h998zM619 439l-22 -58h216l22 58h-216z" />
    <glyph glyph-name="FL0042h" unicode="B" 
d="M688 403h-142l31 82h248zM452 160l32 83h289l-32 -83h-289zM331 550l-211 -550h831l124 322h-145l190 115l80 209h-947zM99 -14l216 561l-92 113h998l-2 -6l32 -32l-87 -227l-98 -59h30l-2 -6l32 -32l-133 -344h-854l-32 32h-8zM526 197l-9 -23h215l9 23h-215zM619 439
l-8 -22h71l37 22h-100z" />
    <glyph glyph-name="FL0043h" unicode="C" horiz-adv-x="1013" 
d="M452 160l125 325h558l62 161h-944l78 -96l-211 -550h829l61 160h-558zM139 -46l-32 32h-8l216 561l-92 113h995l-3 -6l33 -32l-71 -183h-558l-102 -265h514l-2 -6l32 -32l-70 -182h-852z" />
    <glyph glyph-name="FL0044h" unicode="D" 
d="M577 485h290l-79 -205l-190 -120h-146zM331 550l-211 -550h583l324 195l173 451h-947zM99 -14l216 561l-92 113h998l-2 -6l32 -32l-180 -469l-330 -199h-602l-32 32h-8zM619 439l-102 -265h75l185 117l57 148h-215z" />
    <glyph glyph-name="FL0045h" unicode="E" 
d="M546 403l31 82h561l62 161h-947l78 -96l-211 -550h832l61 160h-561l32 83h561l62 160h-561zM139 -46l-32 32h-8l216 561l-92 113h998l-3 -6l33 -32l-71 -183h-561l-8 -22h517l-3 -6l33 -32l-71 -182h-561l-9 -23h517l-2 -6l32 -32l-70 -182h-855z" />
    <glyph glyph-name="FL0046h" unicode="F" horiz-adv-x="1015" 
d="M546 403l31 82h560l62 161h-946l78 -96l-211 -550h271l93 243h560l62 160h-560zM139 -46l-32 32h-8l216 561l-92 113h997l-3 -6l33 -32l-71 -183h-560l-8 -22h516l-3 -6l33 -32l-71 -182h-560l-93 -243h-294z" />
    <glyph glyph-name="FL0047h" unicode="G" horiz-adv-x="1015" 
d="M120 0h831l155 403h-407l-62 -160h136l-32 -83h-289l125 325h560l62 161h-946l78 -96zM656 197l-32 32h-8l74 188h437l-2 -6l32 -32l-164 -425h-854l-32 32h-8l216 561l-92 113h997l-3 -6l33 -32l-71 -183h-560l-102 -265h215l9 23h-85z" />
    <glyph glyph-name="FL0048h" unicode="H" 
d="M253 646l78 -96l-211 -550h271l93 243h290l-93 -243h271l248 646h-271l-93 -243h-290l93 243h-386zM690 622l-79 -205h216l93 243h301l-2 -6l32 -32l-257 -668h-294l-32 32h-8l81 211h-215l-93 -243h-294l-32 32h-8l216 561l-92 113h437l-2 -6z" />
    <glyph glyph-name="FL0049h" unicode="I" horiz-adv-x="455" 
d="M253 646l78 -96l-211 -550h271l248 646h-386zM139 -46l-32 32h-8l216 561l-92 113h437l-2 -6l32 -32l-257 -668h-294z" />
    <glyph glyph-name="FL00BEh" unicode="J" 
d="M565 411l2 6h-437l92 -113l-123 -318h8l32 -32h855l257 668l-32 32l2 6h-437l92 -113l-143 -373h-216l80 205zM742 160l150 390l-78 96h386l-248 -646h-832l118 307l-78 96h386l-94 -243h290z" />
    <glyph glyph-name="FL004Bh" unicode="K" 
d="M253 646l78 -96l-211 -550h271l93 243h143l101 -117l-48 -126h271l80 209l-101 113l190 115l80 209h-271l-48 -126l-193 -117h-142l93 243h-386zM690 622l-79 -205h71l188 114l50 129h301l-2 -6l32 -32l-87 -227l-182 -111l65 -73v-1l31 -34l-85 -222h-294l-32 32h-8
l53 138l-64 73h-122l-93 -243h-294l-32 32h-8l216 561l-92 113h437l-2 -6z" />
    <glyph glyph-name="FL004Ch" unicode="L" horiz-adv-x="938" 
d="M452 160l187 486h-386l78 -96l-211 -550h789l61 160h-518zM660 660l-2 -6l32 -32l-173 -448h474l-2 -6l32 -32l-70 -182h-812l-32 32h-8l216 561l-92 113h437z" />
    <glyph glyph-name="FL004Dh" unicode="M" horiz-adv-x="1354" 
d="M253 646l78 -96l-211 -550h271l187 486h178l-187 -486h271l187 486h179l-187 -486h271l248 646h-1285zM139 -46l-32 32h-8l216 561l-92 113h1336l-2 -6l32 -32l-257 -668h-294l-32 32h-8l174 454h-103l-187 -486h-294l-32 32h-8l174 454h-102l-187 -486h-294z" />
    <glyph glyph-name="FL004Eh" unicode="N" 
d="M253 646l78 -96l-211 -550h271l111 289l183 -289h267l248 646h-271l-111 -289l-183 289h-382zM651 646l25 -24l142 -226l102 264h301l-2 -6l32 -32l-257 -668h-280l-32 32h-5l-145 227l-99 -259h-294l-32 32h-8l216 561l-92 113h420z" />
    <glyph glyph-name="FL004Fh" unicode="O" 
d="M517 174l102 265h215l-101 -265h-216zM315 547l-216 -561h8l32 -32h855l257 668l-32 32l2 6h-998zM867 485h-290l-125 -325h290zM120 0l211 550l-78 96h947l-248 -646h-832z" />
    <glyph glyph-name="FL0050h" unicode="P" horiz-adv-x="1015" 
d="M532 367l45 118h290l-45 -118h-290zM1031 207l169 439h-947l78 -96l-211 -550h271l79 207h561zM1221 660l-2 -6l32 -32l-178 -461h-561l-79 -207h-294l-32 32h-8l216 561l-92 113h998zM619 439l-22 -58h216l22 58h-216z" />
    <glyph glyph-name="FL0051h" unicode="Q" 
d="M577 485h290l-80 -209l-335 -116zM331 550l-211 -550h474l40 -134h272l-38 134h84l248 646h-947zM99 -14l216 561l-92 113h998l-2 -6l32 -32l-257 -668h-76l38 -134h-296l-32 32h-5l-31 102h-453l-32 32h-8zM619 439l-92 -239l249 87l58 152h-215z" />
    <glyph glyph-name="FL0052h" unicode="R" horiz-adv-x="1015" 
d="M538 384l39 101h290l-39 -101h-290zM1038 224l162 422h-947l78 -96l-211 -550h271l86 224h136l66 -224h272l-62 224h149zM1221 660l-2 -6l32 -32l-171 -444h-141l62 -224h-296l-32 32h-5l-57 192h-92l-86 -224h-294l-32 32h-8l216 561l-92 113h998zM619 439l-16 -41h216
l15 41h-215z" />
    <glyph glyph-name="FL0053h" unicode="S" horiz-adv-x="1015" 
d="M120 0h831l155 403h-560l31 82h560l62 161h-946l78 -96l-118 -307h560l-32 -83h-560zM619 439l-8 -22h516l-2 -6l32 -32l-164 -425h-854l-32 32h-8l73 188h560l9 23h-509l-32 32h-8l123 318l-92 113h997l-3 -6l33 -32l-71 -183h-560z" />
    <glyph glyph-name="FL0054h" unicode="T" horiz-adv-x="973" 
d="M253 646l124 -161h181l-186 -485h271l186 485h266l62 161h-904zM370 471l-146 189h954l-3 -6l33 -32l-71 -183h-266l-186 -485h-294l-32 32h-8l174 453h-119l-32 32h-4z" />
    <glyph glyph-name="FL0055h" unicode="U" 
d="M253 646l78 -96l-211 -550h832l248 646h-271l-187 -486h-290l187 486h-386zM690 622l-173 -448h216l187 486h301l-2 -6l32 -32l-257 -668h-855l-32 32h-8l216 561l-92 113h437l-2 -6z" />
    <glyph glyph-name="FL0056h" unicode="V" 
d="M1028 197l172 449h-271l-141 -366l-190 -119l-100 119l141 366h-386l78 -96l-135 -353l290 -332zM1221 660l-2 -6l32 -32l-179 -467l-553 -339l-33 33l-2 -2l-303 348l134 352l-92 113h437l-2 -6l32 -32l-145 -375l56 -68l176 112l143 369h301z" />
    <glyph glyph-name="FL0057h" unicode="W" horiz-adv-x="1354" 
d="M331 550l-211 -550h1170l248 646h-271l-187 -486h-179l187 486h-271l-187 -486h-178l187 486h-386zM99 -14l216 561l-92 113h437l-2 -6l32 -32l-173 -448h104l187 486h301l-2 -6l32 -32l-173 -448h105l187 486h301l-2 -6l32 -32l-257 -668h-1193l-32 32h-8z" />
    <glyph glyph-name="FL0058h" unicode="X" 
d="M680 0h271l80 209l-101 113l190 115l80 209h-271l-48 -126l-192 -118l-98 120l48 124h-386l78 -96l-42 -111l100 -116l-191 -116l-79 -207h271l48 124l192 120l98 -118zM690 622l-52 -133l55 -67l177 109l50 129h301l-2 -6l32 -32l-87 -227l-182 -111l65 -73v-1l31 -34
l-85 -222h-294l-32 32h-8l53 138l-56 66l-175 -109l-49 -127h-294l-32 32h-8l89 231l180 110l-93 110l41 110l-92 113h437l-2 -6z" />
    <glyph glyph-name="FL0059h" unicode="Y" 
d="M1120 437l80 209h-271l-48 -124l-190 -119l-100 119l48 124h-386l78 -96l-43 -113l195 -222l-83 -215h271l83 215zM1221 660l-2 -6l32 -32l-87 -227l-367 -223l-84 -218h-294l-32 32h-8l88 227l-194 222l42 112l-92 113h437l-2 -6l32 -32l-52 -133l56 -68l176 112l50 127
h301z" />
    <glyph glyph-name="FL005Ah" unicode="Z" horiz-adv-x="1015" 
d="M1136 485l62 161h-945l130 -161h379l-581 -324l-62 -161h831l61 160h-456zM1219 660l-2 -6l32 -32l-70 -180l-479 -268h332l-2 -6l32 -32l-70 -182h-854l-32 32h-8l72 185l479 268h-237l-32 32h-4l-153 189h996z" />
    <glyph glyph-name="FL005Bh" unicode="[" horiz-adv-x="570" 
d="M337 69l194 504h195l62 161h-466l-317 -825h466l61 160h-195zM24 -137l-32 32h-8l329 853h496l-3 -6l33 -32l-71 -183h-195l-171 -444h151l-2 -6l32 -32l-70 -182h-489z" />
    <glyph glyph-name="FL005Ch" unicode="\" horiz-adv-x="936" 
d="M568 660h-303l327 -674h5l32 -32h296l-324 668l-29 28zM288 646h271l313 -646h-271z" />
    <glyph glyph-name="FL005Dh" unicode="]" horiz-adv-x="570" 
d="M57 83l-73 -188h8l32 -32h489l326 847l-32 32l2 6h-496l-74 -189h8l32 -32h143l-170 -444h-195zM261 69l194 504h-195l62 161h466l-317 -825h-466l61 160h195z" />
    <glyph glyph-name="FL005Eh" unicode="^" horiz-adv-x="516" 
d="M546 745l-332 -242l84 -137l3 2l33 -32l140 102l45 -72l3 2l33 -32l173 126l-148 243l-25 24zM232 500l310 224l137 -224l-156 -113l-68 111l-153 -111z" />
    <glyph glyph-name="FL005Fh" unicode="_" horiz-adv-x="623" 
d="M620 160h-519l-61 -160h519zM92 174h549l-2 -6l32 -32l-70 -182h-542l-32 32h-8z" />
    <glyph glyph-name="FL0060h" unicode="`" horiz-adv-x="407" 
d="M536 724h-218l40 -124h215zM299 738h248l2 -7l31 -31l43 -146h-237l-32 32h-5z" />
    <glyph glyph-name="FL0061h" unicode="a" horiz-adv-x="1015" 
d="M532 367l45 118h290l-45 -118h-290zM952 0l248 646h-947l78 -96l-211 -550h271l79 207h290l-79 -207h271zM1221 660l-2 -6l32 -32l-257 -668h-294l-32 32h-8l67 175h-215l-79 -207h-294l-32 32h-8l216 561l-92 113h998zM619 439l-22 -58h216l22 58h-216z" />
    <glyph glyph-name="FL006Fh" unicode="b" 
d="M688 403h-142l31 82h248zM452 160l32 83h289l-32 -83h-289zM331 550l-211 -550h831l124 322h-145l190 115l80 209h-947zM99 -14l216 561l-92 113h998l-2 -6l32 -32l-87 -227l-98 -59h30l-2 -6l32 -32l-133 -344h-854l-32 32h-8zM526 197l-9 -23h215l9 23h-215zM619 439
l-8 -22h71l37 22h-100z" />
    <glyph glyph-name="FL0063h" unicode="c" horiz-adv-x="973" 
d="M452 160l125 325h518l62 161h-904l78 -96l-211 -550h789l61 160h-518zM139 -46l-32 32h-8l216 561l-92 113h955l-3 -6l33 -32l-71 -183h-518l-102 -265h474l-2 -6l32 -32l-70 -182h-812z" />
    <glyph glyph-name="FL0064h" unicode="d" 
d="M577 485h290l-79 -205l-190 -120h-146zM331 550l-211 -550h583l324 195l173 451h-947zM99 -14l216 561l-92 113h998l-2 -6l32 -32l-180 -469l-330 -199h-602l-32 32h-8zM619 439l-102 -265h75l185 117l57 148h-215z" />
    <glyph glyph-name="FL0065h" unicode="e" horiz-adv-x="973" 
d="M546 403l31 82h518l62 161h-904l78 -96l-211 -550h789l61 160h-518l32 83h518l62 160h-518zM139 -46l-32 32h-8l216 561l-92 113h955l-3 -6l33 -32l-71 -183h-518l-8 -22h474l-3 -6l33 -32l-71 -182h-518l-9 -23h474l-2 -6l32 -32l-70 -182h-812z" />
    <glyph glyph-name="FL0066h" unicode="f" horiz-adv-x="973" 
d="M546 403l31 82h518l62 161h-904l78 -96l-211 -550h271l93 243h518l62 160h-518zM139 -46l-32 32h-8l216 561l-92 113h955l-3 -6l33 -32l-71 -183h-518l-8 -22h474l-3 -6l33 -32l-71 -182h-518l-93 -243h-294z" />
    <glyph glyph-name="FL0067h" unicode="g" horiz-adv-x="1015" 
d="M120 0h831l155 403h-407l-62 -160h136l-32 -83h-289l125 325h560l62 161h-946l78 -96zM656 197l-32 32h-8l74 188h437l-2 -6l32 -32l-164 -425h-854l-32 32h-8l216 561l-92 113h997l-3 -6l33 -32l-71 -183h-560l-102 -265h215l9 23h-85z" />
    <glyph glyph-name="FL0068h" unicode="h" 
d="M253 646l78 -96l-211 -550h271l93 243h290l-93 -243h271l248 646h-271l-93 -243h-290l93 243h-386zM690 622l-79 -205h216l93 243h301l-2 -6l32 -32l-257 -668h-294l-32 32h-8l81 211h-215l-93 -243h-294l-32 32h-8l216 561l-92 113h437l-2 -6z" />
    <glyph glyph-name="FL0069h" unicode="i" horiz-adv-x="455" 
d="M253 646l78 -96l-211 -550h271l248 646h-386zM139 -46l-32 32h-8l216 561l-92 113h437l-2 -6l32 -32l-257 -668h-294z" />
    <glyph glyph-name="FL006Ah" unicode="j" 
d="M160 403l78 -96l-118 -307h832l248 646h-271l-187 -486h-290l94 243h-386zM597 379l-80 -205h216l187 486h301l-2 -6l32 -32l-257 -668h-855l-32 32h-8l123 318l-92 113h437l-2 -6z" />
    <glyph glyph-name="FL006Bh" unicode="k" 
d="M253 646l78 -96l-211 -550h271l93 243h143l101 -117l-48 -126h271l80 209l-101 113l190 115l80 209h-271l-48 -126l-193 -117h-142l93 243h-386zM690 622l-79 -205h71l188 114l50 129h301l-2 -6l32 -32l-87 -227l-182 -111l65 -73v-1l31 -34l-85 -222h-294l-32 32h-8
l53 138l-64 73h-122l-93 -243h-294l-32 32h-8l216 561l-92 113h437l-2 -6z" />
    <glyph glyph-name="FL006Ch" unicode="l" horiz-adv-x="938" 
d="M452 160l187 486h-386l78 -96l-211 -550h789l61 160h-518zM660 660l-2 -6l32 -32l-173 -448h474l-2 -6l32 -32l-70 -182h-812l-32 32h-8l216 561l-92 113h437z" />
    <glyph glyph-name="FL006Dh" unicode="m" horiz-adv-x="1354" 
d="M253 646l78 -96l-211 -550h271l187 486h178l-187 -486h271l187 486h179l-187 -486h271l248 646h-1285zM139 -46l-32 32h-8l216 561l-92 113h1336l-2 -6l32 -32l-257 -668h-294l-32 32h-8l174 454h-103l-187 -486h-294l-32 32h-8l174 454h-102l-187 -486h-294z" />
    <glyph glyph-name="FL006Eh" unicode="n" 
d="M253 646l78 -96l-211 -550h271l113 295l188 -295h260l248 646h-271l-114 -296l-187 296h-375zM644 646l25 -24l146 -232l105 270h301l-2 -6l32 -32l-257 -668h-273l-32 32h-5l-150 233l-101 -265h-294l-32 32h-8l216 561l-92 113h413z" />
    <glyph glyph-name="o" unicode="o" 
d="M517 174l102 265h215l-101 -265h-216zM315 547l-216 -561h8l32 -32h855l257 668l-32 32l2 6h-998zM867 485h-290l-125 -325h290zM120 0l211 550l-78 96h947l-248 -646h-832z" />
    <glyph glyph-name="FL00B7h" unicode="p" horiz-adv-x="1015" 
d="M532 367l45 118h290l-45 -118h-290zM1031 207l169 439h-947l78 -96l-211 -550h271l79 207h561zM1221 660l-2 -6l32 -32l-178 -461h-561l-79 -207h-294l-32 32h-8l216 561l-92 113h998zM619 439l-22 -58h216l22 58h-216z" />
    <glyph glyph-name="FL0071h" unicode="q" 
d="M577 485h290l-80 -209l-335 -116zM331 550l-211 -550h474l40 -134h272l-38 134h84l248 646h-947zM99 -14l216 561l-92 113h998l-2 -6l32 -32l-257 -668h-76l38 -134h-296l-32 32h-5l-31 102h-453l-32 32h-8zM619 439l-92 -239l249 87l58 152h-215z" />
    <glyph glyph-name="FL0072h" unicode="r" horiz-adv-x="1015" 
d="M538 384l39 101h290l-39 -101h-290zM1038 224l162 422h-947l78 -96l-211 -550h271l86 224h189l66 -224h272l-62 224h96zM1221 660l-2 -6l32 -32l-171 -444h-88l62 -224h-296l-32 32h-5l-57 192h-145l-86 -224h-294l-32 32h-8l216 561l-92 113h998zM619 439l-16 -41h216
l15 41h-215z" />
    <glyph glyph-name="FL00B9h" unicode="s" horiz-adv-x="1015" 
d="M120 0h831l155 403h-560l31 82h560l62 161h-946l78 -96l-118 -307h560l-32 -83h-560zM619 439l-8 -22h516l-2 -6l32 -32l-164 -425h-854l-32 32h-8l73 188h560l9 23h-509l-32 32h-8l123 318l-92 113h997l-3 -6l33 -32l-71 -183h-560z" />
    <glyph glyph-name="FL0074h" unicode="t" horiz-adv-x="936" 
d="M288 646l-62 -161h281l-186 -485h271l186 485h280l62 161h-832zM205 471l74 189h862l-3 -6l33 -32l-71 -183h-280l-186 -485h-294l-32 32h-8l174 453h-229l-32 32h-8z" />
    <glyph glyph-name="FL0075h" unicode="u" 
d="M253 646l78 -96l-211 -550h832l248 646h-271l-187 -486h-290l187 486h-386zM690 622l-173 -448h216l187 486h301l-2 -6l32 -32l-257 -668h-855l-32 32h-8l216 561l-92 113h437l-2 -6z" />
    <glyph glyph-name="FL00BCh" unicode="v" 
d="M1028 197l172 449h-271l-141 -366l-190 -119l-100 119l141 366h-386l78 -96l-135 -353l173 -197h334zM1221 660l-2 -6l32 -32l-179 -467l-331 -201h-341l-32 32h-4l-183 209l134 352l-92 113h437l-2 -6l32 -32l-145 -375l56 -68l176 112l143 369h301z" />
    <glyph glyph-name="FL0077h" unicode="w" horiz-adv-x="1354" 
d="M331 550l-211 -550h1170l248 646h-271l-187 -486h-179l187 486h-271l-187 -486h-178l187 486h-386zM99 -14l216 561l-92 113h437l-2 -6l32 -32l-173 -448h104l187 486h301l-2 -6l32 -32l-173 -448h105l187 486h301l-2 -6l32 -32l-257 -668h-1193l-32 32h-8z" />
    <glyph glyph-name="FL0078h" unicode="x" 
d="M680 0h271l80 209l-101 113l190 115l80 209h-271l-48 -126l-192 -118l-98 120l48 124h-386l78 -96l-42 -111l100 -116l-191 -116l-79 -207h271l48 124l192 120l98 -118zM690 622l-52 -133l55 -67l177 109l50 129h301l-2 -6l32 -32l-87 -227l-182 -111l65 -73v-1l31 -34
l-85 -222h-294l-32 32h-8l53 138l-56 66l-175 -109l-49 -127h-294l-32 32h-8l89 231l180 110l-93 110l41 110l-92 113h437l-2 -6z" />
    <glyph glyph-name="FL0079h" unicode="y" 
d="M1120 437l80 209h-271l-48 -124l-190 -119l-100 119l48 124h-386l78 -96l-43 -113l195 -222l-83 -215h271l83 215zM1221 660l-2 -6l32 -32l-87 -227l-367 -223l-84 -218h-294l-32 32h-8l88 227l-194 222l42 112l-92 113h437l-2 -6l32 -32l-52 -133l56 -68l176 112l50 127
h301z" />
    <glyph glyph-name="FL007Ah" unicode="z" horiz-adv-x="935" 
d="M1057 485l62 161h-830l-62 -161h456l-581 -324l-62 -161h831l61 160h-456zM1140 660l-2 -6l32 -32l-70 -180l-479 -268h332l-2 -6l32 -32l-70 -182h-854l-32 32h-8l72 185l479 268h-324l-32 32h-8l74 189h860z" />
    <glyph glyph-name="FL007Bh" unicode="{" horiz-adv-x="731" 
d="M186 417l-74 -188h8l32 -32h108l-115 -302h8l32 -32h489l70 182l-32 32l2 6h-151l171 444h195l71 183l-33 32l3 6h-496l-127 -331h-161zM133 243l62 160h161l127 331h466l-62 -161h-195l-194 -504h195l-61 -160h-466l128 334h-161z" />
    <glyph glyph-name="FL007Ch" unicode="|" horiz-adv-x="375" 
d="M624 816h-271l-378 -986h271zM344 830h301l-2 -6l32 -32l-387 -1008h-294l-32 32h-8z" />
    <glyph glyph-name="FL007Dh" unicode="}" horiz-adv-x="696" 
d="M760 243l62 160h-161l127 331h-466l-62 -161h195l-194 -504h-195l-61 -160h466l128 334h161zM843 417l-3 -6l33 -32l-71 -182h-161l-128 -334h-489l-32 32h-8l73 188h195l170 444h-143l-32 32h-8l74 189h496l-2 -6l32 -32l-113 -293h117z" />
    <glyph glyph-name="FL007Eh" unicode="~" horiz-adv-x="566" 
d="M484 417h-239l-139 -190h9l32 -32h171l24 32h5l32 -32h235l134 184l-33 33l4 5h-177l-28 -37l-30 31v6zM251 403h219l-2 -108l81 108h143l-118 -162h-219l2 109l-80 -109h-144z" />
    <glyph glyph-name="FL007Fh" horiz-adv-x="249" 
 />
    <glyph glyph-name="FL20ACh" horiz-adv-x="1013" 
d="M200 453l-50 -126h8l6 -6h-15l-50 -127h8l32 -32h27l-67 -176h8l32 -32h852l70 182l-32 32l2 6h-214l43 109l-12 12h16l47 120l-24 24h290l71 183l-33 32l3 6h-995l92 -113l-36 -94h-79zM171 341l38 98h80l42 111l-78 96h944l-62 -161h-558l-17 -46h300l-38 -98h-300
l-13 -34h300l-38 -99h-300l-19 -48h558l-61 -160h-829l80 208h-80l38 99h80l13 34h-80z" />
    <glyph glyph-name="FL20ACh" unicode="&#x20ac;" horiz-adv-x="1013" 
d="M200 453l-50 -126h8l6 -6h-15l-50 -127h8l32 -32h27l-67 -176h8l32 -32h852l70 182l-32 32l2 6h-214l43 109l-12 12h16l47 120l-24 24h290l71 183l-33 32l3 6h-995l92 -113l-36 -94h-79zM171 341l38 98h80l42 111l-78 96h944l-62 -161h-558l-17 -46h300l-38 -98h-300
l-13 -34h300l-38 -99h-300l-19 -48h558l-61 -160h-829l80 208h-80l38 99h80l13 34h-80z" />
    <glyph glyph-name="FL017Dh" horiz-adv-x="1015" 
d="M798 838h-241l48 -152h5l26 -26h-413l153 -189h4l32 -32h237l-479 -268l-72 -185h8l32 -32h854l70 182l-32 32l2 6h-332l479 268l70 180l-32 32l2 6h-183l149 140l-33 33l5 5h-255l-64 -59l-7 21l-31 30zM575 824h214l27 -83l91 83h215l-132 -124h-376zM383 485l-130 161
h945l-62 -161l-581 -325h456l-61 -160h-831l62 161l581 324h-379z" />
    <glyph glyph-name="FL017Dh" unicode="&#x17d;" horiz-adv-x="1015" 
d="M798 838h-241l48 -152h5l26 -26h-413l153 -189h4l32 -32h237l-479 -268l-72 -185h8l32 -32h854l70 182l-32 32l2 6h-332l479 268l70 180l-32 32l2 6h-183l149 140l-33 33l5 5h-255l-64 -59l-7 21l-31 30zM575 824h214l27 -83l91 83h215l-132 -124h-376zM383 485l-130 161
h945l-62 -161l-581 -325h456l-61 -160h-831l62 161l581 324h-379z" />
    <glyph glyph-name="FL017Eh" horiz-adv-x="935" 
d="M725 838h-241l48 -152h5l26 -26h-283l-74 -189h8l32 -32h324l-479 -268l-72 -185h8l32 -32h854l70 182l-32 32l2 6h-332l479 268l70 180l-32 32l2 6h-177l149 140l-33 33l5 5h-255l-64 -59l-7 21l-31 30zM502 824h214l27 -83l91 83h215l-132 -124h-376zM227 485l62 161
h830l-62 -161l-581 -325h456l-61 -160h-831l62 161l581 324h-456z" />
    <glyph glyph-name="FL017Eh" unicode="&#x17e;" horiz-adv-x="935" 
d="M725 838h-241l48 -152h5l26 -26h-283l-74 -189h8l32 -32h324l-479 -268l-72 -185h8l32 -32h854l70 182l-32 32l2 6h-332l479 268l70 180l-32 32l2 6h-177l149 140l-33 33l5 5h-255l-64 -59l-7 21l-31 30zM502 824h214l27 -83l91 83h215l-132 -124h-376zM227 485l62 161
h830l-62 -161l-581 -325h456l-61 -160h-831l62 161l581 324h-456z" />
    <glyph glyph-name="FL00A1h" unicode="&#xa1;" horiz-adv-x="456" 
d="M274 403l-155 -403h273l155 403h-273zM578 486l61 160h-386l78 -96l-24 -64h271zM98 -14l167 431h303l-2 -6l32 -32l-164 -425h-296l-32 32h-8zM660 660l-2 -6l32 -32l-70 -182h-294l-32 32h-8l29 75l-92 113h437z" />
    <glyph glyph-name="FL00A2h" unicode="&#xa2;" horiz-adv-x="973" 
d="M517 174l102 265h7l-101 -265h-8zM857 174l102 265h178l71 183l-33 32l3 6h-134l51 132l-32 32l2 6h-288l-65 -170h-489l92 -113l-216 -561h8l32 -32h301l-53 -138h8l32 -32h281l65 170h178l70 182l-32 32l2 6h-134zM659 485h-82l-125 -325h82zM721 646l65 170h258
l-65 -170h178l-62 -161h-178l-125 -325h178l-61 -160h-178l-65 -170h-258l65 170h-353l211 550l-78 96h468z" />
    <glyph glyph-name="FL00A3h" unicode="&#xa3;" horiz-adv-x="910" 
d="M186 417l-74 -188h8l32 -32h64l-9 -23h-115l-73 -188h8l32 -32h864l70 182l-32 32l2 6h-411l9 23h305l71 182l-33 32l3 6h-261l8 22h180l71 183l-33 32l3 6h-617l92 -113l-49 -130h-115zM133 243l62 160h115l56 147l-78 96h566l-62 -161h-180l-31 -82h305l-62 -160h-305
l-32 -83h455l-61 -160h-841l61 160h115l32 83h-115z" />
    <glyph glyph-name="FL00A4h" unicode="&#xa4;" 
d="M643 502l47 120l-32 32l2 6h-437l92 -113l-41 -110l93 -110l-180 -110l-89 -231h8l32 -32h294l49 127l60 38h169l-51 -133h8l32 -32h294l85 222l-31 34v1l-65 73l182 111l87 227l-32 32l2 6h-301l-50 -129l-48 -29h-179zM709 367h-73l-31 -81h73zM930 322l101 -113
l-80 -209h-271l48 126l-33 39h-192l-65 -41l-48 -124h-271l79 207l191 116l-100 116l42 111l-78 96h386l-48 -124l28 -34h209l53 32l48 126h271l-80 -209z" />
    <glyph glyph-name="FL00A5h" unicode="&#xa5;" 
d="M320 326l-50 -126h8l3 -3h-11l-50 -127h8l32 -32h139l-20 -52h8l32 -32h294l32 84h193l47 121l-9 9h12l47 120l-18 18l147 89l87 227l-32 32l2 6h-301l-50 -127l-176 -112l-56 68l52 133l-32 32l2 6h-437l92 -113l-42 -112l94 -109h-47zM291 214l38 98h68l-109 125
l43 113l-78 96h386l-48 -124l100 -119l190 119l48 124h271l-80 -209l-206 -125h70l-38 -98h-193l-12 -31h193l-38 -99h-193l-32 -84h-271l32 84h-191l38 99h191l12 31h-191z" />
    <glyph glyph-name="FL00A6h" unicode="&#xa6;" horiz-adv-x="456" 
d="M228 285l-109 -285h273l109 285h-273zM532 368l107 278h-386l78 -96l-70 -182h271zM660 660l-2 -6l32 -32l-116 -300h-294l-32 32h-8l75 193l-92 113h437zM98 -14l121 313h303l-2 -6l32 -32l-118 -307h-296l-32 32h-8z" />
    <glyph glyph-name="FL00A7h" unicode="&#xa7;" horiz-adv-x="937" 
d="M27 -14l32 -32h294l49 127l60 38h370l62 160l191 116l87 227l-32 32l2 6h-301l-50 -129l-48 -29h-379l-65 -168l-191 -117l-89 -231h8zM630 367h-73l-31 -81h73zM1041 437l-190 -115l-61 -157h-366l-65 -41l-48 -124h-271l79 207l191 116l63 165h376l53 32l48 126h271z
" />
    <glyph glyph-name="FL00A8h" unicode="&#xa8;" horiz-adv-x="651" 
d="M650 724l-48 -124h215l48 124h-215zM318 724l-48 -124h215l48 124h-215zM249 586l60 152h245l-3 -6l33 -32l-57 -146h-238l-32 32h-8zM581 586l60 152h245l-3 -6l33 -32l-57 -146h-238l-32 32h-8z" />
    <glyph glyph-name="FL00A9h" unicode="&#xa9;" horiz-adv-x="331" 
d="M472 658q2 -8 2 -10l-10 11q2 0 4 -0.5t4 -0.5zM431 611l10 -11l-21 6q2 2 5 2.5t6 2.5zM432 737h-8q-1 0 -7 -2v-1q-5 -2 -14 -3q-8 -2 -17.5 -4t-20.5 -4q-78 -38 -104 -108q-8 -21 -8 -45q0 -14 1 -17q7 -19 13.5 -28t17.5 -22q2 -2 4.5 -3.5t6.5 -3.5l26 -26
q25 -18 58 -18q8 0 13 0.5t11 2t16 5t27 9.5l7 4q2 1 2.5 1.5t2.5 1.5q14 8 24 15t22 20q29 33 41 60q7 15 7 35q0 15 -3 27q-2 22 -22 42l-17 16q-4 8 -10.5 14.5l-14.5 14.5q-26 17 -54 17zM417 593l16 -5q-27 -43 -70 -43q-59 0 -35 65q25 64 85 64q41 0 36 -35l-18 -4
q-2 23 -24 23q-41 0 -59 -48q-17 -45 22 -45q28 0 47 28zM429 705h-4q-56 0 -100 -47q-22 -22 -32 -48t-4 -45q1 -18 19 -36l8 -1q42 -8 41 -9l-1 -0.5t-3 -0.5q4 0 50 11q12 6 24.5 15.5t23 20.5t19 22.5t12.5 22.5l2 5q6 16 4 32.5t-9.5 29t-20.5 20.5t-29 8zM432 723
q27 0 47 -14q13 -11 19 -21t6 -23q8 -29 -3 -55q-11 -25 -39 -56q-13 -14 -23.5 -21t-24.5 -15l-9 -5q-31 -11 -45.5 -13l-14.5 -2q-30 0 -51 15q-10 11 -15.5 19t-10.5 22q-5 27 6 56q24 63 96 99q31 7 46 10.5t16 3.5z" />
    <glyph glyph-name="FL00AAh" unicode="&#xaa;" horiz-adv-x="938" 
d="M437 174l9 23h217l-9 -23h-217zM186 417l-167 -431h8l32 -32h857l257 668l-32 32l2 6h-864l-74 -189h8l32 -32h510l-8 -22h-561zM695 243h-291l-32 -83h291zM40 0l155 403h562l31 82h-562l62 161h834l-248 -646h-834z" />
    <glyph glyph-name="FL00ABh" unicode="&#xab;" horiz-adv-x="690" 
d="M769 550l-9 16l-191 -139l-60 99l-25 24l-9 16l-329 -240l151 -248l3 2l33 -32l173 126l-67 111l12 8l131 -215l3 2l33 -32l173 126l-67 111l151 109l-81 132zM471 545l70 -113l-151 -109l67 -111l-156 -113l-137 224zM756 545l70 -113l-151 -109l67 -111l-156 -113
l-137 224z" />
    <glyph glyph-name="FL00ACh" unicode="&#xac;" horiz-adv-x="540" 
d="M186 417l-74 -188h8l32 -32h258l-47 -124h8l32 -32h183l131 338l-32 32l2 6h-501zM133 243l62 160h471l-122 -316h-160l60 156h-311z" />
    <glyph glyph-name="FL00ADh" unicode="&#xad;" horiz-adv-x="458" 
d="M584 403h-389l-62 -160h389zM186 417h419l-3 -6l33 -32l-71 -182h-412l-32 32h-8z" />
    <glyph glyph-name="registered" unicode="&#xae;" horiz-adv-x="331" 
d="M454 657h9q2 0 4.5 -0.5t4.5 -0.5q1 -5 1.5 -9t0.5 -6v-5zM431 736q-36 0 -68 -16q-36 -16 -60 -43q-2 -2 -2.5 -3t-2.5 -3q-14 -16 -22.5 -28t-14.5 -29q-10 -21 -10 -45q0 -8 0.5 -12t1.5 -8q9 -32 33 -48q2 -2 3.5 -3t3.5 -3l20 -19q2 -2 4.5 -4t5.5 -4q22 -17 57 -17
h15q10 0 18 3.5t31 12.5q41 17 61 44h-1q29 32 40 54q9 25 9 41q0 14 -3 26q-1 21 -18 38l-20 20q-9 17 -27 29q-23 17 -54 17zM374 652l-14 -38h23q17 0 25 5t12 15q5 11 -5 17q-1 1 -20 1h-21zM334 547h-19l46 121h40q28 0 31 -5l6 -4.5t3 -4.5q3 -8 1 -18
q-12 -33 -49 -34q8 -5 9.5 -11t6.5 -20l6 -24h-25v20q-9 24 -12 26q-3 5 -13 5h-11zM428 703h-4q-53 0 -99 -46q-24 -28 -32 -48l-1.5 -12t-3.5 -34q2 -18 20 -35l7 -2q20 -5 28.5 -7l8.5 -2q5 1 9.5 1.5t8.5 0.5q6 0 12.5 1t15.5 5.5t21.5 13.5t30.5 24q15 18 23.5 32
l8.5 14l1 5q6 17 4.5 33t-9 28.5t-20.5 20t-30 7.5zM431 722q30 0 47 -15q26 -17 26 -43q7 -27 -3 -55q-10 -22 -40 -56q-18 -24 -56 -41q-28 -11 -44 -13l-16 -2q-33 0 -51 15q-20 14 -27 41q-6 26 7 56q7 18 14.5 28.5t19.5 24.5l2 2q23 26 59 43q31 15 62 15z" />
    <glyph glyph-name="FL00AEh" unicode="&#xaf;" horiz-adv-x="622" 
d="M288 646l-62 -161h518l62 161h-518zM205 471l74 189h548l-3 -6l33 -32l-71 -183h-541l-32 32h-8z" />
    <glyph glyph-name="FL00B0h" unicode="&#xb0;" horiz-adv-x="319" 
d="M551 732l3 6h-245l-60 -152h8l32 -32h238l57 146zM376 679l-13 -34h66l13 34h-66zM533 724l-48 -124h-215l48 124h215z" />
    <glyph glyph-name="FL00B1h" unicode="&#xb1;" horiz-adv-x="541" 
d="M624 660h-190l-57 -149h-155l-71 -181h8l32 -32h103l-46 -120h8l4 -4h-167l-73 -188h8l32 -32h494l70 182l-32 32l2 6h-113l48 124h156l68 175l-33 32l3 6h-112l43 111l-32 32zM41 0l61 160h471l-61 -160h-471zM443 646h160l-57 -149h156l-59 -153h-156l-58 -152h-160
l58 152h-155l59 153h155z" />
    <glyph glyph-name="FL00B2h" unicode="&#xb2;" horiz-adv-x="893" 
d="M372 160l187 486h-271l-248 -646h789l61 160h-518zM580 660l-2 -6l32 -32l-173 -448h474l-2 -6l32 -32l-70 -182h-812l-32 32h-8l260 674h301z" />
    <glyph glyph-name="FL00B3h" unicode="&#xb3;" horiz-adv-x="936" 
d="M948 197l172 449h-271l-141 -366l-190 -119l-100 119l141 366h-271l-172 -449l173 -197h334zM1141 660l-2 -6l32 -32l-179 -467l-331 -201h-341l-32 32h-4l-183 209l178 465h301l-2 -6l32 -32l-145 -375l56 -68l176 112l143 369h301z" />
    <glyph glyph-name="FL00B4h" unicode="&#xb4;" horiz-adv-x="407" 
d="M655 738h-259l-162 -152h10l32 -32h247l160 146l-33 33zM402 724h218l-136 -124h-215z" />
    <glyph glyph-name="FL00B5h" unicode="&#xb5;" horiz-adv-x="936" 
d="M1040 437l80 209h-271l-48 -124l-190 -119l-100 119l48 124h-271l-80 -209l195 -222l-83 -215h271l83 215zM1141 660l-2 -6l32 -32l-87 -227l-367 -223l-84 -218h-294l-32 32h-8l88 227l-194 222l86 225h301l-2 -6l32 -32l-52 -133l56 -68l176 112l50 127h301z" />
    <glyph glyph-name="FL00B6h" unicode="&#xb6;" horiz-adv-x="1015" 
d="M538 384l39 101h290l-39 -101h-290zM1038 224l162 422h-947l78 -96l-211 -550h271l86 224h96l202 -224h302l-180 224h141zM1221 660l-2 -6l32 -32l-171 -444h-125l180 -224h-329l-32 32h-4l-174 192h-77l-86 -224h-294l-32 32h-8l216 561l-92 113h998zM619 439l-16 -41
h216l15 41h-215z" />
    <glyph glyph-name="FL00B8h" unicode="&#xb7;" horiz-adv-x="394" 
d="M516 485h-290l-125 -325h290zM217 499h320l-2 -6l32 -32l-134 -347h-313l-32 32h-8z" />
    <glyph glyph-name="FL00BDh" unicode="&#xb8;" horiz-adv-x="250" 
d="M-118 -44l-55 -139h8l32 -32h296l74 191l-32 32l2 6h-174l-22 -58h-129zM-152 -169l43 111h129l22 58h144l-65 -169h-273z" />
    <glyph glyph-name="FL00BFh" unicode="&#xb9;" horiz-adv-x="375" 
d="M559 646h-271l-248 -646h271zM279 660h301l-2 -6l32 -32l-257 -668h-294l-32 32h-8z" />
    <glyph glyph-name="FL00BAh" unicode="&#xba;" horiz-adv-x="543" 
d="M306 673l-110 -286h8l32 -32h439l133 345l-32 32l2 6h-525zM538 603h-73l-31 -81h73zM217 401l105 275l-39 48h474l-124 -323h-416z" />
    <glyph glyph-name="FL00BBh" unicode="&#xbb;" horiz-adv-x="690" 
d="M648 545l-156 -113l67 -109l-153 -111l70 -113l309 224zM363 545l-156 -113l67 -109l-153 -111l70 -113l309 224zM189 435l178 131l9 -16l25 -24l127 -209l12 9l-66 109l178 131l9 -16l25 -24l148 -241l-326 -237l-33 32l-3 -2l-64 104l-185 -134l-33 32l-3 -2l-84 137
l152 111z" />
    <glyph glyph-name="FL0EB2h" unicode="&#xbc;" horiz-adv-x="1123" 
d="M524 251q2 2 2.5 5.5t2.5 8.5q-6 14 -19 14q-22 0 -49 -36l-3 -8q-10 -28 8 -28t37 10q9 10 13 16.5t8 17.5zM775 249h39l-2 38zM324 303l22 3l-51 -112l-29 -9zM452 309l-13 -28q-3 2 -4.5 2.5l-1.5 0.5q0 1 -7 1q-13 0 -39 -17q-28 -22 -36 -47q-9 -23 17 -23
q17 0 25 3l-6 -19q-12 -2 -16.5 -4t-10.5 -2q-37 0 -28 52q-2 2 0 7l3 8q21 54 117 66zM556 268q-42 -81 -78 -81q-8 -1 -12.5 -1.5t-9.5 -0.5q-33 0 -36 18q28 75 85 103h15q41 0 36 -38zM680 301l-44 -114q-28 0 -54 56l-20 -54l-24 -4l45 116l45 -73l34 78zM718 306l26 5
l-50 -113l-33 -7zM847 277l-32 -84l-15 3q-3 27 -20 27q-14 0 -41 -27h-27q17 29 40.5 57t55.5 57q3 4 19 4q21 0 20 -37zM975 306l-43 -114q-31 0 -52 57l-22 -56l-23 -2l44 115l41 -76l35 81zM966 193l16 -8l-26 -18l-10 14zM1011 311l28 -5l-45 -85l-20 2zM1066 252l92 7
l-1 12l-92 54l77 19h9l-4 13l-149 33l71 39h-189l31 45l-194 -25l10 39l-13 5l-149 -58l-41 39l-104 -75q-7 -4 -19 -4q-28 0 -59 27l-49 -92l-86 8l-7 -28l27 -58l-92 -5l98 -58l-92 -33l157 -36l-71 -36l193 -7l-38 -44l187 29l12 -25l-17 -25l167 65l48 -40l102 79
l79 -27l42 92l88 -14q3 5 4.5 6l1.5 1q6 18 -30 78zM1180 298l-28 -8l19 -10v-7l32 -31l2 -28l-86 -7q24 -42 24 -62q0 -3 -0.5 -6t-4.5 -11q-2 0 -2.5 -1t-4.5 -7l-88 13l-42 -92l-83 27l-104 -80l-50 41l-193 -75l-33 33l-10 -4l16 23l-154 -24l-33 32l-9 -1l18 21l-109 4
l-32 32h-5l-7 24l9 4l-85 20l-31 30l-15 4l97 36l-55 33l-24 24l-22 13l118 6l-20 45l11 44l88 -8l53 99q40 -35 64 -35q10 0 11 1l113 82l44 -41l145 57l30 -12l-2 -5l22 -23l176 24l-4 -6l33 -33l-7 -10h114l2 -7l31 -31l5 -18l-12 -6l56 -12l2 -7l31 -31l10 -33h-21z" />
    <glyph glyph-name="mu" unicode="&#xbd;" horiz-adv-x="1168" 
d="M288 141l1 1l1 -1h-2zM276 194l-18 10l24 2zM1107 267l6 12l-10 10l33 -20zM1105 182l-41 6l21 38q9 -17 13.5 -27.5t6.5 -16.5zM269 276l4 15l49 -5l-30 -60zM316 135l44 15l5 12l22 -21q11 -11 30 -11q6 0 8.5 0.5t5.5 1.5q4 1 12.5 3l8.5 2l8 27l14 -13q12 -12 39 -12
h8q5 0 7 1q2 0 3.5 0.5t3.5 0.5q15 0 29 9l14 -14l49 8l12 33l17 -17q19 -19 41 -19l1 -1l51 11l1 -1h51q16 16 25 22l21 -20l25 -6l4 -3l46 5l14 34l18 -18q6 -9 18 -14l2 -2l1 1q1 -1 3 -1l10 -10l-14 -32l-74 25l-100 -76l-45 37l-128 -49l-24 24l-4 10l-108 -17l-24 25
l4 5l-87 3l-29 28l7 4zM1069 319l-44 9l-9 -20l-2 3l2 5l-47 12l-23 -53l-11 22l-26 26l-9 17l-15 -39l-6 6q-8 21 -30 21q-23 0 -30 -10q-4 -4 -7.5 -7t-6.5 -6l-19 19l3 6l-59 -11l-8 -16l-3 3l2 5l-45 12l-24 -56l-14 23l-23 22l-12 21l-15 -38q-9 25 -46 25h-19
q-5 -2 -9.5 -5t-9.5 -6l-9 11l3 6q-59 -8 -95 -24l-15 15l3 7l-14 -2l25 48q30 -21 56 -21q14 0 25 6l94 69l7 -6h1l34 -31l110 43l30 -29l118 15l-1 -1h8l32 -32h73l4 -1l31 -31l55 -13l-30 -7zM1162 402l-17 23l-23 23l-11 15h-99l-32 31l3 5l-73 8l-113 -20l-4 6l-22 21
l-12 18l-154 -60l-49 36q-27 -10 -54 -27t-65 -49l-64 23h-6q-40 0 -79 -91l-78 8l-25 -53l16 -37l-75 -10l-5 -52l11 -6l27 -28l-25 -14q-7 -13 -7 -23q0 -23 18 -27l26 -25q4 -7 17 -7l26 -6l-10 -26l7 -1l32 -31l126 -11l30 -29l30 -20l134 18l25 -25l33 -14l146 59l1 -1
h2l34 -32l47 7l92 68h1q17 -11 29.5 -16.5t31.5 -5.5q26 0 42 22l34 68l58 -14q33 10 42 36l3 7l1 12l-16 38h51l25 30l8 3v10q0 9 -9 18l-24 23q-2 4 -5 8q21 11 29 31l7 20l-33 32l2 5l-63 17q1 4 5 12zM546 251q2 2 2.5 5.5t2.5 8.5q-6 14 -19 14q-22 0 -49 -36l-3 -8
q-10 -28 8 -28t37 10q9 10 13 16.5t8 17.5zM797 249h39l-2 38zM346 303l22 3l-51 -112l-29 -9zM474 309l-13 -28q-3 2 -4.5 2.5l-1.5 0.5q0 1 -7 1q-13 0 -39 -17q-28 -22 -36 -47q-9 -23 17 -23q17 0 25 3l-6 -19q-12 -2 -16.5 -4t-10.5 -2q-37 0 -28 52q-2 2 0 7l3 8
q21 54 117 66zM578 268q-42 -81 -78 -81q-8 -1 -12.5 -1.5t-9.5 -0.5q-33 0 -36 18q28 75 85 103h15q41 0 36 -38zM702 301l-44 -114q-28 0 -54 56l-20 -54l-24 -4l45 116l45 -73l34 78zM740 306l26 5l-50 -113l-33 -7zM869 277l-32 -84l-15 3q-3 27 -20 27q-14 0 -41 -27
h-27q17 29 40.5 57t55.5 57q3 4 19 4q21 0 20 -37zM997 306l-43 -114q-31 0 -52 57l-22 -56l-23 -2l44 115l41 -76l35 81zM988 193l16 -8l-26 -18l-10 14zM1033 311l28 -5l-45 -85l-20 2zM1088 252l92 7l-1 12l-92 54l77 19h9l-4 13l-149 33l71 39h-189l31 45l-194 -25
l10 39l-13 5l-149 -58l-41 39l-104 -75q-7 -4 -19 -4q-28 0 -59 27l-49 -92l-86 8l-7 -28l27 -58l-92 -5l98 -58l-92 -33l157 -36l-71 -36l193 -7l-38 -44l187 29l12 -25l-17 -25l167 65l48 -40l102 79l79 -27l42 92l88 -14q3 5 4.5 6l1.5 1q6 18 -30 78zM1207 268l-3 -1
l-24 -28h-62l21 -50l-1 -9l-2 -5q-7 -19 -32 -28l-64 15l-39 -78q-9 -14 -31 -14q-17 0 -28.5 5.5t-28.5 16.5l-7 2l-95 -70l-37 -6l-30 38l-158 -64l-19 8l14 37l-185 -25l-17 12l20 32l-176 15l9 23l30 22l-107 20q-20 0 -11 26l56 32l-64 34l3 31l83 12l-22 48l19 38
l79 -8q35 92 69 92h4l68 -24q40 34 65.5 51t48.5 25l50 -37l151 59l16 -22l-10 -19v-7l152 26l48 -5l-21 -39h166l10 -14q-13 -34 -41 -36l128 -36l-3 -8q-11 -30 -66 -36q80 -33 74 -51z" />
    <glyph glyph-name="FL0EB6h" unicode="&#xbe;" horiz-adv-x="831" 
d="M906 316l-58 12l-9 -20l-2 3l2 5l-47 12l-23 -53l-11 22l-26 26l-9 17l-15 -39l-6 6q-8 21 -30 21q-23 0 -30 -10q-4 -4 -7.5 -7t-6.5 -6l-19 19l3 6l-59 -11l-8 -16l-3 3l2 5l-45 12l-24 -56l-14 23l-23 22l-12 21l-15 -38q-9 25 -46 25h-19q-5 -2 -9.5 -5t-9.5 -6
l-9 11l3 6q-59 -8 -95 -24l-15 15l3 7l-54 -8l-77 -155l8 2l33 -32l59 19l5 12l22 -21q11 -11 30 -11q6 0 8.5 0.5t5.5 1.5q4 1 12.5 3l8.5 2l8 27l14 -13q12 -12 39 -12h8q5 0 7 1q2 0 3.5 0.5t3.5 0.5q15 0 29 9l14 -14l49 8l12 33l17 -17q19 -19 41 -19l1 -1l51 11l1 -1
h51q16 16 25 22l21 -20l25 -6l4 -3l46 5l14 34l18 -18q6 -9 18 -14l2 -2l1 1q1 -1 3 -1l32 -31l51 35l-24 24l20 -2l56 105l-33 32zM369 251q2 2 2.5 5.5t2.5 8.5q-6 14 -19 14q-22 0 -49 -36l-3 -8q-10 -28 8 -28t37 10q9 10 13 16.5t8 17.5zM620 249h39l-2 38zM169 303
l22 3l-51 -112l-29 -9zM297 309l-13 -28q-3 2 -4.5 2.5l-1.5 0.5q0 1 -7 1q-13 0 -39 -17q-28 -22 -36 -47q-9 -23 17 -23q17 0 25 3l-6 -19q-12 -2 -16.5 -4t-10.5 -2q-37 0 -28 52q-2 2 0 7l3 8q21 54 117 66zM401 268q-42 -81 -78 -81q-8 -1 -12.5 -1.5t-9.5 -0.5
q-33 0 -36 18q28 75 85 103h15q41 0 36 -38zM525 301l-44 -114q-28 0 -54 56l-20 -54l-24 -4l45 116l45 -73l34 78zM563 306l26 5l-50 -113l-33 -7zM692 277l-32 -84l-15 3q-3 27 -20 27q-14 0 -41 -27h-27q17 29 40.5 57t55.5 57q3 4 19 4q21 0 20 -37zM820 306l-43 -114
q-31 0 -52 57l-22 -56l-23 -2l44 115l41 -76l35 81zM811 193l16 -8l-26 -18l-10 14zM856 311l28 -5l-45 -85l-20 2z" />
    <glyph glyph-name="FL0EBDh" unicode="&#xbf;" horiz-adv-x="938" 
d="M1060 486l61 160h-271l-61 -160h271zM195 403l-155 -403h833l62 161h-561l31 82h562l62 160h-834zM19 -14l167 431h864l-3 -6l33 -32l-71 -182h-562l-8 -22h517l-3 -6l33 -32l-71 -183h-856l-32 32h-8zM1142 660l-2 -6l32 -32l-70 -182h-294l-32 32h-8l73 188h301z" />
    <glyph glyph-name="FL00C0h" unicode="&#xc0;" horiz-adv-x="1015" 
d="M911 824h-218l41 -124h215zM532 367l45 118h290l-45 -118h-290zM952 0l248 646h-947l78 -96l-211 -550h271l79 207h290l-79 -207h271zM1221 660l-2 -6l32 -32l-257 -668h-294l-32 32h-8l67 175h-215l-79 -207h-294l-32 32h-8l216 561l-92 113h533l-26 26h-5l-51 152h248
l2 -7l31 -31l42 -140h224zM619 439l-22 -58h216l22 58h-216z" />
    <glyph glyph-name="FL00C1h" unicode="&#xc1;" horiz-adv-x="1015" 
d="M655 700h215l135 124h-218zM532 367l45 118h290l-45 -118h-290zM952 0l248 646h-947l78 -96l-211 -550h271l79 207h290l-79 -207h271zM1221 660l-2 -6l32 -32l-257 -668h-294l-32 32h-8l67 175h-215l-79 -207h-294l-32 32h-8l216 561l-92 113h433l-26 26h-10l161 152h259
l-5 -5l33 -33l-153 -140h306zM619 439l-22 -58h216l22 58h-216z" />
    <glyph glyph-name="FL00C2h" unicode="&#xc2;" horiz-adv-x="1015" 
d="M847 710l8 -24h5l26 -26h-95zM597 381l22 58h216l-22 -58h-216zM107 -14l32 -32h294l79 207h215l-67 -175h8l32 -32h294l257 668l-32 32l2 6h-96l-44 140l-31 30l-2 8h-391l-161 -152h10l26 -26h-309l92 -113l-216 -561h8zM1078 700h-214l-27 83l-91 -83h-215l132 124
h376zM331 550l-78 96h947l-248 -646h-271l79 207h-290l-79 -207h-271zM822 367l45 118h-290l-45 -118h290z" />
    <glyph glyph-name="FL00C3h" unicode="&#xc3;" horiz-adv-x="1015" 
d="M773 710l8 -24h5l26 -26h-95zM597 381l22 58h216l-22 -58h-216zM886 838h-303l-161 -152h10l26 -26h-235l92 -113l-216 -561h8l32 -32h294l79 207h215l-67 -175h8l32 -32h294l257 668l-32 32l2 6h-97l149 140l-33 33l5 5h-255l-64 -59l-7 21l-31 30zM589 824h288l27 -83
l91 83h215l-132 -124h-288l-27 83l-91 -83h-215zM331 550l-78 96h947l-248 -646h-271l79 207h-290l-79 -207h-271zM822 367l45 118h-290l-45 -118h290z" />
    <glyph glyph-name="FL00C4h" unicode="&#xc4;" horiz-adv-x="1015" 
d="M910 824l-47 -124h215l47 124h-215zM578 824l-47 -124h215l47 124h-215zM532 367l45 118h290l-45 -118h-290zM952 0l248 646h-947l78 -96l-211 -550h271l79 207h290l-79 -207h271zM510 686l59 152h245l-2 -6l32 -32l-54 -140h86l-26 26h-8l59 152h245l-2 -6l32 -32
l-54 -140h99l-2 -6l32 -32l-257 -668h-294l-32 32h-8l67 175h-215l-79 -207h-294l-32 32h-8l216 561l-92 113h321l-26 26h-8zM619 439l-22 -58h216l22 58h-216z" />
    <glyph glyph-name="FL00C5h" unicode="&#xc5;" horiz-adv-x="1015" 
d="M597 381l22 58h216l-22 -58h-216zM975 832l2 6h-245l-59 -152h8l26 -26h-484l92 -113l-216 -561h8l32 -32h294l79 207h215l-67 -175h8l32 -32h294l257 668l-32 32l2 6h-268l54 140zM799 779l-13 -34h66l13 34h-66zM331 550l-78 96h947l-248 -646h-271l79 207h-290
l-79 -207h-271zM822 367l45 118h-290l-45 -118h290zM956 824l-47 -124h-215l47 124h215z" />
    <glyph glyph-name="FL00C6h" unicode="&#xc6;" horiz-adv-x="1533" 
d="M597 381l22 58h215l-22 -58h-215zM1549 168l2 6h-473l9 23h517l71 182l-33 32l3 6h-473l8 22h517l71 183l-33 32l3 6h-1515l92 -113l-216 -561h8l32 -32h294l79 207h214l-67 -175h8l32 -32h812l70 182zM866 485h-289l-45 -118h289zM1530 160l-61 -160h-789l79 207h-289
l-79 -207h-271l211 550l-78 96h1464l-62 -161h-517l-31 -82h517l-62 -160h-517l-32 -83h517z" />
    <glyph glyph-name="FL00C7h" unicode="&#xc7;" horiz-adv-x="973" 
d="M333 -46l-54 -137h8l32 -32h296l65 169h271l70 182l-32 32l2 6h-474l102 265h518l71 183l-33 32l3 6h-955l92 -113l-216 -561h8l32 -32h194zM300 -169l43 111h129l22 58h-374l211 550l-78 96h904l-62 -161h-518l-125 -325h518l-61 -160h-271l-65 -169h-273z" />
    <glyph glyph-name="FL00C8h" unicode="&#xc8;" 
d="M911 824h-218l41 -124h215zM546 403l31 82h561l62 161h-947l78 -96l-211 -550h832l61 160h-561l32 83h561l62 160h-561zM674 838h248l2 -7l31 -31l42 -140h224l-3 -6l33 -32l-71 -183h-561l-8 -22h517l-3 -6l33 -32l-71 -182h-561l-9 -23h517l-2 -6l32 -32l-70 -182h-855
l-32 32h-8l216 561l-92 113h533l-26 26h-5z" />
    <glyph glyph-name="FL00C9h" unicode="&#xc9;" 
d="M1218 654l3 6h-306l153 140l-33 33l5 5h-259l-161 -152h10l26 -26h-433l92 -113l-216 -561h8l32 -32h855l70 182l-32 32l2 6h-517l9 23h561l71 182l-33 32l3 6h-517l8 22h561l71 183zM787 824h218l-135 -124h-215zM1200 646l-62 -161h-561l-31 -82h561l-62 -160h-561
l-32 -83h561l-61 -160h-832l211 550l-78 96h947z" />
    <glyph glyph-name="FL00CAh" unicode="&#xca;" 
d="M847 710l8 -24h5l26 -26h-95zM1218 654l3 6h-96l-44 140l-31 30l-2 8h-391l-161 -152h10l26 -26h-309l92 -113l-216 -561h8l32 -32h855l70 182l-32 32l2 6h-517l9 23h561l71 182l-33 32l3 6h-517l8 22h561l71 183zM1078 700h-214l-27 83l-91 -83h-215l132 124h376z
M1200 646l-62 -161h-561l-31 -82h561l-62 -160h-561l-32 -83h561l-61 -160h-832l211 550l-78 96h947z" />
    <glyph glyph-name="FL00CBh" unicode="&#xcb;" 
d="M910 824l-47 -124h215l47 124h-215zM578 824l-47 -124h215l47 124h-215zM546 403l31 82h561l62 161h-947l78 -96l-211 -550h832l61 160h-561l32 83h561l62 160h-561zM842 686l59 152h245l-2 -6l32 -32l-54 -140h99l-3 -6l33 -32l-71 -183h-561l-8 -22h517l-3 -6l33 -32
l-71 -182h-561l-9 -23h517l-2 -6l32 -32l-70 -182h-855l-32 32h-8l216 561l-92 113h321l-26 26h-8l59 152h245l-2 -6l32 -32l-54 -140h86l-26 26h-8z" />
    <glyph glyph-name="FL00CCh" unicode="&#xcc;" horiz-adv-x="455" 
d="M595 824h-218l41 -124h215zM253 646l78 -96l-211 -550h271l248 646h-386zM358 838h248l2 -7l31 -31l44 -146h-25l32 -32l-257 -668h-294l-32 32h-8l216 561l-92 113h217l-26 26h-5z" />
    <glyph glyph-name="FL00CDh" unicode="&#xcd;" horiz-adv-x="455" 
d="M356 700h215l135 124h-218zM253 646l78 -96l-211 -550h271l248 646h-386zM769 800l-153 -140h44l-2 -6l32 -32l-257 -668h-294l-32 32h-8l216 561l-92 113h134l-26 26h-10l161 152h259l-5 -5z" />
    <glyph glyph-name="FL00CEh" unicode="&#xce;" horiz-adv-x="455" 
d="M545 710l8 -24h5l26 -26h-95zM107 -14l32 -32h294l257 668l-32 32h167l-46 146l-31 30l-2 8h-391l-161 -152h10l26 -26h-7l92 -113l-216 -561h8zM776 700h-214l-27 83l-91 -83h-215l132 124h376zM391 0h-271l211 550l-78 96h386z" />
    <glyph glyph-name="FL00CFh" unicode="&#xcf;" horiz-adv-x="455" 
d="M609 824l-47 -124h215l47 124h-215zM277 824l-47 -124h215l47 124h-215zM253 646l78 -96l-211 -550h271l248 646h-386zM209 686l59 152h245l-2 -6l32 -32l-54 -140h86l-26 26h-8l59 152h245l-2 -6l32 -32l-56 -146h-161l32 -32l-257 -668h-294l-32 32h-8l216 561l-92 113
h20l-26 26h-8z" />
    <glyph glyph-name="FL00D0h" unicode="&#xd0;" 
d="M517 174l9 23h101l-37 -23h-73zM611 417l8 22h215l-57 -148l-124 -78l64 166l-33 32l3 6h-76zM186 417l-74 -188h8l32 -32h28l-81 -211h8l32 -32h602l330 199l180 469l-32 32l2 6h-998l92 -113l-49 -130h-80zM788 280l79 205h-290l-31 -82h120l-62 -160h-120l-32 -83h144
zM133 243l62 160h80l56 147l-78 96h947l-173 -451l-324 -195h-583l93 243h-80z" />
    <glyph glyph-name="FL00D1h" unicode="&#xd1;" 
d="M651 654h60l62 56l8 -24h5l32 -32h99l-98 -255l-139 223l-24 24zM886 838h-303l-161 -152h10l26 -26h-235l92 -113l-216 -561h8l32 -32h294l98 256l142 -224h5l32 -32h284l257 668l-32 32l2 6h-97l149 140l-33 33l5 5h-255l-64 -59l-7 21l-31 30zM589 824h288l27 -83
l91 83h215l-132 -124h-288l-27 83l-91 -83h-215zM391 0h-271l211 550l-78 96h386l180 -287l110 287h271l-248 -646h-271l-180 287z" />
    <glyph glyph-name="FL00D2h" unicode="&#xd2;" 
d="M1200 646h-947l78 -96l-211 -550h832zM742 160h-290l125 325h290zM911 824h-218l41 -124h215zM674 838h248l2 -7l31 -31l42 -140h224l-2 -6l32 -32l-257 -668h-855l-32 32h-8l216 561l-92 113h533l-26 26h-5zM619 439l-102 -265h216l101 265h-215z" />
    <glyph glyph-name="FL00D3h" unicode="&#xd3;" 
d="M517 174l102 265h215l-101 -265h-216zM1040 838h-259l-161 -152h10l26 -26h-433l92 -113l-216 -561h8l32 -32h855l257 668l-32 32l2 6h-306l153 140l-33 33zM787 824h218l-135 -124h-215zM867 485h-290l-125 -325h290zM120 0l211 550l-78 96h947l-248 -646h-832z" />
    <glyph glyph-name="FL00D4h" unicode="&#xd4;" 
d="M847 710l8 -24h5l26 -26h-95zM517 174l102 265h215l-101 -265h-216zM107 -14l32 -32h855l257 668l-32 32l2 6h-96l-44 140l-31 30l-2 8h-391l-161 -152h10l26 -26h-309l92 -113l-216 -561h8zM1078 700h-214l-27 83l-91 -83h-215l132 124h376zM577 485l-125 -325h290
l125 325h-290zM331 550l-78 96h947l-248 -646h-832z" />
    <glyph glyph-name="FL00D5h" unicode="&#xd5;" 
d="M773 710l8 -24h5l26 -26h-95zM517 174l102 265h215l-101 -265h-216zM886 838h-303l-161 -152h10l26 -26h-235l92 -113l-216 -561h8l32 -32h855l257 668l-32 32l2 6h-97l149 140l-33 33l5 5h-255l-64 -59l-7 21l-31 30zM589 824h288l27 -83l91 83h215l-132 -124h-288
l-27 83l-91 -83h-215zM577 485l-125 -325h290l125 325h-290zM331 550l-78 96h947l-248 -646h-832z" />
    <glyph glyph-name="FL00D6h" unicode="&#xd6;" 
d="M910 824l-47 -124h215l47 124h-215zM578 824l-47 -124h215l47 124h-215zM1200 646h-947l78 -96l-211 -550h832zM742 160h-290l125 325h290zM842 686l59 152h245l-2 -6l32 -32l-54 -140h99l-2 -6l32 -32l-257 -668h-855l-32 32h-8l216 561l-92 113h321l-26 26h-8l59 152
h245l-2 -6l32 -32l-54 -140h86l-26 26h-8zM619 439l-102 -265h216l101 265h-215z" />
    <glyph glyph-name="FL00D7h" unicode="&#xd7;" horiz-adv-x="516" 
d="M595 550l-9 16l-144 -106l-41 66l-26 26l-8 13l-179 -130l68 -109l-153 -111l84 -137l3 2l33 -32l141 102l44 -72l3 2l33 -32l173 126l-67 111l151 109l-81 132zM582 545l70 -113l-151 -109l67 -111l-156 -113l-67 111l-154 -111l-70 113l154 111l-68 109l156 113
l68 -109z" />
    <glyph glyph-name="FL00D8h" unicode="&#xd8;" 
d="M733 174h-30l42 33zM605 404l14 35h29zM107 -14l32 -32h855l257 668l-32 32l2 6h-998l92 -113l-216 -561h8zM510 309l218 176h-151zM742 160l68 177l-221 -177h153zM331 550l-78 96h947l-248 -646h-832z" />
    <glyph glyph-name="FL00D9h" unicode="&#xd9;" 
d="M911 824h-218l41 -124h215zM253 646l78 -96l-211 -550h832l248 646h-271l-187 -486h-290l187 486h-386zM674 838h248l2 -7l31 -31l42 -140h224l-2 -6l32 -32l-257 -668h-855l-32 32h-8l216 561l-92 113h437l-2 -6l32 -32l-173 -448h216l184 480h-155l-32 32h-5z" />
    <glyph glyph-name="FL00DAh" unicode="&#xda;" 
d="M1040 838h-259l-161 -152h10l26 -26h-433l92 -113l-216 -561h8l32 -32h855l257 668l-32 32l2 6h-301l-187 -486h-216l173 448l-32 32l1 3l3 -3h247l159 146l-33 33zM787 824h218l-135 -124h-215zM952 0h-832l211 550l-78 96h386l-187 -486h290l187 486h271z" />
    <glyph glyph-name="FL00DBh" unicode="&#xdb;" 
d="M658 654h127l62 56l8 -24h5l32 -32h25l-184 -480h-216l173 448zM107 -14l32 -32h855l257 668l-32 32l2 6h-96l-44 140l-31 30l-2 8h-391l-161 -152h10l26 -26h-309l92 -113l-216 -561h8zM1078 700h-214l-27 83l-91 -83h-215l132 124h376zM952 0h-832l211 550l-78 96h386
l-187 -486h290l187 486h271z" />
    <glyph glyph-name="FL00DCh" unicode="&#xdc;" 
d="M910 824l-47 -124h215l47 124h-215zM578 824l-47 -124h215l47 124h-215zM253 646l78 -96l-211 -550h832l248 646h-271l-187 -486h-290l187 486h-386zM842 686l59 152h245l-2 -6l32 -32l-54 -140h99l-2 -6l32 -32l-257 -668h-855l-32 32h-8l216 561l-92 113h321l-26 26h-8
l59 152h245l-2 -6l32 -32l-56 -146h-130l32 -32l-173 -448h216l184 480h-35l-32 32h-8z" />
    <glyph glyph-name="FL00DDh" unicode="&#xdd;" 
d="M655 700h215l135 124h-218zM1120 437l80 209h-271l-48 -124l-190 -119l-100 119l48 124h-386l78 -96l-43 -113l195 -222l-83 -215h271l83 215zM1221 660l-2 -6l32 -32l-87 -227l-367 -223l-84 -218h-294l-32 32h-8l88 227l-194 222l42 112l-92 113h433l-26 26h-10
l161 152h259l-5 -5l33 -33l-159 -146h-247l-3 3l-1 -3l32 -32l-52 -133l56 -68l176 112l50 127h301z" />
    <glyph glyph-name="FL00DEh" unicode="&#xde;" horiz-adv-x="1015" 
d="M558 279l22 58h216l-22 -58h-216zM315 547l-216 -561h8l32 -32h294l40 105h561l178 461l-32 32l2 6h-517l25 64l-33 32l3 6h-437zM828 383h-290l-45 -118h290zM120 0l211 550l-78 96h386l-39 -102h561l-169 -439h-561l-40 -105h-271z" />
    <glyph glyph-name="FL00DFh" unicode="&#xdf;" horiz-adv-x="1015" 
d="M1222 660h-998l89 -116l-278 -726h8l32 -32h294l250 653h215l-8 -22h-200l-74 -188h8l32 -32h150l-9 -23h-201l-73 -188h8l32 -32h496l257 668l-32 32zM253 646h948l-248 -646h-473l61 160h201l32 83h-201l62 160h201l31 82h-290l-250 -653h-271l274 715z" />
    <glyph glyph-name="FL00E0h" unicode="&#xe0;" horiz-adv-x="1015" 
d="M911 824h-218l41 -124h215zM532 367l45 118h290l-45 -118h-290zM952 0l248 646h-947l78 -96l-211 -550h271l79 207h290l-79 -207h271zM1221 660l-2 -6l32 -32l-257 -668h-294l-32 32h-8l67 175h-215l-79 -207h-294l-32 32h-8l216 561l-92 113h533l-26 26h-5l-51 152h248
l2 -7l31 -31l42 -140h224zM619 439l-22 -58h216l22 58h-216z" />
    <glyph glyph-name="FL00E1h" unicode="&#xe1;" horiz-adv-x="1015" 
d="M655 700h215l135 124h-218zM532 367l45 118h290l-45 -118h-290zM952 0l248 646h-947l78 -96l-211 -550h271l79 207h290l-79 -207h271zM1221 660l-2 -6l32 -32l-257 -668h-294l-32 32h-8l67 175h-215l-79 -207h-294l-32 32h-8l216 561l-92 113h433l-26 26h-10l161 152h259
l-5 -5l33 -33l-153 -140h306zM619 439l-22 -58h216l22 58h-216z" />
    <glyph glyph-name="FL00E2h" unicode="&#xe2;" horiz-adv-x="1015" 
d="M847 710l8 -24h5l26 -26h-95zM597 381l22 58h216l-22 -58h-216zM107 -14l32 -32h294l79 207h215l-67 -175h8l32 -32h294l257 668l-32 32l2 6h-96l-44 140l-31 30l-2 8h-391l-161 -152h10l26 -26h-309l92 -113l-216 -561h8zM1078 700h-214l-27 83l-91 -83h-215l132 124
h376zM331 550l-78 96h947l-248 -646h-271l79 207h-290l-79 -207h-271zM822 367l45 118h-290l-45 -118h290z" />
    <glyph glyph-name="FL00E3h" unicode="&#xe3;" horiz-adv-x="1015" 
d="M773 710l8 -24h5l26 -26h-95zM597 381l22 58h216l-22 -58h-216zM886 838h-303l-161 -152h10l26 -26h-235l92 -113l-216 -561h8l32 -32h294l79 207h215l-67 -175h8l32 -32h294l257 668l-32 32l2 6h-97l149 140l-33 33l5 5h-255l-64 -59l-7 21l-31 30zM589 824h288l27 -83
l91 83h215l-132 -124h-288l-27 83l-91 -83h-215zM331 550l-78 96h947l-248 -646h-271l79 207h-290l-79 -207h-271zM822 367l45 118h-290l-45 -118h290z" />
    <glyph glyph-name="FL00E4h" unicode="&#xe4;" horiz-adv-x="1015" 
d="M910 824l-47 -124h215l47 124h-215zM578 824l-47 -124h215l47 124h-215zM532 367l45 118h290l-45 -118h-290zM952 0l248 646h-947l78 -96l-211 -550h271l79 207h290l-79 -207h271zM510 686l59 152h245l-2 -6l32 -32l-54 -140h86l-26 26h-8l59 152h245l-2 -6l32 -32
l-54 -140h99l-2 -6l32 -32l-257 -668h-294l-32 32h-8l67 175h-215l-79 -207h-294l-32 32h-8l216 561l-92 113h321l-26 26h-8zM619 439l-22 -58h216l22 58h-216z" />
    <glyph glyph-name="FL00E5h" unicode="&#xe5;" horiz-adv-x="1015" 
d="M597 381l22 58h216l-22 -58h-216zM975 832l2 6h-245l-59 -152h8l26 -26h-484l92 -113l-216 -561h8l32 -32h294l79 207h215l-67 -175h8l32 -32h294l257 668l-32 32l2 6h-268l54 140zM799 779l-13 -34h66l13 34h-66zM331 550l-78 96h947l-248 -646h-271l79 207h-290
l-79 -207h-271zM822 367l45 118h-290l-45 -118h290zM956 824l-47 -124h-215l47 124h215z" />
    <glyph glyph-name="FL00E6h" unicode="&#xe6;" horiz-adv-x="1533" 
d="M597 381l22 58h215l-22 -58h-215zM1549 168l2 6h-473l9 23h517l71 182l-33 32l3 6h-473l8 22h517l71 183l-33 32l3 6h-1515l92 -113l-216 -561h8l32 -32h294l79 207h214l-67 -175h8l32 -32h812l70 182zM866 485h-289l-45 -118h289zM1530 160l-61 -160h-789l79 207h-289
l-79 -207h-271l211 550l-78 96h1464l-62 -161h-517l-31 -82h517l-62 -160h-517l-32 -83h517z" />
    <glyph glyph-name="FL00E7h" unicode="&#xe7;" horiz-adv-x="973" 
d="M333 -46l-54 -137h8l32 -32h296l65 169h271l70 182l-32 32l2 6h-474l102 265h518l71 183l-33 32l3 6h-955l92 -113l-216 -561h8l32 -32h194zM300 -169l43 111h129l22 58h-374l211 550l-78 96h904l-62 -161h-518l-125 -325h518l-61 -160h-271l-65 -169h-273z" />
    <glyph glyph-name="FL00E8h" unicode="&#xe8;" horiz-adv-x="973" 
d="M878 824h-218l41 -124h215zM546 403l31 82h518l62 161h-904l78 -96l-211 -550h789l61 160h-518l32 83h518l62 160h-518zM641 838h248l2 -7l31 -31l42 -140h214l-3 -6l33 -32l-71 -183h-518l-8 -22h474l-3 -6l33 -32l-71 -182h-518l-9 -23h474l-2 -6l32 -32l-70 -182h-812
l-32 32h-8l216 561l-92 113h500l-26 26h-5z" />
    <glyph glyph-name="FL00E9h" unicode="&#xe9;" horiz-adv-x="973" 
d="M643 700h215l135 124h-218zM546 403l31 82h518l62 161h-904l78 -96l-211 -550h789l61 160h-518l32 83h518l62 160h-518zM1056 800l-153 -140h275l-3 -6l33 -32l-71 -183h-518l-8 -22h474l-3 -6l33 -32l-71 -182h-518l-9 -23h474l-2 -6l32 -32l-70 -182h-812l-32 32h-8
l216 561l-92 113h421l-26 26h-10l161 152h259l-5 -5z" />
    <glyph glyph-name="FL00EAh" unicode="&#xea;" horiz-adv-x="973" 
d="M829 710l8 -24h5l26 -26h-95zM1175 654l3 6h-71l-44 140l-31 30l-2 8h-391l-161 -152h10l26 -26h-291l92 -113l-216 -561h8l32 -32h812l70 182l-32 32l2 6h-474l9 23h518l71 182l-33 32l3 6h-474l8 22h518l71 183zM1060 700h-214l-27 83l-91 -83h-215l132 124h376z
M1157 646l-62 -161h-518l-31 -82h518l-62 -160h-518l-32 -83h518l-61 -160h-789l211 550l-78 96h904z" />
    <glyph glyph-name="FL00EBh" unicode="&#xeb;" horiz-adv-x="973" 
d="M891 824l-47 -124h215l47 124h-215zM559 824l-47 -124h215l47 124h-215zM546 403l31 82h518l62 161h-904l78 -96l-211 -550h789l61 160h-518l32 83h518l62 160h-518zM823 686l59 152h245l-2 -6l32 -32l-54 -140h75l-3 -6l33 -32l-71 -183h-518l-8 -22h474l-3 -6l33 -32
l-71 -182h-518l-9 -23h474l-2 -6l32 -32l-70 -182h-812l-32 32h-8l216 561l-92 113h302l-26 26h-8l59 152h245l-2 -6l32 -32l-54 -140h86l-26 26h-8z" />
    <glyph glyph-name="FL00ECh" unicode="&#xec;" horiz-adv-x="455" 
d="M595 824h-218l41 -124h215zM253 646l78 -96l-211 -550h271l248 646h-386zM358 838h248l2 -7l31 -31l44 -146h-25l32 -32l-257 -668h-294l-32 32h-8l216 561l-92 113h217l-26 26h-5z" />
    <glyph glyph-name="FL00EDh" unicode="&#xed;" horiz-adv-x="455" 
d="M356 700h215l135 124h-218zM253 646l78 -96l-211 -550h271l248 646h-386zM769 800l-153 -140h44l-2 -6l32 -32l-257 -668h-294l-32 32h-8l216 561l-92 113h134l-26 26h-10l161 152h259l-5 -5z" />
    <glyph glyph-name="FL00EEh" unicode="&#xee;" horiz-adv-x="455" 
d="M545 710l8 -24h5l26 -26h-95zM107 -14l32 -32h294l257 668l-32 32h167l-46 146l-31 30l-2 8h-391l-161 -152h10l26 -26h-7l92 -113l-216 -561h8zM776 700h-214l-27 83l-91 -83h-215l132 124h376zM391 0h-271l211 550l-78 96h386z" />
    <glyph glyph-name="FL00EFh" unicode="&#xef;" horiz-adv-x="455" 
d="M609 824l-47 -124h215l47 124h-215zM277 824l-47 -124h215l47 124h-215zM253 646l78 -96l-211 -550h271l248 646h-386zM209 686l59 152h245l-2 -6l32 -32l-54 -140h86l-26 26h-8l59 152h245l-2 -6l32 -32l-56 -146h-161l32 -32l-257 -668h-294l-32 32h-8l216 561l-92 113
h20l-26 26h-8z" />
    <glyph glyph-name="FL00F0h" unicode="&#xf0;" horiz-adv-x="1015" 
d="M516 174l9 23h217l-9 -23h-217zM265 417l-167 -431h8l32 -32h857l257 668l-32 32l2 6h-998l147 -189h4l32 -32h427l-8 -22h-561zM774 243h-291l-32 -83h291zM119 0l155 403h562l31 82h-489l-125 161h948l-248 -646h-834z" />
    <glyph glyph-name="FL00F1h" unicode="&#xf1;" 
d="M651 654h60l62 56l8 -24h5l32 -32h99l-98 -255l-139 223l-24 24zM886 838h-303l-161 -152h10l26 -26h-235l92 -113l-216 -561h8l32 -32h294l98 256l142 -224h5l32 -32h284l257 668l-32 32l2 6h-97l149 140l-33 33l5 5h-255l-64 -59l-7 21l-31 30zM589 824h288l27 -83
l91 83h215l-132 -124h-288l-27 83l-91 -83h-215zM391 0h-271l211 550l-78 96h386l180 -287l110 287h271l-248 -646h-271l-180 287z" />
    <glyph glyph-name="FL00F2h" unicode="&#xf2;" 
d="M1200 646h-947l78 -96l-211 -550h832zM742 160h-290l125 325h290zM911 824h-218l41 -124h215zM674 838h248l2 -7l31 -31l42 -140h224l-2 -6l32 -32l-257 -668h-855l-32 32h-8l216 561l-92 113h533l-26 26h-5zM619 439l-102 -265h216l101 265h-215z" />
    <glyph glyph-name="FL00F3h" unicode="&#xf3;" 
d="M1200 646h-947l78 -96l-211 -550h832zM742 160h-290l125 325h290zM655 700h215l135 124h-218zM223 660h433l-26 26h-10l161 152h259l-5 -5l33 -33l-153 -140h306l-2 -6l32 -32l-257 -668h-855l-32 32h-8l216 561zM619 439l-102 -265h216l101 265h-215z" />
    <glyph glyph-name="FL00F5h" unicode="&#xf4;" 
d="M847 710l8 -24h5l26 -26h-95zM517 174l102 265h215l-101 -265h-216zM107 -14l32 -32h855l257 668l-32 32l2 6h-96l-44 140l-31 30l-2 8h-391l-161 -152h10l26 -26h-309l92 -113l-216 -561h8zM1078 700h-214l-27 83l-91 -83h-215l132 124h376zM577 485l-125 -325h290
l125 325h-290zM331 550l-78 96h947l-248 -646h-832z" />
    <glyph glyph-name="FL00F7h" unicode="&#xf5;" 
d="M773 710l8 -24h5l26 -26h-95zM517 174l102 265h215l-101 -265h-216zM886 838h-303l-161 -152h10l26 -26h-235l92 -113l-216 -561h8l32 -32h855l257 668l-32 32l2 6h-97l149 140l-33 33l5 5h-255l-64 -59l-7 21l-31 30zM589 824h288l27 -83l91 83h215l-132 -124h-288
l-27 83l-91 -83h-215zM577 485l-125 -325h290l125 325h-290zM331 550l-78 96h947l-248 -646h-832z" />
    <glyph glyph-name="FL00F6h" unicode="&#xf6;" 
d="M910 824l-47 -124h215l47 124h-215zM578 824l-47 -124h215l47 124h-215zM1200 646h-947l78 -96l-211 -550h832zM742 160h-290l125 325h290zM842 686l59 152h245l-2 -6l32 -32l-54 -140h99l-2 -6l32 -32l-257 -668h-855l-32 32h-8l216 561l-92 113h321l-26 26h-8l59 152
h245l-2 -6l32 -32l-54 -140h86l-26 26h-8zM619 439l-102 -265h216l101 265h-215z" />
    <glyph glyph-name="FL0100h" unicode="&#xf7;" horiz-adv-x="658" 
d="M295 188l-47 -124h215l47 124h-215zM445 580l-48 -124h215l48 124h-215zM784 403h-589l-62 -160h589zM376 442l60 152h245l-3 -6l33 -32l-55 -139h149l-3 -6l33 -32l-71 -182h-235v-1l32 -32l-56 -146h-238l-32 32h-8l57 147h-132l-32 32h-8l74 188h223l-25 25h-8z" />
    <glyph glyph-name="FL00F8h" unicode="&#xf8;" 
d="M733 174h-30l42 33zM605 404l14 35h29zM107 -14l32 -32h855l257 668l-32 32l2 6h-998l92 -113l-216 -561h8zM510 309l218 176h-151zM742 160l68 177l-221 -177h153zM331 550l-78 96h947l-248 -646h-832z" />
    <glyph glyph-name="FL00F9h" unicode="&#xf9;" 
d="M911 824h-218l41 -124h215zM253 646l78 -96l-211 -550h832l248 646h-271l-187 -486h-290l187 486h-386zM674 838h248l2 -7l31 -31l42 -140h224l-2 -6l32 -32l-257 -668h-855l-32 32h-8l216 561l-92 113h437l-2 -6l32 -32l-173 -448h216l184 480h-155l-32 32h-5z" />
    <glyph glyph-name="FL00FAh" unicode="&#xfa;" 
d="M1040 838h-259l-161 -152h10l26 -26h-433l92 -113l-216 -561h8l32 -32h855l257 668l-32 32l2 6h-301l-187 -486h-216l173 448l-32 32l1 3l3 -3h247l159 146l-33 33zM787 824h218l-135 -124h-215zM952 0h-832l211 550l-78 96h386l-187 -486h290l187 486h271z" />
    <glyph glyph-name="FL00FBh" unicode="&#xfb;" 
d="M658 654h127l62 56l8 -24h5l32 -32h25l-184 -480h-216l173 448zM107 -14l32 -32h855l257 668l-32 32l2 6h-96l-44 140l-31 30l-2 8h-391l-161 -152h10l26 -26h-309l92 -113l-216 -561h8zM1078 700h-214l-27 83l-91 -83h-215l132 124h376zM952 0h-832l211 550l-78 96h386
l-187 -486h290l187 486h271z" />
    <glyph glyph-name="FL00FCh" unicode="&#xfc;" 
d="M910 824l-47 -124h215l47 124h-215zM578 824l-47 -124h215l47 124h-215zM253 646l78 -96l-211 -550h832l248 646h-271l-187 -486h-290l187 486h-386zM842 686l59 152h245l-2 -6l32 -32l-54 -140h99l-2 -6l32 -32l-257 -668h-855l-32 32h-8l216 561l-92 113h321l-26 26h-8
l59 152h245l-2 -6l32 -32l-56 -146h-130l32 -32l-173 -448h216l184 480h-35l-32 32h-8z" />
    <glyph glyph-name="FL00FDh" unicode="&#xfd;" 
d="M655 700h215l135 124h-218zM1120 437l80 209h-271l-48 -124l-190 -119l-100 119l48 124h-386l78 -96l-43 -113l195 -222l-83 -215h271l83 215zM1221 660l-2 -6l32 -32l-87 -227l-367 -223l-84 -218h-294l-32 32h-8l88 227l-194 222l42 112l-92 113h433l-26 26h-10
l161 152h259l-5 -5l33 -33l-159 -146h-247l-3 3l-1 -3l32 -32l-52 -133l56 -68l176 112l50 127h301z" />
    <glyph glyph-name="FL00FEh" unicode="&#xfe;" horiz-adv-x="1015" 
d="M558 279l22 58h216l-22 -58h-216zM315 547l-216 -561h8l32 -32h294l40 105h561l178 461l-32 32l2 6h-517l25 64l-33 32l3 6h-437zM828 383h-290l-45 -118h290zM120 0l211 550l-78 96h386l-39 -102h561l-169 -439h-561l-40 -105h-271z" />
    <glyph glyph-name="FL00FFh" unicode="&#xff;" 
d="M910 824l-47 -124h215l47 124h-215zM578 824l-47 -124h215l47 124h-215zM1120 437l80 209h-271l-48 -124l-190 -119l-100 119l48 124h-386l78 -96l-43 -113l195 -222l-83 -215h271l83 215zM510 686l59 152h245l-2 -6l32 -32l-56 -146h-130l32 -32l-52 -133l56 -68
l176 112l47 121h-35l-32 32h-8l59 152h245l-2 -6l32 -32l-54 -140h99l-2 -6l32 -32l-87 -227l-367 -223l-84 -218h-294l-32 32h-8l88 227l-194 222l42 112l-92 113h321l-26 26h-8z" />
    <glyph glyph-name="FL0152h" unicode="&#x152;" horiz-adv-x="1520" 
d="M517 174l102 265h201l-101 -265h-202zM107 -14l32 -32h1359l70 182l-32 32l2 6h-474l9 23h518l71 182l-33 32l3 6h-474l8 22h518l71 183l-33 32l3 6h-1502l92 -113l-216 -561h8zM853 485h-276l-125 -325h276zM1642 485h-518l-31 -82h518l-62 -160h-518l-32 -83h518
l-61 -160h-1336l211 550l-78 96h1451z" />
    <glyph glyph-name="FL0153h" unicode="&#x153;" horiz-adv-x="1520" 
d="M517 174l102 265h201l-101 -265h-202zM107 -14l32 -32h1359l70 182l-32 32l2 6h-474l9 23h518l71 182l-33 32l3 6h-474l8 22h518l71 183l-33 32l3 6h-1502l92 -113l-216 -561h8zM853 485h-276l-125 -325h276zM1642 485h-518l-31 -82h518l-62 -160h-518l-32 -83h518
l-61 -160h-1336l211 550l-78 96h1451z" />
    <glyph glyph-name="FL0160h" unicode="&#x160;" horiz-adv-x="1015" 
d="M798 838h-241l48 -152h5l26 -26h-413l92 -113l-123 -318h8l32 -32h509l-9 -23h-560l-73 -188h8l32 -32h854l164 425l-32 32l2 6h-516l8 22h560l71 183l-33 32l3 6h-184l149 140l-33 33l5 5h-255l-64 -59l-7 21l-31 30zM575 824h214l27 -83l91 83h215l-132 -124h-376z
M546 403h560l-155 -403h-831l61 160h560l32 83h-560l118 307l-78 96h946l-62 -161h-560z" />
    <glyph glyph-name="FL0161h" unicode="&#x161;" horiz-adv-x="1015" 
d="M798 838h-241l48 -152h5l26 -26h-413l92 -113l-123 -318h8l32 -32h509l-9 -23h-560l-73 -188h8l32 -32h854l164 425l-32 32l2 6h-516l8 22h560l71 183l-33 32l3 6h-184l149 140l-33 33l5 5h-255l-64 -59l-7 21l-31 30zM575 824h214l27 -83l91 83h215l-132 -124h-376z
M546 403h560l-155 -403h-831l61 160h560l32 83h-560l118 307l-78 96h946l-62 -161h-560z" />
    <glyph glyph-name="FL0178h" unicode="&#x178;" 
d="M910 824l-47 -124h215l47 124h-215zM578 824l-47 -124h215l47 124h-215zM1120 437l80 209h-271l-48 -124l-190 -119l-100 119l48 124h-386l78 -96l-43 -113l195 -222l-83 -215h271l83 215zM510 686l59 152h245l-2 -6l32 -32l-56 -146h-130l32 -32l-52 -133l56 -68
l176 112l47 121h-35l-32 32h-8l59 152h245l-2 -6l32 -32l-54 -140h99l-2 -6l32 -32l-87 -227l-367 -223l-84 -218h-294l-32 32h-8l88 227l-194 222l42 112l-92 113h321l-26 26h-8z" />
    <glyph glyph-name="FL0192h" unicode="&#x192;" horiz-adv-x="937" 
d="M601 0h271l80 209l-101 113l190 115l80 209h-271l-48 -126l-192 -118l-98 120l48 124h-271l-79 -207l100 -116l-191 -116l-79 -207h271l48 124l192 120l98 -118zM611 622l-52 -133l55 -67l177 109l50 129h301l-2 -6l32 -32l-87 -227l-182 -111l65 -73v-1l31 -34l-85 -222
h-294l-32 32h-8l53 138l-56 66l-175 -109l-49 -127h-294l-32 32h-8l89 231l180 110l-93 110l85 223h301l-2 -6z" />
    <glyph glyph-name="FL02C6h" unicode="&#x2c6;" horiz-adv-x="616" 
d="M245 586l32 -32h247l62 56l8 -24h5l32 -32h236l-44 146l-31 31l-2 7h-393l-162 -152h10zM817 600h-214l-27 83l-91 -83h-215l133 124h376z" />
    <glyph glyph-name="FL02DCh" unicode="&#x2dc;" horiz-adv-x="775" 
d="M700 738h-303l-162 -152h10l32 -32h247l62 56l8 -24h5l32 -32h300l156 146l-33 33l5 5h-255l-64 -59l-7 21l-31 30zM403 724h288l27 -83l91 83h215l-133 -124h-288l-27 83l-91 -83h-215z" />
    <glyph glyph-name="FL2013h" unicode="&#x2013;" horiz-adv-x="540" 
d="M666 403h-471l-62 -160h471zM186 417h501l-3 -6l33 -32l-71 -182h-494l-32 32h-8z" />
    <glyph glyph-name="FL2014h" unicode="&#x2014;" horiz-adv-x="658" 
d="M784 403h-589l-62 -160h589zM186 417h619l-3 -6l33 -32l-71 -182h-612l-32 32h-8z" />
    <glyph glyph-name="FL2018h" unicode="&#x2018;" horiz-adv-x="342" 
d="M442 652l3 6h-74l-147 -120l-70 -183h8l32 -32h296l70 182l-32 32l2 6h-85l30 77zM380 529h129l-61 -160h-273l61 160l141 115h47z" />
    <glyph glyph-name="FL0027h" unicode="&#x2019;" horiz-adv-x="342" 
d="M207 471l32 -32h77l-32 -83h8l32 -32h68l145 118l69 179l-32 32l2 6h-303l-74 -188h8zM349 485h-129l62 160h273l-62 -160l-141 -115h-47z" />
    <glyph glyph-name="FL201Ah" unicode="&#x201a;" horiz-adv-x="342" 
d="M27 -14l32 -32h77l-32 -83h8l32 -32h68l145 118l68 179l-32 32l2 6h-303l-73 -188h8zM169 0h-129l61 160h273l-61 -160l-141 -115h-47z" />
    <glyph glyph-name="FL201Ch" unicode="&#x201c;" horiz-adv-x="655" 
d="M763 654l3 6h-74l-147 -120l-4 -9l-6 7l2 6h-85l31 77l-33 32l3 6h-74l-148 -120l-70 -183h8l32 -32h296l5 13l12 -12h296l71 182l-33 32l3 6h-85l30 77zM387 530h129l-61 -160h-273l61 160l142 115h47zM701 531h129l-62 -160h-273l62 160l141 115h47z" />
    <glyph glyph-name="FL201Dh" unicode="&#x201d;" horiz-adv-x="655" 
d="M213 471l32 -32h77l-32 -83h8l32 -32h68l145 118l4 10l12 -12h76l-32 -83h8l32 -32h68l146 118l68 179l-32 32l2 6h-303l-6 -14l-6 7l2 6h-303l-74 -188h8zM669 486h-129l61 160h273l-61 -160l-142 -115h-47zM355 485h-129l62 160h273l-62 -160l-141 -115h-47z" />
    <glyph glyph-name="FL201Eh" unicode="&#x201e;" horiz-adv-x="651" 
d="M27 -14l32 -32h77l-32 -83h8l32 -32h68l145 118l2 6l9 -9h77l-32 -83h8l32 -32h68l145 118l68 179l-32 32l2 6h-303l-4 -11l-5 5l3 6h-303l-73 -188h8zM478 0h-129l61 160h273l-61 -160l-141 -115h-47zM169 0h-129l61 160h273l-61 -160l-141 -115h-47z" />
    <glyph glyph-name="FL2020h" unicode="&#x2020;" horiz-adv-x="591" 
d="M226 521l-74 -188h8l32 -32h72l-120 -315h8l32 -32h294l133 347h126l71 182l-33 32l3 6h-82l39 101l-32 32l2 6h-301l-53 -139h-125zM360 507l53 139h271l-53 -139h126l-62 -160h-126l-133 -347h-271l133 347h-125l62 160h125z" />
    <glyph glyph-name="FL2021h" unicode="&#x2021;" horiz-adv-x="591" 
d="M226 521l-74 -188h8l22 -22h-37l-73 -188h8l32 -32h72l-40 -105h8l32 -32h294l53 137h126l70 182l-28 28h38l71 182l-33 32l3 6h-82l39 101l-32 32l2 6h-301l-53 -139h-125zM360 507l53 139h271l-53 -139h126l-62 -160h-126l-19 -50h126l-61 -160h-126l-53 -137h-271
l53 137h-125l61 160h125l19 50h-125l62 160h125z" />
    <glyph glyph-name="FL2022h" unicode="&#x2022;" 
d="M315 547l-216 -561h8l32 -32h855l257 668l-32 32l2 6h-998zM120 0l211 550l-78 96h947l-248 -646h-832z" />
    <glyph glyph-name="FL2026h" unicode="&#x2026;" horiz-adv-x="1004" 
d="M101 160l-61 -160h273l61 160h-273zM414 160l-61 -160h273l61 160h-273zM728 160l-61 -160h273l61 160h-273zM19 -14l73 188h303l-3 -6l7 -8l6 14h303l-2 -6l7 -8l6 14h303l-2 -6l32 -32l-70 -182h-296l-13 13l-5 -13h-296l-13 13l-4 -13h-296l-32 32h-8z" />
    <glyph glyph-name="FL2030h" unicode="&#x2030;" horiz-adv-x="1353" 
d="M277 596l-111 -287h8l32 -32h161l-364 -291h11l32 -32h307l84 68l-13 -36h8l32 -32h867l133 345l-32 32l2 6h-601l357 285l-33 33l6 5h-317l-78 -63l10 25l-32 32l2 6h-524zM1195 202h-73l-32 -81h73zM1289 0h-416l124 323h416zM509 525h-73l-32 -81h73zM767 202h-73
l-32 -81h73zM187 323l106 275l-40 48h474l-55 -144l180 144h271l-405 -323h267l-124 -323h-416l58 151l-189 -151h-271l404 323h-260z" />
    <glyph glyph-name="FL2039h" unicode="&#x2039;" horiz-adv-x="405" 
d="M484 550l-9 16l-329 -240l151 -248l3 2l33 -32l173 126l-67 111l151 109l-81 132zM471 545l70 -113l-151 -109l67 -111l-156 -113l-137 224z" />
    <glyph glyph-name="FL203Ah" unicode="&#x203a;" horiz-adv-x="405" 
d="M363 545l-156 -113l67 -109l-153 -111l70 -113l309 224zM189 435l178 131l9 -16l25 -24l148 -241l-326 -237l-33 32l-3 -2l-84 137l152 111z" />
    <glyph glyph-name="FL2122h" unicode="&#x2122;" horiz-adv-x="429" 
d="M483 717l-62 -161h17l42 108l11 9l-1 -107q0 -8 2 -9t6 -1q8 0 10 1t8 9l83 110l3 -12l-42 -108h18l64 166h-7q-18 0 -37 -12.5t-44 -48.5q-11 -18 -18.5 -30.5t-18.5 -26.5q1 11 1.5 26t2.5 37l1 9q1 16 -7.5 31.5t-14.5 15.5q-2 0 -3 -0.5t0 -0.5l2 -1q-2 -2 -8 -2
l-2 -0.5zM307 696h58l-54 -140h25l54 140h57l10 26h-140zM547 692l6 -9q24 31 43 42t39 11h28l-3 -6l33 -32l-73 -188h-41l-17 17l-2 -3h-1q-8 -11 -10.5 -12.5t-12.5 -1.5h-4q-4 0 -8 0.5t-6 2.5l-27 26l-11 -29h-40l-32 32h-8l41 108h-9l-54 -140h-48l-32 32h-8l41 108h-5
l-32 32h-8l22 54h170l-3 -6l3 -2l2 2v1q6 2 11 2q4 0 5 -1q2 5 4 5q12 0 25 -24l21 -20h-1zM494 728v-1l1 -1v3z" />
    <glyph glyph-name="FL259" horiz-adv-x="500" 
 />
    </font>
</defs>
</svg>
