<svg width="9" height="14" viewBox="0 0 9 14" fill="none" xmlns="http://www.w3.org/2000/svg">
<path d="M9 1.5759V0.148069C9 0.0243115 8.85441 -0.0440324 8.75609 0.0317L0.232589 6.53545C0.16017 6.59047 0.101572 6.66092 0.0612627 6.74143C0.0209538 6.82194 0 6.91038 0 7C0 7.08962 0.0209538 7.17806 0.0612627 7.25857C0.101572 7.33908 0.16017 7.40953 0.232589 7.46455L8.75609 13.9683C8.8563 14.044 9 13.9757 9 13.8519V12.4241C9 12.3336 8.95651 12.2468 8.88466 12.1914L2.07796 7.00092L8.88466 1.80864C8.95651 1.75323 9 1.66641 9 1.5759Z" fill="white"/>
</svg>
