<svg width="28" height="28" viewBox="0 0 28 28" fill="none" xmlns="http://www.w3.org/2000/svg">
<line x1="0.5" y1="-0.5" x2="23.4998" y2="-0.5" transform="matrix(0.707915 -0.706299 0.706887 0.707325 1.11426 18.0786)" stroke="white" stroke-linecap="round" stroke-linejoin="round"/>
<line x1="0.5" y1="-0.5" x2="23.4998" y2="-0.5" transform="matrix(0.707107 -0.707107 0.707654 0.706559 3.87305 20.8333)" stroke="white" stroke-linecap="round" stroke-linejoin="round"/>
<line x1="0.5" y1="-0.5" x2="2.60802" y2="-0.5" transform="matrix(0.707654 0.706559 -0.707107 0.707107 1.12354 18.0881)" stroke="white" stroke-linecap="round" stroke-linejoin="round"/>
<line x1="0.5" y1="-0.5" x2="2.60802" y2="-0.5" transform="matrix(0.707654 0.706559 -0.707107 0.707107 17.5801 1.63208)" stroke="white" stroke-linecap="round" stroke-linejoin="round"/>
<line x1="0.5" y1="-0.5" x2="23.4998" y2="-0.5" transform="matrix(0.707915 -0.706299 0.706887 0.707325 7.72168 24.6763)" stroke="white" stroke-linecap="round" stroke-linejoin="round"/>
<line x1="0.5" y1="-0.5" x2="23.4998" y2="-0.5" transform="matrix(0.707107 -0.707107 0.707654 0.706559 10.481 27.4309)" stroke="white" stroke-linecap="round" stroke-linejoin="round"/>
<line x1="0.5" y1="-0.5" x2="4.16203" y2="-0.5" transform="matrix(0.707654 0.706559 -0.707107 0.707107 7.17188 24.127)" stroke="white" stroke-linecap="round" stroke-linejoin="round"/>
<line x1="0.5" y1="-0.5" x2="4.16203" y2="-0.5" transform="matrix(0.707654 0.706559 -0.707107 0.707107 23.6284 7.6709)" stroke="white" stroke-linecap="round" stroke-linejoin="round"/>
<line x1="0.5" y1="-0.5" x2="23.4998" y2="-0.5" transform="matrix(0.707915 -0.706299 0.706887 0.707325 1.11426 18.0786)" stroke="white" stroke-linecap="round" stroke-linejoin="round"/>
<line x1="0.5" y1="-0.5" x2="23.4998" y2="-0.5" transform="matrix(0.707107 -0.707107 0.707654 0.706559 3.87305 20.8333)" stroke="white" stroke-linecap="round" stroke-linejoin="round"/>
<line x1="0.5" y1="-0.5" x2="4.16203" y2="-0.5" transform="matrix(0.707654 0.706559 -0.707107 0.707107 0.57373 17.5393)" stroke="white" stroke-linecap="round" stroke-linejoin="round"/>
<line x1="0.5" y1="-0.5" x2="4.16203" y2="-0.5" transform="matrix(0.707654 0.706559 -0.707107 0.707107 17.0303 1.08301)" stroke="white" stroke-linecap="round" stroke-linejoin="round"/>
<line x1="0.5" y1="-0.5" x2="5.71604" y2="-0.5" transform="matrix(0.707654 0.706559 -0.707107 0.707107 4.35156 19.2556)" stroke="white" stroke-linecap="round" stroke-linejoin="round"/>
<line x1="0.5" y1="-0.5" x2="5.71604" y2="-0.5" transform="matrix(0.707654 0.706559 -0.707107 0.707107 18.7505 4.85645)" stroke="white" stroke-linecap="round" stroke-linejoin="round"/>
<line y1="-0.5" x2="5.85997" y2="-0.5" transform="matrix(0.920039 0.392509 -0.348309 0.937067 7.98682 16.719)" stroke="white"/>
<line y1="-0.5" x2="5.85997" y2="-0.5" transform="matrix(0.920039 0.392509 -0.348309 0.937067 12.6152 12.0908)" stroke="white"/>
<line y1="-0.5" x2="5.85997" y2="-0.5" transform="matrix(0.920039 0.392509 -0.348309 0.937067 17.2437 7.4624)" stroke="white"/>
<line y1="-0.5" x2="5.96855" y2="-0.5" transform="matrix(-0.353539 -0.935109 0.952885 -0.304369 9.77881 22.6191)" stroke="white"/>
<line y1="-0.5" x2="5.96855" y2="-0.5" transform="matrix(-0.353539 -0.935109 0.952885 -0.304369 14.4072 17.9907)" stroke="white"/>
<line y1="-0.5" x2="5.96855" y2="-0.5" transform="matrix(-0.353539 -0.935109 0.952885 -0.304369 19.0356 13.3625)" stroke="white"/>
</svg>
