<svg width="366" height="80" viewBox="0 0 366 80" fill="none" xmlns="http://www.w3.org/2000/svg">
<path d="M185.825 8C185.825 3.58172 189.406 0 193.825 0H331.806C334.315 0 336.678 1.17671 338.19 3.17852L362.024 34.7355C364.333 37.7925 364.15 42.0571 361.589 44.9058L332.419 77.3488C330.902 79.0363 328.739 80 326.47 80H193.825C189.406 80 185.825 76.4183 185.825 72L185.825 8Z" fill="url(#paint0_linear)"/>
<path d="M214 20C214 15.5817 217.582 12 222 12H324C326.518 12 328.889 13.1856 330.4 15.2L345.069 34.7588C347.355 37.8071 347.174 42.0447 344.637 44.887L326.386 65.3281C324.868 67.0281 322.697 68 320.418 68H222C217.582 68 214 64.4183 214 60V20Z" fill="url(#paint1_linear)"/>
<path d="M38.04 61H0.279999V7.64001H38.04V17.64H11.64V28.92H37.48V38.92H11.64V51H38.04V61Z" fill="url(#paint2_linear)"/>
<path d="M38.04 61H0.279999V7.64001H38.04V17.64H11.64V28.92H37.48V38.92H11.64V51H38.04V61Z" fill="white"/>
<path d="M69.6406 61H59.0405L74.2006 22.36H85.1606L69.6406 61Z" fill="url(#paint3_linear)"/>
<path d="M69.6406 61H59.0405L74.2006 22.36H85.1606L69.6406 61Z" fill="white"/>
<path d="M59.8224 37.7782L54.5 51.5L43.1606 22.36H54.0406L59.8224 37.7782Z" fill="url(#paint4_linear)"/>
<path d="M59.8224 37.7782L54.5 51.5L43.1606 22.36H54.0406L59.8224 37.7782Z" fill="white"/>
<path fill-rule="evenodd" clip-rule="evenodd" d="M107.616 61.96C113.803 61.96 118.763 60.0134 122.496 56.12C126.23 52.1734 128.096 47.3467 128.096 41.64C128.096 35.9334 126.23 31.1334 122.496 27.24C118.763 23.3467 113.803 21.4 107.616 21.4C101.43 21.4 96.4696 23.3467 92.7363 27.24C89.0563 31.1334 87.2162 35.9334 87.2162 41.64C87.2162 47.3467 89.0563 52.1734 92.7363 56.12C96.4696 60.0134 101.43 61.96 107.616 61.96ZM107.616 52.92C104.576 52.92 102.176 51.8534 100.416 49.72C98.6562 47.5334 97.7763 44.84 97.7763 41.64C97.7763 38.4934 98.6562 35.8533 100.416 33.72C102.176 31.5333 104.576 30.44 107.616 30.44C110.656 30.44 113.056 31.5333 114.816 33.72C116.63 35.8533 117.536 38.4934 117.536 41.64C117.536 44.84 116.63 47.5334 114.816 49.72C113.056 51.8534 110.656 52.92 107.616 52.92Z" fill="url(#paint5_linear)"/>
<path fill-rule="evenodd" clip-rule="evenodd" d="M107.616 61.96C113.803 61.96 118.763 60.0134 122.496 56.12C126.23 52.1734 128.096 47.3467 128.096 41.64C128.096 35.9334 126.23 31.1334 122.496 27.24C118.763 23.3467 113.803 21.4 107.616 21.4C101.43 21.4 96.4696 23.3467 92.7363 27.24C89.0563 31.1334 87.2162 35.9334 87.2162 41.64C87.2162 47.3467 89.0563 52.1734 92.7363 56.12C96.4696 60.0134 101.43 61.96 107.616 61.96ZM107.616 52.92C104.576 52.92 102.176 51.8534 100.416 49.72C98.6562 47.5334 97.7763 44.84 97.7763 41.64C97.7763 38.4934 98.6562 35.8533 100.416 33.72C102.176 31.5333 104.576 30.44 107.616 30.44C110.656 30.44 113.056 31.5333 114.816 33.72C116.63 35.8533 117.536 38.4934 117.536 41.64C117.536 44.84 116.63 47.5334 114.816 49.72C113.056 51.8534 110.656 52.92 107.616 52.92Z" fill="white"/>
<path d="M145.794 61H135.634V7.64001H145.794V61Z" fill="url(#paint6_linear)"/>
<path d="M145.794 61H135.634V7.64001H145.794V61Z" fill="white"/>
<path fill-rule="evenodd" clip-rule="evenodd" d="M215.044 61.96C209.07 61.96 204.137 60.0934 200.244 56.36C196.35 52.6267 194.404 47.72 194.404 41.64C194.404 35.9334 196.27 31.1334 200.004 27.24C203.79 23.3467 208.59 21.4 214.404 21.4C220.164 21.4 224.83 23.3734 228.404 27.32C231.977 31.2134 233.764 36.3334 233.764 42.68V44.92H205.044C205.364 47.48 206.51 49.6133 208.484 51.32C210.457 53.0267 213.017 53.88 216.164 53.88C217.87 53.88 219.71 53.5334 221.684 52.84C223.71 52.1467 225.31 51.2134 226.484 50.04L230.964 56.6C227.07 60.1734 221.764 61.96 215.044 61.96ZM223.924 38.04C223.764 35.8534 222.884 33.88 221.284 32.12C219.737 30.36 217.444 29.48 214.404 29.48C211.524 29.48 209.284 30.36 207.684 32.12C206.084 33.8267 205.15 35.8 204.884 38.04H223.924Z" fill="url(#paint7_linear)"/>
<path fill-rule="evenodd" clip-rule="evenodd" d="M215.044 61.96C209.07 61.96 204.137 60.0934 200.244 56.36C196.35 52.6267 194.404 47.72 194.404 41.64C194.404 35.9334 196.27 31.1334 200.004 27.24C203.79 23.3467 208.59 21.4 214.404 21.4C220.164 21.4 224.83 23.3734 228.404 27.32C231.977 31.2134 233.764 36.3334 233.764 42.68V44.92H205.044C205.364 47.48 206.51 49.6133 208.484 51.32C210.457 53.0267 213.017 53.88 216.164 53.88C217.87 53.88 219.71 53.5334 221.684 52.84C223.71 52.1467 225.31 51.2134 226.484 50.04L230.964 56.6C227.07 60.1734 221.764 61.96 215.044 61.96ZM223.924 38.04C223.764 35.8534 222.884 33.88 221.284 32.12C219.737 30.36 217.444 29.48 214.404 29.48C211.524 29.48 209.284 30.36 207.684 32.12C206.084 33.8267 205.15 35.8 204.884 38.04H223.924Z" fill="white"/>
<path d="M177.5 61H166.9L182.06 22.36H193.02L177.5 61Z" fill="url(#paint8_linear)"/>
<path d="M177.5 61H166.9L182.06 22.36H193.02L177.5 61Z" fill="white"/>
<path d="M167.682 37.7782L162.359 51.5L151.02 22.36H161.9L167.682 37.7782Z" fill="url(#paint9_linear)"/>
<path d="M167.682 37.7782L162.359 51.5L151.02 22.36H161.9L167.682 37.7782Z" fill="white"/>
<path d="M267.592 55.576C264.296 55.576 261.832 54.36 260.2 51.928L259.528 55H253.432L260.488 22.984H266.584L263.992 34.696C265.944 32.392 268.28 31.24 271 31.24C273.656 31.24 275.784 32.088 277.384 33.784C278.984 35.48 279.784 37.832 279.784 40.84C279.784 43.24 279.32 45.544 278.392 47.752C277.496 49.96 276.088 51.816 274.168 53.32C272.28 54.824 270.088 55.576 267.592 55.576ZM266.584 50.152C268.568 50.152 270.2 49.368 271.48 47.8C272.76 46.2 273.4 44.296 273.4 42.088C273.4 40.456 272.92 39.144 271.96 38.152C271 37.16 269.768 36.664 268.264 36.664C266.216 36.664 264.44 37.592 262.936 39.448L261.16 47.512C262.312 49.272 264.12 50.152 266.584 50.152Z" fill="white"/>
<path d="M293.509 55.576C289.829 55.576 286.901 54.648 284.725 52.792C282.581 50.936 281.509 48.392 281.509 45.16C281.509 41.32 282.789 38.04 285.349 35.32C287.909 32.6 291.093 31.24 294.901 31.24C297.941 31.24 300.437 32.184 302.389 34.072C304.341 35.928 305.317 38.44 305.317 41.608C305.317 43.08 305.157 44.328 304.837 45.352H287.605V45.928C287.605 47.08 288.165 48.168 289.285 49.192C290.437 50.216 291.989 50.728 293.941 50.728C296.341 50.728 298.293 50.152 299.797 49L301.717 53.176C299.381 54.776 296.645 55.576 293.509 55.576ZM288.229 41.224H299.845V40.744C299.845 39.464 299.381 38.376 298.453 37.48C297.557 36.552 296.245 36.088 294.517 36.088C292.949 36.088 291.573 36.616 290.389 37.672C289.237 38.696 288.517 39.88 288.229 41.224Z" fill="white"/>
<path d="M315.48 55.576C313.336 55.576 311.64 55.16 310.392 54.328C309.176 53.464 308.568 52.2 308.568 50.536C308.568 49.992 308.632 49.464 308.76 48.952L311.352 37.096H307.512L308.712 31.816H312.552L313.944 25.48H320.088L318.696 31.816H323.4L322.152 37.096H317.448L315.24 47.176C315.176 47.56 315.144 47.88 315.144 48.136C315.144 49.48 315.896 50.152 317.4 50.152C318.136 50.152 318.696 49.992 319.08 49.672L319.32 54.568C318.328 55.24 317.048 55.576 315.48 55.576Z" fill="white"/>
<defs>
<linearGradient id="paint0_linear" x1="366" y1="40" x2="198.5" y2="40" gradientUnits="userSpaceOnUse">
<stop stop-color="#1A7E57"/>
<stop offset="1" stop-color="#1A7E57" stop-opacity="0"/>
</linearGradient>
<linearGradient id="paint1_linear" x1="349" y1="40" x2="226.5" y2="40" gradientUnits="userSpaceOnUse">
<stop stop-color="#23A873"/>
<stop offset="1" stop-color="#23A873" stop-opacity="0"/>
</linearGradient>
<linearGradient id="paint2_linear" x1="237" y1="36.9146" x2="-3.00001" y2="36.9146" gradientUnits="userSpaceOnUse">
<stop stop-color="#93ADFF"/>
<stop offset="1" stop-color="#39CA9F"/>
</linearGradient>
<linearGradient id="paint3_linear" x1="237" y1="36.9146" x2="-3.00001" y2="36.9146" gradientUnits="userSpaceOnUse">
<stop stop-color="#93ADFF"/>
<stop offset="1" stop-color="#39CA9F"/>
</linearGradient>
<linearGradient id="paint4_linear" x1="237" y1="36.9146" x2="-3.00001" y2="36.9146" gradientUnits="userSpaceOnUse">
<stop stop-color="#93ADFF"/>
<stop offset="1" stop-color="#39CA9F"/>
</linearGradient>
<linearGradient id="paint5_linear" x1="237" y1="36.9146" x2="-3.00001" y2="36.9146" gradientUnits="userSpaceOnUse">
<stop stop-color="#93ADFF"/>
<stop offset="1" stop-color="#39CA9F"/>
</linearGradient>
<linearGradient id="paint6_linear" x1="237" y1="36.9146" x2="-3.00001" y2="36.9146" gradientUnits="userSpaceOnUse">
<stop stop-color="#93ADFF"/>
<stop offset="1" stop-color="#39CA9F"/>
</linearGradient>
<linearGradient id="paint7_linear" x1="237" y1="36.9146" x2="-3.00001" y2="36.9146" gradientUnits="userSpaceOnUse">
<stop stop-color="#93ADFF"/>
<stop offset="1" stop-color="#39CA9F"/>
</linearGradient>
<linearGradient id="paint8_linear" x1="237" y1="36.9146" x2="-3.00001" y2="36.9146" gradientUnits="userSpaceOnUse">
<stop stop-color="#93ADFF"/>
<stop offset="1" stop-color="#39CA9F"/>
</linearGradient>
<linearGradient id="paint9_linear" x1="237" y1="36.9146" x2="-3.00001" y2="36.9146" gradientUnits="userSpaceOnUse">
<stop stop-color="#93ADFF"/>
<stop offset="1" stop-color="#39CA9F"/>
</linearGradient>
</defs>
</svg>
