<svg width="165" height="27" viewBox="0 0 165 27" fill="none" xmlns="http://www.w3.org/2000/svg">
<path d="M23.2482 0.799998V26H21.3402V3.608L12.0162 19.088H11.6922L2.3682 3.608V26H0.460201V0.799998H2.8362L11.8362 15.704L20.8362 0.799998H23.2482ZM42.9993 0.799998V2.6H35.0793V26H33.1353V2.6H25.2153V0.799998H42.9993ZM62.0807 26H59.5247L46.8887 13.58V26H44.9807V0.799998H46.8887V12.536L59.1647 0.799998H61.7207L48.9767 13.04L62.0807 26Z" fill="white"/>
<path d="M86.4982 0.799998V5.552H79.6942V26H74.7262V5.552H67.9582V0.799998H86.4982ZM101.116 26L96.0396 17.252H92.2596V26H87.2916V0.799998H97.3716C99.6996 0.799998 101.68 1.616 103.312 3.248C104.944 4.88 105.76 6.848 105.76 9.152C105.76 10.712 105.316 12.164 104.428 13.508C103.54 14.828 102.364 15.824 100.9 16.496L106.48 26H101.116ZM92.2596 5.444V12.896H97.3716C98.3076 12.896 99.1116 12.536 99.7836 11.816C100.456 11.072 100.792 10.184 100.792 9.152C100.792 8.12 100.456 7.244 99.7836 6.524C99.1116 5.804 98.3076 5.444 97.3716 5.444H92.2596ZM116.645 26.504C113.837 26.504 111.533 25.712 109.733 24.128C107.933 22.544 107.033 20.42 107.033 17.756V0.799998H111.965V17.36C111.965 18.68 112.337 19.724 113.081 20.492C113.849 21.26 115.037 21.644 116.645 21.644C118.253 21.644 119.429 21.26 120.173 20.492C120.941 19.724 121.325 18.68 121.325 17.36V0.799998H126.293V17.756C126.293 20.42 125.393 22.544 123.593 24.128C121.793 25.712 119.477 26.504 116.645 26.504ZM137.393 26.504C134.897 26.504 132.797 25.952 131.093 24.848C129.389 23.72 128.189 22.196 127.493 20.276L131.741 17.792C132.725 20.36 134.657 21.644 137.537 21.644C138.929 21.644 139.949 21.392 140.597 20.888C141.245 20.384 141.569 19.748 141.569 18.98C141.569 18.092 141.173 17.408 140.381 16.928C139.589 16.424 138.173 15.884 136.133 15.308C135.005 14.972 134.045 14.636 133.253 14.3C132.485 13.964 131.705 13.52 130.913 12.968C130.145 12.392 129.557 11.672 129.149 10.808C128.741 9.944 128.537 8.936 128.537 7.784C128.537 5.504 129.341 3.692 130.949 2.348C132.581 0.979999 134.537 0.295998 136.817 0.295998C138.857 0.295998 140.645 0.799998 142.181 1.808C143.741 2.792 144.953 4.172 145.817 5.948L141.641 8.36C140.633 6.2 139.025 5.12 136.817 5.12C135.785 5.12 134.969 5.36 134.369 5.84C133.793 6.296 133.505 6.896 133.505 7.64C133.505 8.432 133.829 9.08 134.477 9.584C135.149 10.064 136.421 10.592 138.293 11.168C139.061 11.408 139.637 11.6 140.021 11.744C140.429 11.864 140.969 12.068 141.641 12.356C142.337 12.62 142.865 12.872 143.225 13.112C143.609 13.352 144.041 13.676 144.521 14.084C145.001 14.492 145.361 14.912 145.601 15.344C145.865 15.776 146.081 16.304 146.249 16.928C146.441 17.528 146.537 18.188 146.537 18.908C146.537 21.236 145.685 23.084 143.981 24.452C142.301 25.82 140.105 26.504 137.393 26.504ZM155.628 26.504C153.132 26.504 151.032 25.952 149.328 24.848C147.624 23.72 146.424 22.196 145.728 20.276L149.976 17.792C150.96 20.36 152.892 21.644 155.772 21.644C157.164 21.644 158.184 21.392 158.832 20.888C159.48 20.384 159.804 19.748 159.804 18.98C159.804 18.092 159.408 17.408 158.616 16.928C157.824 16.424 156.408 15.884 154.368 15.308C153.24 14.972 152.28 14.636 151.488 14.3C150.72 13.964 149.94 13.52 149.148 12.968C148.38 12.392 147.792 11.672 147.384 10.808C146.976 9.944 146.772 8.936 146.772 7.784C146.772 5.504 147.576 3.692 149.184 2.348C150.816 0.979999 152.772 0.295998 155.052 0.295998C157.092 0.295998 158.88 0.799998 160.416 1.808C161.976 2.792 163.188 4.172 164.052 5.948L159.876 8.36C158.868 6.2 157.26 5.12 155.052 5.12C154.02 5.12 153.204 5.36 152.604 5.84C152.028 6.296 151.74 6.896 151.74 7.64C151.74 8.432 152.064 9.08 152.712 9.584C153.384 10.064 154.656 10.592 156.528 11.168C157.296 11.408 157.872 11.6 158.256 11.744C158.664 11.864 159.204 12.068 159.876 12.356C160.572 12.62 161.1 12.872 161.46 13.112C161.844 13.352 162.276 13.676 162.756 14.084C163.236 14.492 163.596 14.912 163.836 15.344C164.1 15.776 164.316 16.304 164.484 16.928C164.676 17.528 164.772 18.188 164.772 18.908C164.772 21.236 163.92 23.084 162.216 24.452C160.536 25.82 158.34 26.504 155.628 26.504Z" fill="#CE152A"/>
</svg>
